<svg width="5" height="6" viewBox="0 0 5 6" fill="none" xmlns="http://www.w3.org/2000/svg">
<path d="M0.641286 0.01994C0.355782 0.0946173 0.120058 0.321468 0.0263542 0.611723C0.00146412 0.692036 0 0.803348 0 2.99294V5.28962L0.0395313 5.40375C0.131771 5.66583 0.330892 5.86309 0.594434 5.95608L0.702779 5.99413L2.4568 5.99835C4.42019 6.00258 4.30599 6.00681 4.51975 5.89972C4.77304 5.77432 4.94288 5.53902 4.98534 5.25862C5.00584 5.12477 5.00437 2.13345 4.98388 2.01509C4.96484 1.89674 4.92385 1.78824 4.86528 1.69243C4.83453 1.64312 4.56367 1.36554 4.10979 0.917477C3.72034 0.532819 3.37773 0.200293 3.34845 0.177749C3.27671 0.121388 3.07905 0.0340301 2.98242 0.014304C2.92971 0.00444093 2.55636 -0.0011951 1.81112 0.000213907C0.918005 0.000213907 0.702779 0.00444093 0.641286 0.01994ZM2.62957 2.46879C2.71302 2.52233 2.74523 2.58292 2.74523 2.68296C2.74523 2.78441 2.71009 2.84641 2.6281 2.8929C2.57978 2.92108 2.5505 2.92249 2.08638 2.92672C1.54026 2.93236 1.46412 2.92672 1.39677 2.88304C1.31185 2.82668 1.28843 2.783 1.28843 2.67733C1.28843 2.5956 1.29428 2.57447 1.32796 2.5322C1.40409 2.43639 1.40117 2.43639 2.02195 2.43639C2.57832 2.43639 2.57978 2.43639 2.62957 2.46879ZM3.53586 3.67631C3.59589 3.69181 3.67348 3.76226 3.69545 3.82144C3.73937 3.93275 3.68666 4.06801 3.57978 4.12297L3.51682 4.15537H2.49633H1.47584L1.41288 4.12297C1.22694 4.02856 1.24304 3.73267 1.4363 3.67631C1.49633 3.6594 3.47144 3.6594 3.53586 3.67631Z" fill="#727272"/>
</svg>
