<svg width="22" height="22" viewBox="0 0 22 22" fill="none" xmlns="http://www.w3.org/2000/svg">
<path d="M8.52595 6.30355C8.59578 6.51304 8.59578 6.51304 8.53113 6.64343C8.49917 6.6897 8.46722 6.73597 8.43429 6.78364C8.31922 6.95436 8.24437 7.07875 8.18116 7.27682C8.15667 7.32434 8.13219 7.37187 8.10696 7.42084C7.88874 7.47758 7.88874 7.47758 7.68798 7.49067C7.68798 7.58285 7.68798 7.67503 7.68798 7.77C7.60942 7.8922 7.60942 7.8922 7.47849 7.97949C7.26236 7.99713 7.11528 8.00737 6.91984 7.90966C6.91984 7.97879 6.91984 8.04792 6.91984 8.11915C7.05811 8.11915 7.19637 8.11915 7.33882 8.11915C7.36187 8.18828 7.38491 8.25741 7.40866 8.32864C7.22334 8.63256 7.05193 8.73206 6.71035 8.81746C6.80252 8.81746 6.8947 8.81746 6.98967 8.81746C6.98967 8.90963 6.98967 9.00181 6.98967 9.09678C7.19707 9.06221 7.19707 9.06221 7.40866 9.02695C7.39081 9.43647 7.36274 9.70134 7.0595 10.0046C7.09839 9.98153 7.13728 9.95849 7.17734 9.93475C7.35997 9.85577 7.4911 9.85398 7.68798 9.86492C7.62967 10.4218 7.62967 10.4218 7.4302 10.5973C7.29518 10.6723 7.29518 10.6723 7.0595 10.7727C7.17472 10.7727 7.28994 10.7727 7.40866 10.7727C7.38561 10.934 7.36257 11.0953 7.33882 11.2615C7.45405 11.2615 7.56927 11.2615 7.68798 11.2615C7.64793 11.4618 7.62782 11.5312 7.47849 11.6805C7.3301 11.7242 7.3301 11.7242 7.19916 11.7503C7.29134 11.7964 7.38352 11.8425 7.47849 11.89C7.39568 12.1257 7.31957 12.2844 7.12933 12.4487C7.21143 12.4551 7.21143 12.4551 7.29518 12.4617C7.35567 12.4805 7.41616 12.4992 7.47849 12.5185C7.57014 12.6974 7.57014 12.6974 7.61815 12.8676C7.44532 12.9022 7.44532 12.9022 7.26899 12.9375C7.26899 13.0757 7.26899 13.214 7.26899 13.3565C7.17682 13.3565 7.08464 13.3565 6.98967 13.3565C6.98967 13.4025 6.98967 13.4486 6.98967 13.4961C7.2662 13.5192 7.54273 13.5422 7.82764 13.5659C7.82764 12.045 7.82764 10.5241 7.82764 8.95712C7.73546 8.95712 7.64329 8.95712 7.54832 8.95712C7.63512 8.26171 8.04966 7.59988 8.60014 7.16825C9.37926 6.62449 10.091 6.44414 11.0399 6.51304C11.9038 6.67529 12.6311 7.11308 13.1348 7.83983C13.5538 8.56167 13.5538 8.56167 13.5538 8.95712C13.4616 8.95712 13.3694 8.95712 13.2744 8.95712C13.2744 10.478 13.2744 11.9989 13.2744 13.5659C13.574 13.5659 13.8736 13.5659 14.1822 13.5659C14.1592 13.4968 14.1361 13.4277 14.1124 13.3565C14.0202 13.3565 13.9281 13.3565 13.8331 13.3565C13.8331 13.2182 13.8331 13.0799 13.8331 12.9375C13.7409 12.9375 13.6487 12.9375 13.5538 12.9375C13.5768 12.7992 13.5998 12.6609 13.6236 12.5185C13.7388 12.4954 13.854 12.4724 13.9727 12.4487C13.9252 12.3968 13.8777 12.345 13.8287 12.2915C13.6934 12.0995 13.6934 12.0995 13.7021 11.9424C13.7633 11.8202 13.7633 11.8202 13.9029 11.7503C13.8482 11.7345 13.7935 11.7187 13.7371 11.7023C13.5538 11.6107 13.5538 11.6107 13.4621 11.4274C13.4463 11.3727 13.4304 11.3179 13.4141 11.2615C13.5293 11.2385 13.6445 11.2154 13.7633 11.1917C13.7633 11.0534 13.7633 10.9152 13.7633 10.7727C13.8554 10.7727 13.9476 10.7727 14.0426 10.7727C13.9763 10.7295 13.9101 10.6863 13.8418 10.6418C13.6236 10.4934 13.6236 10.4934 13.4839 10.3537C13.4752 10.1006 13.4752 10.1006 13.4839 9.86492C13.8855 9.91729 13.8855 9.91729 14.0426 10.0744C14.0583 9.91848 14.0583 9.91848 13.9073 9.78636C13.7184 9.52314 13.7151 9.34684 13.6934 9.02695C13.8317 9.04999 13.9699 9.07304 14.1124 9.09678C14.1124 9.0046 14.1124 8.91243 14.1124 8.81746C14.2276 8.81746 14.3428 8.81746 14.4616 8.81746C14.3867 8.80161 14.3118 8.78577 14.2346 8.76945C13.9458 8.66836 13.8464 8.59 13.6934 8.32864C13.728 8.22494 13.728 8.22494 13.7633 8.11915C13.9015 8.11915 14.0398 8.11915 14.1822 8.11915C14.1592 8.05002 14.1361 7.98088 14.1124 7.90966C14.0778 7.94422 14.0778 7.94422 14.0426 7.97949C13.8025 7.96203 13.8025 7.96203 13.5538 7.90966C13.4141 7.70016 13.4141 7.70016 13.3443 7.49067C13.229 7.46763 13.1138 7.44458 12.9951 7.42084C12.9778 7.35891 12.9605 7.29698 12.9427 7.23317C12.8522 6.99316 12.7368 6.84968 12.5761 6.6527C12.5238 6.49122 12.5238 6.49122 12.5063 6.37338C12.7203 6.26639 12.8985 6.28753 13.1348 6.30355C13.3355 6.38647 13.3355 6.38647 13.4839 6.51304C13.5407 6.70071 13.5407 6.70071 13.5538 6.8622C13.584 6.80459 13.6143 6.74698 13.6454 6.68762C13.6843 6.63001 13.7232 6.5724 13.7633 6.51304C13.9727 6.51304 13.9727 6.51304 14.0906 6.61779C14.1208 6.65235 14.1511 6.68692 14.1822 6.72253C14.2125 6.68797 14.2427 6.6534 14.2739 6.61779C14.3917 6.51304 14.3917 6.51304 14.6012 6.51304C14.7056 6.72183 14.6791 6.91111 14.6711 7.14152C14.648 7.21065 14.625 7.27978 14.6012 7.35101C14.638 7.49688 14.638 7.49688 14.7016 7.64343C14.7217 7.69339 14.7417 7.74335 14.7624 7.79482C14.7784 7.83272 14.7943 7.87061 14.8107 7.90966C14.851 7.88661 14.8914 7.86357 14.9329 7.83983C15.09 7.77 15.09 7.77 15.3694 7.77C15.2658 8.16712 15.2658 8.16712 15.0857 8.27627C15.041 8.29355 14.9964 8.31083 14.9504 8.32864C14.9273 8.37473 14.9043 8.42082 14.8805 8.4683C15.0188 8.42221 15.1571 8.37613 15.2995 8.32864C15.3226 8.35169 15.3456 8.37473 15.3694 8.39847C15.3631 8.50207 15.3521 8.60541 15.3388 8.70835C15.3094 8.93686 15.3094 8.93686 15.2995 9.16661C15.5069 9.18965 15.7143 9.2127 15.928 9.23644C15.8991 9.57401 15.762 9.71795 15.509 9.93475C15.4399 9.95779 15.3708 9.98084 15.2995 10.0046C15.335 10.3061 15.3831 10.5655 15.509 10.8425C15.4392 10.9124 15.4392 10.9124 15.3102 10.9192C15.167 10.9169 15.0238 10.9147 14.8805 10.9124C14.8575 11.0276 14.8345 11.1428 14.8107 11.2615C14.9259 11.2846 15.0412 11.3076 15.1599 11.3314C15.1599 11.4235 15.1599 11.5157 15.1599 11.6107C15.229 11.6568 15.2981 11.7029 15.3694 11.7503C15.3463 11.8195 15.3233 11.8886 15.2995 11.9598C15.138 12.0035 15.138 12.0035 14.9504 12.0297C14.8812 11.9836 14.8121 11.9375 14.7409 11.89C14.761 11.9338 14.7812 11.9775 14.802 12.0226C14.8409 12.1082 14.8409 12.1082 14.8805 12.1955C14.9194 12.2806 14.9194 12.2806 14.9591 12.3674C15.0202 12.5185 15.0202 12.5185 15.0202 12.6581C15.1153 12.6841 15.1153 12.6841 15.2122 12.7105C15.449 12.8016 15.5627 12.8794 15.7185 13.0771C15.7185 13.1463 15.7185 13.2154 15.7185 13.2866C15.5342 13.3097 15.3498 13.3327 15.1599 13.3565C15.1599 13.4025 15.1599 13.4486 15.1599 13.4961C15.3673 13.5307 15.3673 13.5307 15.5788 13.5659C15.5788 13.7733 15.5788 13.9807 15.5788 14.1944C15.5328 14.1944 15.4867 14.1944 15.4392 14.1944C15.4392 14.6783 15.4392 15.1623 15.4392 15.6609C12.213 15.6609 8.98683 15.6609 5.66289 15.6609C5.66289 15.1769 5.66289 14.693 5.66289 14.1944C5.6168 14.1944 5.57071 14.1944 5.52323 14.1944C5.52323 13.987 5.52323 13.7796 5.52323 13.5659C5.76519 13.5314 5.76519 13.5314 6.01204 13.4961C6.01204 13.45 6.01204 13.4039 6.01204 13.3565C5.73551 13.3219 5.73551 13.3219 5.4534 13.2866C5.47618 13.0759 5.49605 12.9656 5.64543 12.8109C5.82849 12.7143 5.94757 12.711 6.1517 12.728C6.16034 12.666 6.16899 12.6041 6.17789 12.5403C6.21763 12.3297 6.27503 12.1551 6.36119 11.9598C6.29638 11.9742 6.23157 11.9886 6.1648 12.0035C5.94221 12.0297 5.94221 12.0297 5.73272 11.89C5.80255 11.6805 5.80255 11.6805 5.94221 11.5409C5.94221 11.4717 5.94221 11.4026 5.94221 11.3314C6.11504 11.2968 6.11504 11.2968 6.29136 11.2615C6.2568 11.0887 6.2568 11.0887 6.22153 10.9124C6.03718 10.9124 5.85283 10.9124 5.66289 10.9124C5.69766 10.6516 5.72398 10.5065 5.87238 10.2839C5.83781 10.1802 5.83781 10.1802 5.80255 10.0744C5.82559 10.0283 5.84864 9.98223 5.87238 9.93475C5.82197 9.93187 5.77156 9.92899 5.71962 9.92602C5.4318 9.83647 5.34608 9.69166 5.17407 9.44593C5.17407 9.3768 5.17407 9.30767 5.17407 9.23644C5.27584 9.22283 5.37769 9.20986 5.47958 9.19716C5.56465 9.18622 5.56465 9.18622 5.65143 9.17507C5.80255 9.16661 5.80255 9.16661 5.94221 9.23644C5.89612 9.16731 5.85003 9.09818 5.80255 9.02695C5.69329 8.54716 5.69329 8.54716 5.80255 8.32864C5.94081 8.35169 6.07908 8.37473 6.22153 8.39847C6.16536 8.37255 6.10919 8.34662 6.05132 8.31991C5.87238 8.18898 5.87238 8.18898 5.81564 7.96639C5.81132 7.90158 5.807 7.83677 5.80255 7.77C5.85584 7.78152 5.90913 7.79304 5.96403 7.80491C6.15421 7.84621 6.15421 7.84621 6.36119 7.83983C6.47137 7.43828 6.50592 7.13862 6.43103 6.72253C6.45407 6.6534 6.47711 6.58427 6.50086 6.51304C6.70768 6.55583 6.80676 6.60059 6.98967 6.72253C7.0588 6.6534 7.12794 6.58427 7.19916 6.51304C7.33446 6.56978 7.33446 6.56978 7.47849 6.6527C7.51305 6.7564 7.51305 6.7564 7.54832 6.8622C7.5656 6.80891 7.58288 6.75562 7.60069 6.70071C7.80624 6.25879 8.08435 6.28147 8.52595 6.30355ZM7.82764 6.58287C7.7821 6.72425 7.7821 6.72425 7.75781 6.8622C7.93064 6.89676 7.93064 6.89676 8.10696 6.93203C8.19914 6.79376 8.29132 6.6555 8.38629 6.51304C8.09712 6.4984 8.09712 6.4984 7.82764 6.58287ZM12.7856 6.51304C12.8347 6.68829 12.8347 6.68829 12.9253 6.8622C13.061 6.93106 13.061 6.93106 13.2046 6.93203C13.2507 6.90898 13.2968 6.88594 13.3443 6.8622C13.3212 6.77002 13.2982 6.67784 13.2744 6.58287C13.1131 6.55983 12.9518 6.53679 12.7856 6.51304ZM6.64052 6.72253C6.64052 6.8608 6.64052 6.99906 6.64052 7.14152C6.70965 7.14152 6.77878 7.14152 6.85001 7.14152C6.82596 6.96885 6.82596 6.96885 6.78018 6.79237C6.73409 6.76932 6.688 6.74628 6.64052 6.72253ZM7.19916 6.72253C7.17612 6.8608 7.15307 6.99906 7.12933 7.14152C7.19846 7.14152 7.2676 7.14152 7.33882 7.14152C7.31578 7.00325 7.29274 6.86499 7.26899 6.72253C7.24595 6.72253 7.22291 6.72253 7.19916 6.72253ZM8.66561 7.42084C8.62267 7.45748 8.57973 7.49412 8.53549 7.53186C8.19932 7.8378 7.99488 8.1864 7.82764 8.60796C7.82764 8.65405 7.82764 8.70014 7.82764 8.74763C7.94286 8.74763 8.05808 8.74763 8.17679 8.74763C8.19714 8.70793 8.21748 8.66823 8.23844 8.62733C8.6222 7.90447 9.0534 7.42104 9.844 7.15461C10.5153 6.97498 11.1525 7.04341 11.7673 7.3712C12.3328 7.72542 12.6511 8.14656 12.9253 8.74763C13.0405 8.74763 13.1557 8.74763 13.2744 8.74763C13.1839 8.1625 12.8347 7.68602 12.3811 7.31828C11.239 6.52591 9.73102 6.4448 8.66561 7.42084ZM13.8331 6.72253C13.7631 6.97276 13.7631 6.97276 13.8331 7.21135C13.8792 7.21135 13.9253 7.21135 13.9727 7.21135C13.9497 7.05004 13.9267 6.88873 13.9029 6.72253C13.8799 6.72253 13.8568 6.72253 13.8331 6.72253ZM14.3917 6.72253C14.2327 6.91912 14.2327 6.91912 14.2521 7.14152C14.3212 7.14152 14.3903 7.14152 14.4616 7.14152C14.4846 7.00325 14.5076 6.86499 14.5314 6.72253C14.4853 6.72253 14.4392 6.72253 14.3917 6.72253ZM7.68798 7.00186C7.61885 7.10556 7.61885 7.10556 7.54832 7.21135C7.61745 7.18831 7.68658 7.16526 7.75781 7.14152C7.73476 7.09543 7.71172 7.04934 7.68798 7.00186ZM13.3443 7.00186C13.3673 7.07099 13.3904 7.14012 13.4141 7.21135C13.4832 7.18831 13.5524 7.16526 13.6236 7.14152C13.5314 7.09543 13.4392 7.04934 13.3443 7.00186ZM6.91984 7.21135C6.96593 7.30353 7.01202 7.3957 7.0595 7.49067C7.03646 7.3985 7.01341 7.30632 6.98967 7.21135C6.96663 7.21135 6.94358 7.21135 6.91984 7.21135ZM7.82764 7.21135C7.85068 7.25744 7.87373 7.30353 7.89747 7.35101C7.92051 7.30492 7.94356 7.25883 7.9673 7.21135C7.92121 7.21135 7.87512 7.21135 7.82764 7.21135ZM10.6209 7.21135C10.6209 7.51092 10.6209 7.8105 10.6209 8.11915C10.713 8.14219 10.8052 8.16524 10.9002 8.18898C11.0845 7.95854 11.2689 7.7281 11.4588 7.49067C11.4358 7.44458 11.4127 7.3985 11.389 7.35101C11.2089 7.30276 11.2089 7.30276 11.0006 7.27245C10.8753 7.25229 10.75 7.23212 10.6209 7.21135ZM13.2046 7.21135C13.2744 7.35101 13.2744 7.35101 13.2744 7.35101L13.2046 7.21135ZM14.1124 7.21135C14.0894 7.28048 14.0663 7.34961 14.0426 7.42084C14.0887 7.42084 14.1348 7.42084 14.1822 7.42084C14.1592 7.35171 14.1361 7.28258 14.1124 7.21135ZM10.0186 7.28118C9.96151 7.29414 9.90444 7.30711 9.84564 7.32046C9.80189 7.33054 9.75814 7.34062 9.71307 7.35101C9.71307 7.61661 9.79253 7.68459 9.95748 7.88784C10.0028 7.94428 10.0482 8.00072 10.095 8.05887C10.1302 8.1018 10.1655 8.14474 10.2019 8.18898C10.2941 8.16594 10.3862 8.14289 10.4812 8.11915C10.4812 7.81958 10.4812 7.52 10.4812 7.21135C10.3179 7.21135 10.1777 7.2448 10.0186 7.28118ZM6.64052 7.49067C6.64052 7.58285 6.64052 7.67503 6.64052 7.77C6.68661 7.77 6.73269 7.77 6.78018 7.77C6.75713 7.67782 6.73409 7.58564 6.71035 7.49067C6.6873 7.49067 6.66426 7.49067 6.64052 7.49067ZM14.3917 7.49067C14.3687 7.58285 14.3456 7.67503 14.3219 7.77C14.368 7.77 14.4141 7.77 14.4616 7.77C14.4385 7.67782 14.4155 7.58564 14.3917 7.49067ZM9.0715 7.73508C9.00669 7.79269 8.94188 7.8503 8.8751 7.90966C9.09878 8.09914 9.31243 8.18414 9.59087 8.2719C9.70375 8.30796 9.70375 8.30796 9.81891 8.34474C9.87616 8.36247 9.93341 8.3802 9.99239 8.39847C10.0154 8.35238 10.0385 8.3063 10.0622 8.25881C9.97427 8.14182 9.88535 8.02557 9.79599 7.90966C9.74657 7.84485 9.69716 7.78003 9.64624 7.71326C9.59916 7.66285 9.55208 7.61244 9.50358 7.5605C9.26709 7.5605 9.23985 7.58544 9.0715 7.73508ZM11.5985 7.5605C11.5052 7.67527 11.4121 7.79024 11.3192 7.90529C11.2414 8.00129 11.2414 8.00129 11.1621 8.09924C11.0328 8.23455 11.0328 8.23455 11.0399 8.32864C11.4869 8.29613 11.8267 8.17871 12.227 7.97949C11.9595 7.68747 11.9595 7.68747 11.5985 7.5605ZM7.19916 7.63033C7.19916 7.69947 7.19916 7.7686 7.19916 7.83983C7.29134 7.79374 7.38352 7.74765 7.47849 7.70016C7.38631 7.67712 7.29413 7.65408 7.19916 7.63033ZM13.6236 7.63033C13.6927 7.73403 13.6927 7.73403 13.7633 7.83983C13.8324 7.81678 13.9015 7.79374 13.9727 7.77C13.9727 7.72391 13.9727 7.67782 13.9727 7.63033C13.8575 7.63033 13.7423 7.63033 13.6236 7.63033ZM6.50086 7.97949C6.50086 8.04862 6.50086 8.11775 6.50086 8.18898C6.56999 8.11985 6.63912 8.05072 6.71035 7.97949C6.64122 7.97949 6.57208 7.97949 6.50086 7.97949ZM14.4616 7.97949C14.4616 8.02558 14.4616 8.07166 14.4616 8.11915C14.5537 8.14219 14.6459 8.16524 14.7409 8.18898C14.6948 8.11985 14.6487 8.05072 14.6012 7.97949C14.5551 7.97949 14.509 7.97949 14.4616 7.97949ZM8.66561 8.18898C8.57343 8.37333 8.48126 8.55769 8.38629 8.74763C8.82412 8.74763 9.26196 8.74763 9.71307 8.74763C9.71307 8.65545 9.71307 8.56327 9.71307 8.4683C9.59108 8.42119 9.46882 8.37477 9.34646 8.32864C9.24438 8.28975 9.24438 8.28975 9.14024 8.25008C8.93461 8.17508 8.93461 8.17508 8.66561 8.18898ZM12.3666 8.11915C12.2049 8.17382 12.0435 8.22919 11.8822 8.285C11.8131 8.30822 11.8131 8.30822 11.7427 8.33191C11.4815 8.40749 11.4815 8.40749 11.3192 8.60796C11.3422 8.65405 11.3653 8.70014 11.389 8.74763C11.8268 8.74763 12.2647 8.74763 12.7158 8.74763C12.6051 8.36389 12.6051 8.36389 12.3666 8.11915ZM6.43103 8.32864C6.50016 8.43234 6.50016 8.43234 6.57069 8.53813C6.57069 8.469 6.57069 8.39987 6.57069 8.32864C6.5246 8.32864 6.47851 8.32864 6.43103 8.32864ZM6.85001 8.32864C6.82697 8.39777 6.80392 8.46691 6.78018 8.53813C6.95285 8.51408 6.95285 8.51408 7.12933 8.4683C7.15238 8.42221 7.17542 8.37613 7.19916 8.32864C7.08394 8.32864 6.96872 8.32864 6.85001 8.32864ZM13.9727 8.32864C13.9727 8.37473 13.9727 8.42082 13.9727 8.4683C14.1801 8.50287 14.1801 8.50287 14.3917 8.53813C14.3456 8.469 14.2996 8.39987 14.2521 8.32864C14.1599 8.32864 14.0677 8.32864 13.9727 8.32864ZM14.5314 8.32864C14.5544 8.39777 14.5775 8.46691 14.6012 8.53813C14.6243 8.469 14.6473 8.39987 14.6711 8.32864C14.625 8.32864 14.5789 8.32864 14.5314 8.32864ZM10.0622 8.53813C10.0161 8.60727 9.97005 8.6764 9.92256 8.74763C10.3374 8.74763 10.7522 8.74763 11.1795 8.74763C10.9484 8.39529 10.9484 8.39529 10.6994 8.32864C10.4309 8.32864 10.2875 8.39479 10.0622 8.53813ZM5.94221 8.53813C5.94948 8.77561 5.94948 8.77561 6.01204 9.02695C6.18139 9.16597 6.18139 9.16597 6.36119 9.23644C6.42123 9.07632 6.42123 9.07632 6.43103 8.88729C6.27737 8.68974 6.18095 8.61771 5.94221 8.53813ZM14.6711 8.88729C14.6941 9.00251 14.7171 9.11773 14.7409 9.23644C14.9207 9.16597 14.9207 9.16597 15.09 9.02695C15.1526 8.77561 15.1526 8.77561 15.1599 8.53813C14.9917 8.53813 14.7936 8.78303 14.6711 8.88729ZM8.03713 8.95712C8.03713 10.478 8.03713 11.9989 8.03713 13.5659C8.08322 13.5659 8.12931 13.5659 8.17679 13.5659C8.17679 12.045 8.17679 10.5241 8.17679 8.95712C8.13071 8.95712 8.08462 8.95712 8.03713 8.95712ZM8.31645 8.95712C8.3395 10.6854 8.36254 12.4137 8.38629 14.1944C8.31715 14.1944 8.24802 14.1944 8.17679 14.1944C8.17679 14.2866 8.17679 14.3788 8.17679 14.4737C8.31506 14.4737 8.45332 14.4737 8.59578 14.4737C8.57273 12.6993 8.54969 10.9249 8.52595 9.09678C9.86251 9.09678 11.1991 9.09678 12.5761 9.09678C12.5761 10.8712 12.5761 12.6456 12.5761 14.4737C12.7144 14.4737 12.8527 14.4737 12.9951 14.4737C12.9951 14.3816 12.9951 14.2894 12.9951 14.1944C12.9029 14.1944 12.8108 14.1944 12.7158 14.1944C12.7272 14.1128 12.7386 14.0311 12.7503 13.947C12.8035 13.4647 12.7943 12.9809 12.7924 12.4964C12.7923 12.394 12.7922 12.2915 12.7921 12.1891C12.7919 11.9215 12.7912 11.6539 12.7904 11.3863C12.7896 11.0642 12.7893 10.742 12.7888 10.4199C12.7882 9.93229 12.7868 9.44471 12.7856 8.95712C11.3108 8.95712 9.83597 8.95712 8.31645 8.95712ZM12.9951 8.95712C12.9951 10.478 12.9951 11.9989 12.9951 13.5659C13.0182 13.5659 13.0412 13.5659 13.0649 13.5659C13.0649 12.045 13.0649 10.5241 13.0649 8.95712C13.0419 8.95712 13.0189 8.95712 12.9951 8.95712ZM14.3219 9.02695C14.368 9.07304 14.4141 9.11913 14.4616 9.16661C14.4616 9.12052 14.4616 9.07443 14.4616 9.02695C14.4155 9.02695 14.3694 9.02695 14.3219 9.02695ZM13.9029 9.23644C13.9284 9.42512 13.9517 9.55654 14.0644 9.71216C14.1963 9.82188 14.1963 9.82188 14.4616 9.79509C14.4652 9.62591 14.4652 9.62591 14.3917 9.44593C14.1492 9.31536 14.1492 9.31536 13.9029 9.23644ZM6.71035 9.44593C6.64268 9.62639 6.64268 9.62639 6.64052 9.79509C6.80628 9.81843 6.80628 9.81843 6.98967 9.79509C7.15872 9.62604 7.22728 9.47002 7.26899 9.23644C7.04329 9.23644 6.89963 9.32914 6.71035 9.44593ZM8.73544 9.30627C8.73544 9.32932 8.73544 9.35236 8.73544 9.3761C9.2885 9.3761 9.84156 9.3761 10.4114 9.3761C10.4114 10.7818 10.4114 12.1875 10.4114 13.6358C9.85832 13.6358 9.30526 13.6358 8.73544 13.6358C8.73544 13.8432 8.73544 14.0506 8.73544 14.2643C9.31154 14.2643 9.88765 14.2643 10.4812 14.2643C10.4812 12.6281 10.4812 10.992 10.4812 9.30627C9.9051 9.30627 9.329 9.30627 8.73544 9.30627ZM10.6907 9.30627C10.6907 9.32932 10.6907 9.35236 10.6907 9.3761C11.2438 9.3761 11.7968 9.3761 12.3666 9.3761C12.3666 9.35306 12.3666 9.33001 12.3666 9.30627C11.8136 9.30627 11.2605 9.30627 10.6907 9.30627ZM14.9504 9.30627C14.9504 9.3754 14.9504 9.44454 14.9504 9.51576C14.9965 9.44663 15.0426 9.3775 15.09 9.30627C15.0439 9.30627 14.9979 9.30627 14.9504 9.30627ZM5.38356 9.3761C5.45791 9.55832 5.45791 9.55832 5.59306 9.72526C5.81137 9.75441 5.81137 9.75441 6.01204 9.72526C5.9773 9.53277 5.9773 9.53277 5.87238 9.3761C5.70947 9.37324 5.54648 9.37314 5.38356 9.3761ZM6.1517 9.3761C6.17475 9.42219 6.19779 9.46828 6.22153 9.51576C6.24458 9.46968 6.26762 9.42359 6.29136 9.3761C6.24528 9.3761 6.19919 9.3761 6.1517 9.3761ZM15.1686 9.48085C15.1427 9.51541 15.1167 9.54998 15.09 9.58559C15.1592 9.65473 15.2283 9.72386 15.2995 9.79509C15.5831 9.65277 15.5831 9.65277 15.7185 9.3761C15.4212 9.34765 15.4212 9.34765 15.1686 9.48085ZM10.6209 9.44593C10.6209 9.86073 10.6209 10.2755 10.6209 10.7029C10.6439 10.7029 10.667 10.7029 10.6907 10.7029C10.6907 10.2881 10.6907 9.8733 10.6907 9.44593C10.6677 9.44593 10.6446 9.44593 10.6209 9.44593ZM14.7409 9.51576C14.8107 9.65543 14.8107 9.65543 14.8107 9.65543L14.7409 9.51576ZM9.08459 9.65543C9.08459 9.93195 9.08459 10.2085 9.08459 10.4934C9.22286 10.4934 9.36112 10.4934 9.50358 10.4934C9.50358 10.2169 9.50358 9.94033 9.50358 9.65543C9.36531 9.65543 9.22705 9.65543 9.08459 9.65543ZM9.71307 9.65543C9.71307 9.93195 9.71307 10.2085 9.71307 10.4934C9.85133 10.4934 9.9896 10.4934 10.1321 10.4934C10.1321 10.2169 10.1321 9.94033 10.1321 9.65543C9.99379 9.65543 9.85552 9.65543 9.71307 9.65543ZM10.97 9.65543C10.97 9.93195 10.97 10.2085 10.97 10.4934C11.1313 10.4934 11.2926 10.4934 11.4588 10.4934C11.4588 10.2169 11.4588 9.94033 11.4588 9.65543C11.2975 9.65543 11.1362 9.65543 10.97 9.65543ZM11.5985 9.65543C11.5985 9.93195 11.5985 10.2085 11.5985 10.4934C11.7368 10.4934 11.875 10.4934 12.0175 10.4934C12.0175 10.2169 12.0175 9.94033 12.0175 9.65543C11.8792 9.65543 11.741 9.65543 11.5985 9.65543ZM6.08187 9.93475C6.05883 9.98084 6.03578 10.0269 6.01204 10.0744C6.05813 10.0744 6.10422 10.0744 6.1517 10.0744C6.12866 10.0283 6.10561 9.98223 6.08187 9.93475ZM6.64052 10.0046C6.66356 10.0507 6.68661 10.0968 6.71035 10.1442C6.75644 10.0982 6.80252 10.0521 6.85001 10.0046C6.78088 10.0046 6.71174 10.0046 6.64052 10.0046ZM13.6236 10.0046C13.6466 10.1198 13.6697 10.235 13.6934 10.3537C13.8317 10.3883 13.8317 10.3883 13.9727 10.4236C13.9591 10.2874 13.9591 10.2874 13.9029 10.1442C13.7644 10.0546 13.7644 10.0546 13.6236 10.0046ZM14.2521 10.0046C14.3558 10.0737 14.3558 10.0737 14.4616 10.1442C14.4616 10.0982 14.4616 10.0521 14.4616 10.0046C14.3924 10.0046 14.3233 10.0046 14.2521 10.0046ZM7.33882 10.0744C7.29274 10.1205 7.24665 10.1666 7.19916 10.2141C7.19916 10.2832 7.19916 10.3523 7.19916 10.4236C7.29134 10.3775 7.38352 10.3314 7.47849 10.2839C7.47849 10.2148 7.47849 10.1456 7.47849 10.0744C7.4324 10.0744 7.38631 10.0744 7.33882 10.0744ZM6.78018 10.2141C6.85001 10.3537 6.85001 10.3537 6.85001 10.3537L6.78018 10.2141ZM6.22153 10.2839C6.10368 10.3988 5.98732 10.5152 5.87238 10.6331C5.87238 10.6561 5.87238 10.6791 5.87238 10.7029C6.11434 10.6683 6.11434 10.6683 6.36119 10.6331C6.38424 10.5409 6.40728 10.4487 6.43103 10.3537C6.36189 10.3307 6.29276 10.3076 6.22153 10.2839ZM14.7409 10.2839C14.7178 10.3761 14.6948 10.4683 14.6711 10.5632C14.8965 10.7135 14.9702 10.7169 15.2297 10.7029C15.1048 10.4409 15.1048 10.4409 14.8674 10.297C14.8257 10.2927 14.7839 10.2884 14.7409 10.2839ZM14.1124 10.3537C14.1317 10.4893 14.1317 10.4893 14.1822 10.6331C14.2859 10.7022 14.2859 10.7022 14.3917 10.7727C14.3917 10.6805 14.3917 10.5884 14.3917 10.4934C14.3226 10.4934 14.2535 10.4934 14.1822 10.4934C14.1592 10.4473 14.1361 10.4012 14.1124 10.3537ZM6.71035 10.4934C6.73339 10.5625 6.75644 10.6317 6.78018 10.7029C6.87236 10.6107 6.96453 10.5185 7.0595 10.4236C6.90512 10.4162 6.90512 10.4162 6.71035 10.4934ZM14.5314 10.7029C14.5544 10.772 14.5775 10.8412 14.6012 10.9124C14.6473 10.8663 14.6934 10.8202 14.7409 10.7727C14.6717 10.7497 14.6026 10.7266 14.5314 10.7029ZM6.50086 10.7029C6.45477 10.749 6.40868 10.7951 6.36119 10.8425C6.43033 10.8656 6.49946 10.8886 6.57069 10.9124C6.54764 10.8432 6.5246 10.7741 6.50086 10.7029ZM10.6209 10.8425C10.6209 11.2573 10.6209 11.6721 10.6209 12.0995C10.6439 12.0995 10.667 12.0995 10.6907 12.0995C10.6907 11.6847 10.6907 11.2699 10.6907 10.8425C10.6677 10.8425 10.6446 10.8425 10.6209 10.8425ZM13.9029 10.9822C13.9976 11.1594 13.9976 11.1594 14.1124 11.3314C14.1585 11.3314 14.2046 11.3314 14.2521 11.3314C14.229 11.2392 14.206 11.147 14.1822 11.052C14.0901 11.029 13.9979 11.006 13.9029 10.9822ZM6.85001 11.1917C6.85001 11.2378 6.85001 11.2839 6.85001 11.3314C6.94219 11.3083 7.03436 11.2853 7.12933 11.2615C7.15238 11.1694 7.17542 11.0772 7.19916 10.9822C7.05632 10.9822 6.95367 11.1048 6.85001 11.1917ZM9.08459 11.052C9.08459 11.3286 9.08459 11.6051 9.08459 11.89C9.22286 11.89 9.36112 11.89 9.50358 11.89C9.50358 11.6135 9.50358 11.3369 9.50358 11.052C9.36531 11.052 9.22705 11.052 9.08459 11.052ZM9.71307 11.052C9.71307 11.3286 9.71307 11.6051 9.71307 11.89C9.85133 11.89 9.9896 11.89 10.1321 11.89C10.1321 11.6135 10.1321 11.3369 10.1321 11.052C9.99379 11.052 9.85552 11.052 9.71307 11.052ZM10.97 11.052C10.97 11.3286 10.97 11.6051 10.97 11.89C11.1313 11.89 11.2926 11.89 11.4588 11.89C11.4588 11.6135 11.4588 11.3369 11.4588 11.052C11.2975 11.052 11.1362 11.052 10.97 11.052ZM11.5985 11.052C11.5985 11.3286 11.5985 11.6051 11.5985 11.89C11.7368 11.89 11.875 11.89 12.0175 11.89C12.0175 11.6135 12.0175 11.3369 12.0175 11.052C11.8792 11.052 11.741 11.052 11.5985 11.052ZM6.29136 11.4012C6.29136 11.4473 6.29136 11.4934 6.29136 11.5409C6.3605 11.5639 6.42963 11.5869 6.50086 11.6107C6.5239 11.5416 6.54694 11.4724 6.57069 11.4012C6.47851 11.4012 6.38633 11.4012 6.29136 11.4012ZM7.12933 11.4012C7.10629 11.4473 7.08324 11.4934 7.0595 11.5409C7.10559 11.5409 7.15168 11.5409 7.19916 11.5409C7.17612 11.4948 7.15307 11.4487 7.12933 11.4012ZM13.6236 11.4012C13.6697 11.4473 13.7158 11.4934 13.7633 11.5409C13.7633 11.4948 13.7633 11.4487 13.7633 11.4012C13.7172 11.4012 13.6711 11.4012 13.6236 11.4012ZM14.5314 11.4012C14.5544 11.4703 14.5775 11.5395 14.6012 11.6107C14.6934 11.5876 14.7856 11.5646 14.8805 11.5409C14.8805 11.4948 14.8805 11.4487 14.8805 11.4012C14.7653 11.4012 14.6501 11.4012 14.5314 11.4012ZM6.85001 11.5409C6.87305 11.5869 6.8961 11.633 6.91984 11.6805C6.96593 11.6344 7.01202 11.5883 7.0595 11.5409C6.99037 11.5409 6.92124 11.5409 6.85001 11.5409ZM14.0426 11.5409C14.1808 11.61 14.1808 11.61 14.3219 11.6805C14.3219 11.6344 14.3219 11.5883 14.3219 11.5409C14.2297 11.5409 14.1375 11.5409 14.0426 11.5409ZM14.4616 11.7503C14.4846 11.8195 14.5076 11.8886 14.5314 11.9598C14.6005 11.9138 14.6697 11.8677 14.7409 11.8202C14.6487 11.7971 14.5565 11.7741 14.4616 11.7503ZM15.0202 11.7503C15.09 11.89 15.09 11.89 15.09 11.89L15.0202 11.7503ZM6.57069 11.7503C6.5246 11.7964 6.47851 11.8425 6.43103 11.89C6.50016 11.9131 6.56929 11.9361 6.64052 11.9598C6.61747 11.8907 6.59443 11.8216 6.57069 11.7503ZM6.98967 11.9598C6.92054 12.029 6.85141 12.0981 6.78018 12.1693C6.87236 12.1924 6.96453 12.2154 7.0595 12.2392C7.10559 12.17 7.15168 12.1009 7.19916 12.0297C7.13003 12.0066 7.0609 11.9836 6.98967 11.9598ZM14.0426 11.9598C13.9965 12.0059 13.9504 12.052 13.9029 12.0995C13.949 12.1456 13.9951 12.1917 14.0426 12.2392C14.1348 12.2392 14.2269 12.2392 14.3219 12.2392C14.2989 12.17 14.2758 12.1009 14.2521 12.0297C14.1829 12.0066 14.1138 11.9836 14.0426 11.9598ZM6.50086 12.0995C6.57069 12.2392 6.57069 12.2392 6.57069 12.2392L6.50086 12.0995ZM14.5314 12.0995C14.6012 12.2392 14.6012 12.2392 14.6012 12.2392L14.5314 12.0995ZM10.6209 12.309C10.6209 12.7238 10.6209 13.1386 10.6209 13.5659C10.6439 13.5659 10.667 13.5659 10.6907 13.5659C10.6907 13.1512 10.6907 12.7364 10.6907 12.309C10.6677 12.309 10.6446 12.309 10.6209 12.309ZM9.08459 12.5185C9.08459 12.795 9.08459 13.0715 9.08459 13.3565C9.43025 13.3565 9.77592 13.3565 10.1321 13.3565C10.1321 13.0799 10.1321 12.8034 10.1321 12.5185C9.78639 12.5185 9.44073 12.5185 9.08459 12.5185ZM10.97 12.5185C10.97 12.795 10.97 13.0715 10.97 13.3565C11.3157 13.3565 11.6613 13.3565 12.0175 13.3565C12.0175 13.0799 12.0175 12.8034 12.0175 12.5185C11.6718 12.5185 11.3262 12.5185 10.97 12.5185ZM6.64052 12.6581C6.61747 12.7273 6.59443 12.7964 6.57069 12.8676C6.72252 13.0422 6.83119 13.1076 7.0595 13.147C7.01938 12.8725 7.01938 12.8725 6.85001 12.6581C6.78088 12.6581 6.71174 12.6581 6.64052 12.6581ZM14.2521 12.6581C14.0943 12.8854 14.0943 12.8854 14.0426 13.147C14.2523 13.0984 14.2523 13.0984 14.4616 13.0073C14.5292 12.8654 14.5292 12.8654 14.5314 12.728C14.4392 12.7049 14.347 12.6819 14.2521 12.6581ZM5.87238 12.8676C5.7533 13.0031 5.7533 13.0031 5.66289 13.147C5.80115 13.1239 5.93942 13.1009 6.08187 13.0771C6.08187 13.008 6.08187 12.9389 6.08187 12.8676C6.01274 12.8676 5.94361 12.8676 5.87238 12.8676ZM15.09 12.8676C15.09 12.9368 15.09 13.0059 15.09 13.0771C15.1645 13.1677 15.1645 13.1677 15.3388 13.1513C15.395 13.1499 15.4511 13.1484 15.509 13.147C15.419 13.0509 15.3256 12.9579 15.2297 12.8676C15.1836 12.8676 15.1375 12.8676 15.09 12.8676ZM6.29136 12.9375C6.26832 13.0066 6.24528 13.0757 6.22153 13.147C6.26762 13.147 6.31371 13.147 6.36119 13.147C6.33815 13.0778 6.31511 13.0087 6.29136 12.9375ZM14.7409 12.9375C14.7409 13.0066 14.7409 13.0757 14.7409 13.147C14.81 13.17 14.8791 13.193 14.9504 13.2168C14.9273 13.1246 14.9043 13.0324 14.8805 12.9375C14.8345 12.9375 14.7884 12.9375 14.7409 12.9375ZM6.50086 13.0771C6.57069 13.2168 6.57069 13.2168 6.57069 13.2168L6.50086 13.0771ZM10.6907 13.6358C10.6677 13.8432 10.6446 14.0506 10.6209 14.2643C11.197 14.2643 11.7731 14.2643 12.3666 14.2643C12.3666 14.0569 12.3666 13.8495 12.3666 13.6358C11.8136 13.6358 11.2605 13.6358 10.6907 13.6358ZM5.73272 13.7754C5.73272 13.8446 5.73272 13.9137 5.73272 13.9849C6.53926 13.9849 7.34581 13.9849 8.17679 13.9849C8.17679 13.9158 8.17679 13.8467 8.17679 13.7754C7.37025 13.7754 6.5637 13.7754 5.73272 13.7754ZM12.9253 13.7754C12.9253 13.8446 12.9253 13.9137 12.9253 13.9849C13.7318 13.9849 14.5384 13.9849 15.3694 13.9849C15.3694 13.9158 15.3694 13.8467 15.3694 13.7754C14.5628 13.7754 13.7563 13.7754 12.9253 13.7754ZM5.87238 14.1944C5.87238 14.494 5.87238 14.7936 5.87238 15.1022C6.5637 15.1022 7.25503 15.1022 7.9673 15.1022C7.9673 14.8026 7.9673 14.5031 7.9673 14.1944C7.27598 14.1944 6.58465 14.1944 5.87238 14.1944ZM13.1348 14.1944C13.1348 14.494 13.1348 14.7936 13.1348 15.1022C13.8261 15.1022 14.5174 15.1022 15.2297 15.1022C15.2297 14.8026 15.2297 14.5031 15.2297 14.1944C14.5384 14.1944 13.847 14.1944 13.1348 14.1944ZM8.59578 14.4737C8.59578 14.4968 8.59578 14.5198 8.59578 14.5436C9.88625 14.5436 11.1767 14.5436 12.5063 14.5436C12.5063 14.5205 12.5063 14.4975 12.5063 14.4737C11.2158 14.4737 9.92535 14.4737 8.59578 14.4737ZM8.17679 14.6832C8.17679 14.7293 8.17679 14.7754 8.17679 14.8229C9.76684 14.8229 11.3569 14.8229 12.9951 14.8229C12.9951 14.7768 12.9951 14.7307 12.9951 14.6832C11.4051 14.6832 9.81502 14.6832 8.17679 14.6832ZM8.17679 15.0324C8.17679 15.0554 8.17679 15.0785 8.17679 15.1022C9.76684 15.1022 11.3569 15.1022 12.9951 15.1022C12.9951 15.0792 12.9951 15.0561 12.9951 15.0324C11.4051 15.0324 9.81502 15.0324 8.17679 15.0324ZM5.87238 15.3117C5.87238 15.3578 5.87238 15.4039 5.87238 15.4514C8.96029 15.4514 12.0482 15.4514 15.2297 15.4514C15.2297 15.4053 15.2297 15.3592 15.2297 15.3117C12.1418 15.3117 9.05387 15.3117 5.87238 15.3117Z" fill="#880404"/>
<path d="M13.2746 0.367938C13.3556 0.390386 13.3556 0.390386 13.4384 0.413287C15.0158 0.862871 16.4721 1.69902 17.6739 2.81201C17.7118 2.84684 17.7497 2.88166 17.7887 2.91754C19.6007 4.60196 20.9206 7.06866 21.0382 9.56926C21.04 9.66362 21.0414 9.75799 21.0424 9.85237C21.0431 9.90353 21.0438 9.9547 21.0445 10.0074C21.0563 11.1271 21.0487 12.1995 20.7465 13.2866C20.7236 13.3738 20.7007 13.4611 20.6772 13.5509C20.1621 15.2786 19.2037 16.7572 17.9532 18.0351C17.9106 18.0813 17.8679 18.1275 17.8239 18.175C16.5418 19.5362 14.7066 20.3718 12.9254 20.8283C12.8791 20.8409 12.8328 20.8534 12.7851 20.8663C11.3766 21.2352 9.58193 21.1838 8.17694 20.8283C8.12887 20.8167 8.08081 20.8051 8.03128 20.7931C5.3369 20.127 3.01012 18.3647 1.55429 16.0171C0.196623 13.7658 -0.370633 10.9123 0.251429 8.32704C0.262861 8.28148 0.274293 8.23592 0.286072 8.18898C0.297684 8.14081 0.309296 8.09264 0.32126 8.04301C0.989451 5.34117 2.74601 3.01394 5.10439 1.55506C5.99086 1.02152 6.90283 0.647664 7.89762 0.367938C7.97691 0.344427 7.97691 0.344427 8.05781 0.320441C9.66366 -0.141056 11.6751 -0.0855098 13.2746 0.367938ZM7.96745 0.856753C7.9156 0.870233 7.86375 0.883713 7.81033 0.897602C6.49533 1.25008 5.22218 1.91757 4.19659 2.81201C4.10261 2.89289 4.10261 2.89289 4.00674 2.97541C3.83418 3.12744 3.66575 3.28288 3.49828 3.44049C3.45202 3.48226 3.40575 3.52402 3.35808 3.56706C1.73897 5.08784 0.645598 7.58252 0.557245 9.78912C0.465678 12.8464 1.38652 15.3883 3.44509 17.648C5.21171 19.4922 7.77588 20.518 10.3053 20.5771C11.2754 20.5862 12.1945 20.5099 13.1349 20.2697C13.1882 20.2562 13.2414 20.2427 13.2963 20.2288C14.609 19.8798 15.883 19.2063 16.9058 18.3144C16.9676 18.2613 17.0295 18.2082 17.0932 18.1535C17.2667 18.0008 17.4359 17.8445 17.6041 17.686C17.6555 17.6391 17.7069 17.5922 17.7598 17.5438C19.3694 16.0197 20.4453 13.6505 20.5482 11.4387C20.5838 9.83487 20.5838 9.83487 20.3275 8.25881C20.3136 8.20457 20.2997 8.15034 20.2854 8.09446C19.6003 5.46046 17.9296 3.27413 15.6014 1.86534C13.343 0.552523 10.4896 0.171515 7.96745 0.856753Z" fill="#880404"/>
<path d="M8.24668 3.44049C8.37911 3.44514 8.37911 3.44514 8.526 3.51032C8.62379 3.68911 8.62379 3.68911 8.71149 3.92467C8.74399 4.00888 8.77648 4.09309 8.80996 4.17985C8.84345 4.26941 8.87682 4.35902 8.91007 4.44867C8.97515 4.62364 9.0415 4.79793 9.10865 4.97213C9.13759 5.04994 9.16653 5.12776 9.19635 5.20793C9.30171 5.41029 9.36109 5.46352 9.57346 5.53541C9.57346 5.5815 9.57346 5.62759 9.57346 5.67507C9.18171 5.67507 8.78996 5.67507 8.38634 5.67507C8.38634 5.60594 8.38634 5.53681 8.38634 5.46558C8.47852 5.46558 8.57069 5.46558 8.66566 5.46558C8.61958 5.32732 8.57349 5.18905 8.526 5.0466C8.34165 5.02355 8.1573 5.00051 7.96736 4.97677C7.92127 5.11503 7.87518 5.2533 7.8277 5.39575C7.91987 5.4188 8.01205 5.44184 8.10702 5.46558C8.10702 5.53471 8.10702 5.60385 8.10702 5.67507C7.80744 5.67507 7.50787 5.67507 7.19922 5.67507C7.19922 5.60594 7.19922 5.53681 7.19922 5.46558C7.31444 5.44254 7.42966 5.41949 7.54837 5.39575C7.55413 5.34219 7.55989 5.28863 7.56583 5.23345C7.63787 4.88038 7.76703 4.55687 7.89753 4.22172C7.93614 4.12052 7.93614 4.12052 7.97554 4.01728C8.16696 3.52021 8.16696 3.52021 8.24668 3.44049ZM8.17685 4.20863C8.13076 4.36994 8.08467 4.53125 8.03719 4.69744C8.15241 4.69744 8.26763 4.69744 8.38634 4.69744C8.34025 4.53613 8.29416 4.37483 8.24668 4.20863C8.22364 4.20863 8.20059 4.20863 8.17685 4.20863Z" fill="#880404"/>
<path d="M11.0224 3.47105C11.1041 3.47816 11.1859 3.48527 11.2701 3.4926C11.3324 3.49845 11.3947 3.5043 11.4588 3.51033C11.5635 3.74573 11.5985 3.87376 11.5985 4.13881C11.3942 4.10854 11.313 4.06364 11.1533 3.92495C10.9784 3.77433 10.9784 3.77433 10.7562 3.75474C10.5507 3.77773 10.5507 3.77773 10.3896 3.88131C10.2015 4.18077 10.1881 4.48822 10.2019 4.83711C10.249 5.03008 10.3092 5.15189 10.4114 5.32593C10.6141 5.42729 10.7447 5.42176 10.97 5.39576C11.1134 5.28395 11.2533 5.16757 11.389 5.04661C11.5549 4.98987 11.5549 4.98987 11.6683 4.97678C11.6349 5.42013 11.6349 5.42013 11.4938 5.59652C11.0979 5.77465 10.6756 5.78373 10.2616 5.66063C9.97924 5.53994 9.77853 5.36322 9.61705 5.09898C9.52316 4.68588 9.50686 4.34743 9.72616 3.97296C10.0682 3.48696 10.4587 3.42032 11.0224 3.47105Z" fill="#880404"/>
<path d="M1.40324 7.70016C1.49541 7.70016 1.58759 7.70016 1.68256 7.70016C1.68256 7.74625 1.68256 7.79234 1.68256 7.83983C1.85539 7.90896 1.85539 7.90896 2.03171 7.97949C2.03171 7.91036 2.03171 7.84122 2.03171 7.77C2.12389 7.79304 2.21607 7.81608 2.31104 7.83983C2.25229 8.42726 2.14877 9.02494 1.96188 9.58559C1.91579 9.60864 1.86971 9.63168 1.82222 9.65542C1.86831 9.65542 1.9144 9.65542 1.96188 9.65542C1.96188 9.93195 1.96188 10.2085 1.96188 10.4934C1.84666 10.4703 1.73144 10.4473 1.61273 10.4236C1.61273 10.5157 1.61273 10.6079 1.61273 10.7029C1.78556 10.6683 1.78556 10.6683 1.96188 10.6331C1.96188 10.7713 1.96188 10.9096 1.96188 11.052C1.91579 11.052 1.86971 11.052 1.82222 11.052C1.79918 11.006 1.77613 10.9599 1.75239 10.9124C1.58896 10.8334 1.58896 10.8334 1.39887 10.764C1.33469 10.7393 1.27051 10.7147 1.20438 10.6892C1.15478 10.6707 1.10519 10.6522 1.05408 10.6331C1.05408 10.5409 1.05408 10.4487 1.05408 10.3537C1.12848 10.3259 1.12848 10.3259 1.20438 10.2975C1.26856 10.2729 1.33275 10.2482 1.39887 10.2228C1.46287 10.1985 1.52688 10.1742 1.59282 10.1491C1.76282 10.0896 1.76282 10.0896 1.82222 9.93475C1.59178 9.88866 1.36134 9.84257 1.12391 9.79509C1.12391 9.84117 1.12391 9.88726 1.12391 9.93475C1.07783 9.93475 1.03174 9.93475 0.984253 9.93475C0.984253 9.81953 0.984253 9.70431 0.984253 9.58559C1.14556 9.51646 1.30687 9.44733 1.47307 9.3761C1.41546 9.33866 1.35785 9.30121 1.29849 9.26263C1.12391 9.09678 1.12391 9.09678 1.10209 8.86983C1.10929 8.80646 1.11649 8.74309 1.12391 8.67779C1.17 8.67779 1.21609 8.67779 1.26358 8.67779C1.26358 8.72388 1.26358 8.76997 1.26358 8.81746C1.49402 8.8405 1.72446 8.86354 1.96188 8.88729C1.96188 8.79511 1.96188 8.70293 1.96188 8.60796C1.65079 8.53883 1.65079 8.53883 1.33341 8.4683C1.33341 8.51439 1.33341 8.56048 1.33341 8.60796C1.28732 8.60796 1.24123 8.60796 1.19375 8.60796C1.2153 8.4828 1.23719 8.3577 1.25921 8.23262C1.27136 8.16295 1.28352 8.09328 1.29604 8.0215C1.33341 7.83983 1.33341 7.83983 1.40324 7.70016ZM1.47307 7.90966C1.45002 8.00183 1.42698 8.09401 1.40324 8.18898C1.49541 8.21202 1.58759 8.23507 1.68256 8.25881C1.65952 8.14359 1.63647 8.02837 1.61273 7.90966C1.56664 7.90966 1.52055 7.90966 1.47307 7.90966ZM2.03171 7.97949C2.03171 8.02558 2.03171 8.07166 2.03171 8.11915C1.96258 8.11915 1.89345 8.11915 1.82222 8.11915C1.82222 8.18828 1.82222 8.25741 1.82222 8.32864C1.9144 8.32864 2.00657 8.32864 2.10154 8.32864C2.12459 8.23646 2.14763 8.14429 2.17138 8.04932C2.12529 8.02627 2.0792 8.00323 2.03171 7.97949ZM1.47307 9.09678C1.65969 9.26038 1.65969 9.26038 1.89205 9.30627C1.89205 9.26018 1.89205 9.21409 1.89205 9.16661C1.68466 9.13204 1.68466 9.13204 1.47307 9.09678Z" fill="#880404"/>
<path d="M11.8778 3.44049C11.947 3.46353 12.0161 3.48658 12.0873 3.51032C12.2027 3.51682 12.3184 3.51945 12.434 3.5196C12.5014 3.51969 12.5688 3.51978 12.6382 3.51987C12.7084 3.5196 12.7787 3.51933 12.8511 3.51905C12.9211 3.51932 12.9911 3.51959 13.0632 3.51987C13.1644 3.51973 13.1644 3.51973 13.2676 3.5196C13.3292 3.51952 13.3908 3.51944 13.4542 3.51936C13.6441 3.51462 13.6441 3.51462 13.9029 3.44049C13.9029 3.67093 13.9029 3.90137 13.9029 4.1388C13.8338 4.1388 13.7647 4.1388 13.6934 4.1388C13.679 4.09415 13.6646 4.0495 13.6498 4.0035C13.6023 3.93221 13.6023 3.93221 13.5538 3.85948C13.3464 3.82491 13.3464 3.82491 13.1348 3.78964C13.1348 4.31966 13.1348 4.84967 13.1348 5.39575C13.25 5.4188 13.3652 5.44184 13.4839 5.46558C13.4839 5.53471 13.4839 5.60385 13.4839 5.67507C13.0691 5.67507 12.6543 5.67507 12.227 5.67507C12.227 5.60594 12.227 5.53681 12.227 5.46558C12.3652 5.44254 12.5035 5.41949 12.646 5.39575C12.6229 4.88878 12.5999 4.38181 12.5761 3.85948C12.1827 3.81211 12.1827 3.81211 12.0437 3.96422C12.012 3.99879 11.9803 4.03335 11.9477 4.06897C11.8555 4.06897 11.7633 4.06897 11.6683 4.06897C11.7375 3.86157 11.8066 3.65417 11.8778 3.44049Z" fill="#880404"/>
<path d="M4.05684 3.44049C4.10293 3.44049 4.14902 3.44049 4.19651 3.44049C4.2029 3.48208 4.20929 3.52367 4.21587 3.56651C4.27842 3.75652 4.35823 3.81697 4.51511 3.93803C4.65068 4.04333 4.65068 4.04333 4.75515 4.1388C4.75515 4.18489 4.75515 4.23097 4.75515 4.27846C4.30579 4.31303 4.30579 4.31303 3.84735 4.34829C4.0871 4.57175 4.0871 4.57175 4.26634 4.55778C4.15819 4.80126 4.0118 4.98972 3.84299 5.19499C3.65151 5.42267 3.65151 5.42267 3.4982 5.67507C3.45211 5.67507 3.40602 5.67507 3.35854 5.67507C3.35134 5.72836 3.34414 5.78165 3.33672 5.83656C3.28339 6.045 3.2604 6.11897 3.07921 6.23372C2.80547 6.26856 2.65213 6.2723 2.41582 6.12461C2.31108 5.9544 2.31108 5.9544 2.31544 5.70999C2.37683 5.48082 2.43201 5.35842 2.5904 5.18626C2.68258 5.2093 2.77475 5.23235 2.86972 5.25609C2.86972 5.30218 2.86972 5.34827 2.86972 5.39575C2.73146 5.46488 2.73146 5.46488 2.5904 5.53541C2.5904 5.62759 2.5904 5.71977 2.5904 5.81474C2.77527 5.91673 2.86235 5.9544 3.07921 5.9544C3.10226 5.79309 3.1253 5.63178 3.14905 5.46558C3.19513 5.46558 3.24122 5.46558 3.28871 5.46558C3.2635 5.42183 3.2383 5.37809 3.21233 5.33301C3.17992 5.27594 3.14752 5.21887 3.11413 5.16007C3.08172 5.10336 3.04932 5.04665 3.01593 4.98822C2.93955 4.83711 2.93955 4.83711 2.93955 4.69744C3.29082 4.73413 3.63918 4.77467 3.98701 4.83711C3.92405 4.75483 3.85978 4.67354 3.79498 4.5927C3.75933 4.54733 3.72369 4.50196 3.68696 4.45522C3.56007 4.31716 3.56007 4.31716 3.28871 4.34829C3.28871 4.3022 3.28871 4.25611 3.28871 4.20863C3.49504 4.01339 3.65498 3.96953 3.93464 3.95113C4.02808 3.94424 4.02808 3.94424 4.1234 3.93722C4.17057 3.93461 4.21774 3.932 4.26634 3.92931C4.06784 3.81948 4.06784 3.81948 3.84735 3.78964C3.97829 3.51905 3.97829 3.51905 4.05684 3.44049ZM3.42837 5.11643C3.40532 5.16252 3.38228 5.2086 3.35854 5.25609C3.40463 5.30218 3.45071 5.34827 3.4982 5.39575C3.56733 5.32662 3.63646 5.25749 3.70769 5.18626C3.61551 5.16321 3.52334 5.14017 3.42837 5.11643Z" fill="#880404"/>
<path d="M9.15444 1.13607C9.1314 1.34347 9.10835 1.55087 9.08461 1.76455C8.91178 1.72998 8.91178 1.72998 8.73546 1.69472C8.73546 1.7869 8.73546 1.87907 8.73546 1.97404C8.87372 1.951 9.01199 1.92795 9.15444 1.90421C9.15444 1.83508 9.15444 1.76595 9.15444 1.69472C9.20053 1.69472 9.24662 1.69472 9.2941 1.69472C9.2941 1.80994 9.2941 1.92516 9.2941 2.04387C9.20544 2.06422 9.11677 2.08456 9.02542 2.10552C8.34113 2.26704 7.69574 2.45207 7.05052 2.73263C6.85003 2.81201 6.85003 2.81201 6.64054 2.81201C6.66358 2.74288 6.68662 2.67375 6.71037 2.60252C6.6292 2.34717 6.6292 2.34717 6.50087 2.1137C6.43174 2.09066 6.36261 2.06762 6.29138 2.04387C6.29138 1.99779 6.29138 1.9517 6.29138 1.90421C6.49431 1.81646 6.62629 1.76455 6.85003 1.76455C6.82698 1.83368 6.80394 1.90282 6.7802 1.97404C6.84458 2.13921 6.91406 2.30253 6.98969 2.46286C7.05882 2.43981 7.12795 2.41677 7.19918 2.39303C7.22223 2.32389 7.24527 2.25476 7.26901 2.18353C7.44184 2.25267 7.44184 2.25267 7.61817 2.3232C7.58678 2.23133 7.55463 2.13972 7.52215 2.04824C7.50433 1.9972 7.4865 1.94616 7.46814 1.89357C7.41896 1.7515 7.41896 1.7515 7.26901 1.69472C7.26901 1.62559 7.26901 1.55645 7.26901 1.48523C7.51098 1.45066 7.51098 1.45066 7.75783 1.4154C7.78087 1.66888 7.80392 1.92237 7.82766 2.18353C7.94288 2.16049 8.0581 2.13745 8.17681 2.1137C8.17681 2.04457 8.17681 1.97544 8.17681 1.90421C8.26899 1.92726 8.36116 1.9503 8.45613 1.97404C8.41005 1.78969 8.36396 1.60534 8.31647 1.4154C8.27038 1.4154 8.2243 1.4154 8.17681 1.4154C8.17681 1.34626 8.17681 1.27713 8.17681 1.2059C8.30034 1.18053 8.42403 1.15595 8.54779 1.13171C8.61665 1.11794 8.68551 1.10416 8.75646 1.08997C8.94495 1.06624 8.94495 1.06624 9.15444 1.13607ZM8.66563 1.27574C8.66563 1.36791 8.66563 1.46009 8.66563 1.55506C8.73476 1.55506 8.80389 1.55506 8.87512 1.55506C8.87512 1.48593 8.87512 1.41679 8.87512 1.34557C8.92121 1.32252 8.96729 1.29948 9.01478 1.27574C8.89956 1.27574 8.78434 1.27574 8.66563 1.27574Z" fill="#880404"/>
<path d="M18.5117 14.0548C18.6039 14.0778 18.6961 14.1009 18.791 14.1246C18.791 14.1937 18.791 14.2629 18.791 14.3341C18.8832 14.3571 18.9754 14.3802 19.0704 14.4039C19.0704 14.3578 19.0704 14.3117 19.0704 14.2643C19.2057 14.2861 19.2057 14.2861 19.3497 14.3341C19.4195 14.5436 19.4195 14.5436 19.3287 14.7588C19.2828 14.8461 19.2359 14.9329 19.1882 15.0193C19.1632 15.0652 19.1383 15.1112 19.1126 15.1585C18.777 15.7609 18.387 16.3731 17.8832 16.848C17.8789 16.8077 17.8746 16.7673 17.8702 16.7258C17.7889 16.5008 17.6619 16.4181 17.4643 16.2893C17.3721 16.2893 17.2799 16.2893 17.1849 16.2893C17.269 16.1152 17.3563 15.9624 17.4643 15.8005C17.5103 15.8005 17.5564 15.8005 17.6039 15.8005C17.6082 15.861 17.6082 15.861 17.6126 15.9227C17.7045 16.159 17.8808 16.2329 18.0927 16.3592C18.1158 16.1979 18.1388 16.0366 18.1626 15.8704C18.2317 15.8704 18.3008 15.8704 18.3721 15.8704C18.2957 15.8243 18.2194 15.7782 18.1407 15.7307C18.0763 15.6918 18.0763 15.6918 18.0106 15.6521C17.8753 15.5759 17.8753 15.5759 17.6738 15.591C17.6738 15.545 17.6738 15.4989 17.6738 15.4514C17.7198 15.4514 17.7659 15.4514 17.8134 15.4514C17.8595 15.3362 17.9056 15.2209 17.9531 15.1022C17.9992 15.1022 18.0453 15.1022 18.0927 15.1022C18.0927 15.1714 18.0927 15.2405 18.0927 15.3117C18.2161 15.4143 18.2161 15.4143 18.3721 15.4994C18.4239 15.5299 18.4758 15.5604 18.5292 15.5919C18.5695 15.6146 18.6098 15.6374 18.6514 15.6609C18.6514 15.4765 18.6514 15.2922 18.6514 15.1022C18.7205 15.1253 18.7896 15.1483 18.8609 15.1721C18.8839 15.126 18.907 15.0799 18.9307 15.0324C18.8289 15.0089 18.7271 14.9857 18.6252 14.9626C18.5685 14.9496 18.5118 14.9366 18.4533 14.9233C18.3051 14.8881 18.3051 14.8881 18.1626 14.8927C18.2541 14.597 18.3681 14.3289 18.5117 14.0548ZM18.5816 14.2643C18.5355 14.3564 18.4894 14.4486 18.4419 14.5436C18.5341 14.5666 18.6262 14.5897 18.7212 14.6134C18.7212 14.5443 18.7212 14.4751 18.7212 14.4039C18.7212 14.3578 18.7212 14.3117 18.7212 14.2643C18.6751 14.2643 18.629 14.2643 18.5816 14.2643ZM19.0704 14.4039C19.0704 14.45 19.0704 14.4961 19.0704 14.5436C19.0012 14.5436 18.9321 14.5436 18.8609 14.5436C18.8378 14.6127 18.8148 14.6818 18.791 14.7531C18.8832 14.7761 18.9754 14.7992 19.0704 14.8229C19.1165 14.7077 19.1625 14.5925 19.21 14.4737C19.1639 14.4507 19.1179 14.4277 19.0704 14.4039Z" fill="#880404"/>
<path d="M17.5341 4.27846C17.7436 4.28282 17.7436 4.28282 17.9531 4.34829C18.0491 4.52723 18.0491 4.52723 18.0927 4.69744C17.9545 4.76657 17.9545 4.76657 17.8134 4.8371C17.8134 4.74493 17.8134 4.65275 17.8134 4.55778C17.7673 4.53474 17.7212 4.51169 17.6738 4.48795C17.6882 4.57725 17.7026 4.66654 17.7174 4.75854C17.742 4.91075 17.742 4.91075 17.7436 5.0466C17.6975 5.09268 17.6514 5.13877 17.6039 5.18626C17.8805 5.14017 18.157 5.09408 18.4419 5.0466C18.4419 5.38044 18.3635 5.45232 18.1623 5.69717C18.1394 5.73596 18.1164 5.77476 18.0927 5.81473C18.1158 5.88387 18.1388 5.953 18.1626 6.02423C18.3721 5.93404 18.3721 5.93404 18.5816 5.81473C18.6046 5.7456 18.6277 5.67647 18.6514 5.60524C18.7205 5.62829 18.7897 5.65133 18.8609 5.67507C18.9438 5.88893 18.9438 5.88893 19.0005 6.09406C18.9372 6.10126 18.8738 6.10846 18.8085 6.11588C18.5802 6.16418 18.4742 6.22124 18.3022 6.37338C18.3253 6.41947 18.3483 6.46556 18.3721 6.51304C18.5135 6.55858 18.5135 6.55858 18.6514 6.58287C18.6284 6.652 18.6053 6.72114 18.5816 6.79236C18.4894 6.79236 18.3972 6.79236 18.3022 6.79236C18.2104 6.63392 18.1187 6.47533 18.0273 6.31664C18.0012 6.27177 17.9752 6.2269 17.9483 6.18066C17.8389 5.99049 17.7433 5.81396 17.6738 5.60524C17.7429 5.60524 17.812 5.60524 17.8833 5.60524C17.8833 5.55915 17.8833 5.51306 17.8833 5.46558C17.8141 5.44254 17.745 5.41949 17.6738 5.39575C17.6738 5.44184 17.6738 5.48793 17.6738 5.53541C17.6277 5.53541 17.5816 5.53541 17.5341 5.53541C17.4633 5.4196 17.3937 5.30311 17.3246 5.18626C17.2728 5.13873 17.2209 5.0912 17.1675 5.04223C17.1272 4.99758 17.0868 4.95294 17.0453 4.90693C17.0627 4.74982 17.0627 4.74982 17.1151 4.62761C17.1843 4.62761 17.2534 4.62761 17.3246 4.62761C17.3246 4.74283 17.3246 4.85805 17.3246 4.97676C17.3707 4.99981 17.4168 5.02285 17.4643 5.0466C17.4576 5.00285 17.451 4.9591 17.4441 4.91403C17.4363 4.85696 17.4286 4.79989 17.4206 4.74109C17.4125 4.68438 17.4044 4.62767 17.3961 4.56924C17.3955 4.51937 17.395 4.4695 17.3944 4.41812C17.4405 4.37203 17.4866 4.32594 17.5341 4.27846Z" fill="#880404"/>
<path d="M19.8386 8.81746C19.9077 8.81746 19.9768 8.81746 20.0481 8.81746C20.0481 8.97877 20.0481 9.14008 20.0481 9.30627C19.9789 9.28323 19.9098 9.26019 19.8386 9.23644C19.6783 9.24301 19.6783 9.24301 19.5112 9.26699C19.4548 9.27411 19.3984 9.28122 19.3402 9.28854C19.2758 9.29732 19.2758 9.29732 19.2101 9.30627C19.2331 9.39845 19.2562 9.49063 19.2799 9.5856C19.3833 9.57766 19.4866 9.56875 19.5898 9.55941C19.6473 9.55455 19.7048 9.54969 19.7641 9.54468C19.8355 9.53037 19.8355 9.53037 19.9084 9.51577C19.9315 9.46968 19.9545 9.42359 19.9782 9.3761C20.0243 9.3761 20.0704 9.3761 20.1179 9.3761C20.1317 9.60447 20.1445 9.83289 20.1572 10.0613C20.1611 10.1262 20.165 10.191 20.169 10.2579C20.1724 10.3202 20.1758 10.3825 20.1793 10.4468C20.1826 10.5042 20.1859 10.5616 20.1892 10.6207C20.1877 10.7727 20.1877 10.7727 20.1179 10.9822C20.0689 10.9606 20.02 10.939 19.9695 10.9167C19.7625 10.8402 19.5678 10.8031 19.3498 10.7727C19.3498 10.8188 19.3498 10.8649 19.3498 10.9124C19.2806 10.9124 19.2115 10.9124 19.1403 10.9124C19.1419 10.8715 19.1435 10.8306 19.1452 10.7885C19.1586 10.1481 19.0788 9.52165 19.0006 8.88729C19.0788 8.90444 19.0788 8.90444 19.1585 8.92193C19.3877 8.96411 19.606 8.96168 19.8386 8.95712C19.8386 8.91103 19.8386 8.86494 19.8386 8.81746ZM19.7687 9.79509C19.8379 9.89879 19.8379 9.89879 19.9084 10.0046C19.9545 9.98154 20.0006 9.95849 20.0481 9.93475C20.025 9.88866 20.002 9.84257 19.9782 9.79509C19.9091 9.79509 19.84 9.79509 19.7687 9.79509ZM19.2799 9.86492C19.303 9.93405 19.326 10.0032 19.3498 10.0744C19.3959 10.0053 19.4419 9.93615 19.4894 9.86492C19.4203 9.86492 19.3512 9.86492 19.2799 9.86492ZM19.6989 10.0046C19.5796 10.1179 19.4633 10.2345 19.3498 10.3537C19.3498 10.3998 19.3498 10.4459 19.3498 10.4934C19.5572 10.5164 19.7646 10.5395 19.9782 10.5632C20.0013 10.4941 20.0243 10.425 20.0481 10.3537C19.9329 10.2385 19.8176 10.1233 19.6989 10.0046Z" fill="#880404"/>
<path d="M15.2298 2.18355C15.2715 2.20515 15.3133 2.22676 15.3564 2.24901C15.5154 2.33034 15.5154 2.33034 15.7186 2.39304C15.7186 2.43913 15.7186 2.48522 15.7186 2.5327C15.6264 2.5327 15.5342 2.5327 15.4393 2.5327C15.4393 2.60183 15.4393 2.67097 15.4393 2.74219C15.5315 2.78828 15.6236 2.83437 15.7186 2.88186C15.7416 2.76663 15.7647 2.65141 15.7884 2.5327C16.1525 2.66835 16.3581 2.80183 16.6264 3.09135C16.7415 3.18601 16.8575 3.27963 16.9755 3.37067C16.9525 3.46285 16.9295 3.55502 16.9057 3.64999C16.8596 3.64999 16.8135 3.64999 16.7661 3.64999C16.6526 3.47542 16.6526 3.47542 16.5566 3.30084C16.5105 3.34693 16.4644 3.39302 16.4169 3.4405C16.5091 3.46354 16.6013 3.48659 16.6962 3.51033C16.6271 3.68316 16.6271 3.68316 16.5566 3.85949C16.4874 3.85949 16.4183 3.85949 16.3471 3.85949C16.3471 3.79035 16.3471 3.72122 16.3471 3.64999C16.2779 3.67304 16.2088 3.69608 16.1376 3.71982C16.3023 3.88459 16.4015 3.8938 16.6264 3.92932C16.5803 4.02149 16.5342 4.11367 16.4867 4.20864C16.2453 4.10108 16.0578 3.95693 15.8539 3.78965C15.672 3.64088 15.4953 3.5011 15.2996 3.37067C15.2996 3.32458 15.2996 3.27849 15.2996 3.23101C15.3687 3.23101 15.4379 3.23101 15.5091 3.23101C15.5091 3.16188 15.5091 3.09274 15.5091 3.02152C15.4169 2.97543 15.3248 2.92934 15.2298 2.88186C15.2298 3.02012 15.2298 3.15838 15.2298 3.30084C14.9878 3.16257 14.9878 3.16257 14.741 3.02152C14.741 2.97543 14.741 2.92934 14.741 2.88186C14.7827 2.86745 14.8245 2.85305 14.8675 2.83821C15.0788 2.7054 15.1353 2.54995 15.2298 2.32321C15.2298 2.27712 15.2298 2.23103 15.2298 2.18355ZM16.0678 2.88186C15.9701 2.98291 15.9701 2.98291 15.8801 3.11317C15.8481 3.15611 15.8162 3.19904 15.7832 3.24328C15.7619 3.28532 15.7406 3.32736 15.7186 3.37067C15.7416 3.4398 15.7647 3.50893 15.7884 3.58016C16.0215 3.48373 16.1532 3.38323 16.2772 3.16118C16.2621 3.00699 16.2621 3.00699 16.2074 2.88186C16.1613 2.88186 16.1152 2.88186 16.0678 2.88186Z" fill="#880404"/>
<path d="M15.0203 17.9653C15.4092 18.0431 15.4092 18.0431 15.6226 18.2141C15.8153 18.3697 15.8153 18.3697 16.0677 18.3843C16.0677 18.4534 16.0677 18.5225 16.0677 18.5938C15.9064 18.6629 15.7451 18.732 15.5789 18.8033C15.5789 18.7341 15.5789 18.665 15.5789 18.5938C15.5098 18.6168 15.4407 18.6399 15.3694 18.6636C15.4155 18.6866 15.4616 18.7097 15.5091 18.7334C15.4393 18.9429 15.4393 18.9429 15.2003 19.0807C15.0999 19.13 14.9992 19.1786 14.8981 19.2266C14.848 19.2511 14.798 19.2757 14.7464 19.3009C14.6056 19.3694 14.4641 19.4359 14.322 19.5016C14.2568 19.5317 14.1916 19.5619 14.1245 19.5929C13.9728 19.6412 13.9728 19.6412 13.7633 19.5714C13.7864 19.5023 13.8094 19.4331 13.8332 19.3619C13.7914 19.1977 13.7453 19.0344 13.6935 18.8731C13.6244 18.8731 13.5552 18.8731 13.484 18.8731C13.484 18.827 13.484 18.7809 13.484 18.7334C13.6684 18.6643 13.8527 18.5952 14.0427 18.5239C14.0196 18.6161 13.9966 18.7083 13.9728 18.8033C14.0159 18.921 14.0624 19.0375 14.1125 19.1524C14.1125 19.2215 14.1125 19.2907 14.1125 19.3619C14.2521 19.3067 14.2521 19.3067 14.3918 19.2222C14.4149 19.1531 14.4379 19.084 14.4616 19.0127C14.5077 19.0127 14.5538 19.0127 14.6013 19.0127C14.6013 19.0588 14.6013 19.1049 14.6013 19.1524C14.6474 19.1524 14.6935 19.1524 14.741 19.1524C14.6978 19.0605 14.6541 18.9689 14.61 18.8775C14.5736 18.8009 14.5736 18.8009 14.5364 18.7228C14.4708 18.5824 14.4708 18.5824 14.322 18.5239C14.345 18.4548 14.3681 18.3857 14.3918 18.3144C14.6057 18.2315 14.6057 18.2315 14.8108 18.1748C14.7949 18.2137 14.7791 18.2526 14.7628 18.2926C14.7323 18.5184 14.8283 18.6176 14.9505 18.8033C14.9505 18.8493 14.9505 18.8954 14.9505 18.9429C15.0196 18.9199 15.0887 18.8968 15.1599 18.8731C15.1139 18.5735 15.0678 18.2739 15.0203 17.9653Z" fill="#880404"/>
<path d="M9.08465 19.1524C9.15378 19.1524 9.22291 19.1524 9.29414 19.1524C9.30683 19.2121 9.31952 19.2718 9.3326 19.3333C9.35893 19.449 9.35893 19.449 9.38579 19.567C9.41131 19.6825 9.41131 19.6825 9.43735 19.8002C9.45922 19.863 9.48109 19.9257 9.50363 19.9904C9.57276 20.0134 9.6419 20.0365 9.71312 20.0602C9.71312 19.8298 9.71312 19.5993 9.71312 19.3619C9.66703 19.3619 9.62095 19.3619 9.57346 19.3619C9.57346 19.3158 9.57346 19.2697 9.57346 19.2222C9.71749 19.1917 9.71749 19.1917 9.92262 19.2222C10.1023 19.3703 10.2573 19.5369 10.4114 19.7111C10.3884 19.5497 10.3653 19.3884 10.3416 19.2222C10.4799 19.2222 10.6181 19.2222 10.7606 19.2222C10.7491 19.2582 10.7375 19.2942 10.7257 19.3313C10.6826 19.5125 10.6826 19.5125 10.6908 19.746C10.6908 19.9426 10.68 20.0852 10.6209 20.2697C10.3967 20.1732 10.2683 20.0655 10.1146 19.8769C10.0601 19.8107 10.0601 19.8107 10.0044 19.7432C9.97744 19.7096 9.95044 19.6759 9.92262 19.6412C9.89957 19.7795 9.87653 19.9177 9.85278 20.0602C9.89887 20.0602 9.94496 20.0602 9.99245 20.0602C9.99245 20.1063 9.99245 20.1524 9.99245 20.1999C9.67708 20.2052 9.39254 20.207 9.08465 20.13C9.10769 20.0148 9.13074 19.8996 9.15448 19.7809C9.08535 19.827 9.01621 19.8731 8.94499 19.9205C8.94499 19.9666 8.94499 20.0127 8.94499 20.0602C8.80672 20.0602 8.66846 20.0602 8.526 20.0602C8.526 20.0141 8.526 19.968 8.526 19.9205C8.58649 19.8622 8.58649 19.8622 8.6482 19.8027C8.84318 19.6023 8.95228 19.3982 9.08465 19.1524Z" fill="#880404"/>
<path d="M2.66023 14.4737C2.91635 14.5591 2.93179 14.621 3.05303 14.8534C3.08273 14.9095 3.11244 14.9656 3.14304 15.0234C3.19197 15.1193 3.24055 15.2154 3.2887 15.3117C3.24406 15.3203 3.19941 15.329 3.15341 15.3379C3.10588 15.3523 3.05835 15.3667 3.00938 15.3815C2.98634 15.4276 2.96329 15.4737 2.93955 15.5212C3.03173 15.5442 3.1239 15.5673 3.21887 15.591C3.21887 15.5219 3.21887 15.4528 3.21887 15.3815C3.44951 15.4584 3.48319 15.4995 3.61604 15.6914C3.64655 15.7345 3.67707 15.7776 3.70851 15.8221C3.77752 15.9402 3.77752 15.9402 3.77752 16.0798C3.6803 16.1252 3.6803 16.1252 3.58112 16.1715C3.39566 16.2697 3.27636 16.3361 3.14904 16.4988C3.14904 16.5449 3.14904 16.591 3.14904 16.6385C2.91081 16.5591 2.86144 16.4958 2.73006 16.2893C2.73006 16.2433 2.73006 16.1972 2.73006 16.1497C2.80567 16.141 2.80567 16.141 2.88281 16.1322C3.12476 16.0818 3.12476 16.0818 3.42837 15.8005C3.10575 15.8236 2.78313 15.8466 2.45074 15.8704C2.45074 15.6167 2.51739 15.5389 2.66023 15.3335C2.71856 15.2489 2.71856 15.2489 2.77807 15.1625C2.80831 15.1196 2.83856 15.0766 2.86972 15.0324C2.82363 15.0093 2.77754 14.9863 2.73006 14.9626C2.43229 15.0761 2.43229 15.0761 2.24124 15.3117C2.19516 15.3117 2.14907 15.3117 2.10158 15.3117C1.89209 15.0055 1.89209 15.0055 1.89209 14.8229C1.96698 14.8128 2.04188 14.8027 2.11904 14.7923C2.30525 14.7644 2.47965 14.7338 2.66023 14.6832C2.66023 14.6141 2.66023 14.545 2.66023 14.4737Z" fill="#880404"/>
<path d="M13.3443 18.8731C13.5429 18.9751 13.607 19.0406 13.6891 19.2484C13.6948 19.4892 13.6314 19.5928 13.4839 19.7809C13.3176 19.9029 13.2364 19.9221 13.03 19.9118C12.8169 19.8372 12.7159 19.7474 12.5761 19.5714C12.5761 19.5023 12.5761 19.4331 12.5761 19.3619C12.484 19.3388 12.3918 19.3158 12.2968 19.2921C12.2968 19.4995 12.2968 19.7069 12.2968 19.9205C12.366 19.9205 12.4351 19.9205 12.5063 19.9205C12.5063 19.9666 12.5063 20.0127 12.5063 20.0602C12.2989 20.0832 12.0915 20.1063 11.8778 20.13C11.8778 19.9904 11.8778 19.9904 12.0175 19.8507C11.9949 19.5995 11.9949 19.5995 11.9477 19.3619C11.8785 19.3619 11.8094 19.3619 11.7382 19.3619C11.7382 19.408 11.7382 19.4541 11.7382 19.5016C11.6921 19.5016 11.646 19.5016 11.5985 19.5016C11.5985 19.3863 11.5985 19.2711 11.5985 19.1524C11.7585 19.129 11.9186 19.1058 12.0786 19.0826C12.2123 19.0631 12.2123 19.0631 12.3486 19.0433C12.5761 19.0127 12.5761 19.0127 12.7158 19.0127C12.9594 18.8503 13.0578 18.8438 13.3443 18.8731ZM12.9951 19.0127C12.949 19.0588 12.9029 19.1049 12.8555 19.1524C12.8801 19.4669 12.8801 19.4669 13.065 19.711C13.2111 19.7051 13.2111 19.7051 13.3443 19.6412C13.4334 19.4374 13.4334 19.4374 13.3661 19.2484C13.2906 19.0735 13.2906 19.0735 13.1348 19.0171C13.0887 19.0157 13.0426 19.0142 12.9951 19.0127Z" fill="#880404"/>
<path d="M2.03167 6.09406C2.07776 6.09406 2.12384 6.09406 2.17133 6.09406C2.21454 6.14158 2.21454 6.14158 2.25862 6.19007C2.44752 6.36548 2.6819 6.44321 2.93947 6.44321C2.89389 6.58319 2.84715 6.7228 2.79981 6.86219C2.7782 6.927 2.7566 6.99182 2.73434 7.05859C2.69761 7.13421 2.69761 7.13421 2.66014 7.21135C2.59101 7.23439 2.52188 7.25743 2.45065 7.28118C2.49674 7.28118 2.54283 7.28118 2.59031 7.28118C2.54423 7.44249 2.49814 7.6038 2.45065 7.76999C2.24116 7.70016 2.24116 7.70016 2.0404 7.59105C1.82513 7.49203 1.70523 7.47018 1.47302 7.49067C1.5045 7.38867 1.53663 7.28687 1.56904 7.18516C1.58686 7.12845 1.60469 7.07174 1.62305 7.01331C1.68251 6.86219 1.68251 6.86219 1.82218 6.72253C2.00548 6.74872 2.00548 6.74872 2.17133 6.79236C2.17133 6.83845 2.17133 6.88454 2.17133 6.93202C2.30959 6.90898 2.44786 6.88594 2.59031 6.86219C2.36662 6.66431 2.18663 6.61635 1.89201 6.58287C1.95311 6.25117 1.95311 6.25117 2.03167 6.09406ZM1.82218 7.00185C1.79913 7.04794 1.77609 7.09403 1.75235 7.14152C1.84452 7.16456 1.9367 7.1876 2.03167 7.21135C2.00862 7.14221 1.98558 7.07308 1.96184 7.00185C1.91575 7.00185 1.86966 7.00185 1.82218 7.00185Z" fill="#880404"/>
<path d="M10.0361 16.2937C10.2718 16.3592 10.2718 16.3592 10.4114 16.5687C10.3852 16.7476 10.3852 16.7476 10.3416 16.9178C10.331 17.067 10.331 17.067 10.4245 17.219C10.4813 17.4066 10.4813 17.4066 10.394 17.5987C10.2718 17.7558 10.2718 17.7558 10.1321 17.8256C9.91761 17.8439 9.76903 17.8563 9.57782 17.7514C9.46055 17.5376 9.52708 17.3592 9.57346 17.1273C9.57933 16.9756 9.57933 16.9756 9.52108 16.7869C9.50363 16.5687 9.50363 16.5687 9.60837 16.3985C9.78295 16.2893 9.78295 16.2893 10.0361 16.2937ZM9.85278 16.4988C9.85278 16.591 9.85278 16.6832 9.85278 16.7782C9.94496 16.7782 10.0371 16.7782 10.1321 16.7782C10.1091 16.686 10.086 16.5938 10.0623 16.4988C9.99314 16.4988 9.92401 16.4988 9.85278 16.4988ZM9.85278 17.1971C9.82973 17.3124 9.80669 17.4276 9.78295 17.5463C9.95578 17.5809 9.95578 17.5809 10.1321 17.6161C10.1091 17.5009 10.086 17.3857 10.0623 17.267C9.99314 17.2439 9.92401 17.2209 9.85278 17.1971Z" fill="#880404"/>
<path d="M11.0836 16.2937C11.3192 16.3592 11.3192 16.3592 11.4589 16.5687C11.4327 16.7476 11.4327 16.7476 11.3891 16.9178C11.3891 16.9639 11.3891 17.01 11.3891 17.0575C11.4121 17.0805 11.4352 17.1036 11.4589 17.1273C11.4807 17.363 11.4807 17.363 11.4589 17.6161C11.303 17.8021 11.2061 17.8224 10.9657 17.8518C10.7606 17.8256 10.7606 17.8256 10.6253 17.7514C10.508 17.5376 10.5746 17.3592 10.6209 17.1273C10.6268 16.9756 10.6268 16.9756 10.5686 16.7869C10.5511 16.5687 10.5511 16.5687 10.6559 16.3985C10.8304 16.2893 10.8304 16.2893 11.0836 16.2937ZM10.9003 16.4988C10.9003 16.591 10.9003 16.6832 10.9003 16.7782C10.9924 16.7782 11.0846 16.7782 11.1796 16.7782C11.1565 16.686 11.1335 16.5938 11.1098 16.4988C11.0406 16.4988 10.9715 16.4988 10.9003 16.4988ZM10.9003 17.1971C10.8772 17.3124 10.8542 17.4276 10.8304 17.5463C11.0033 17.5809 11.0033 17.5809 11.1796 17.6161C11.1565 17.5009 11.1335 17.3857 11.1098 17.267C11.0406 17.2439 10.9715 17.2209 10.9003 17.1971Z" fill="#880404"/>
<path d="M12.5063 16.2893C12.5063 16.3354 12.5063 16.3815 12.5063 16.429C12.3667 16.5221 12.227 16.6152 12.0874 16.7083C12.0874 16.7544 12.0874 16.8005 12.0874 16.848C12.1421 16.8667 12.1968 16.8854 12.2532 16.9047C12.4365 16.9876 12.4365 16.9876 12.5762 17.1971C12.5627 17.412 12.5393 17.5641 12.4234 17.7471C12.231 17.8665 12.0995 17.8573 11.8779 17.8256C11.6544 17.6746 11.6055 17.5712 11.5331 17.3106C11.5268 16.9473 11.6438 16.7476 11.8779 16.477C12.0922 16.2962 12.225 16.2893 12.5063 16.2893ZM11.9477 17.0575C11.9477 17.2418 11.9477 17.4262 11.9477 17.6161C12.0168 17.6161 12.086 17.6161 12.1572 17.6161C12.2519 17.5375 12.2519 17.5375 12.2314 17.3324C12.2299 17.2647 12.2285 17.197 12.227 17.1273C12.1348 17.1043 12.0427 17.0812 11.9477 17.0575Z" fill="#880404"/>
<path d="M5.31376 17.6161C5.4652 17.6515 5.59306 17.686 5.73274 17.7558C5.77448 17.8976 5.77448 17.8976 5.80694 18.07C5.8346 18.2822 5.8346 18.2822 5.94224 18.4541C5.96528 18.3158 5.98832 18.1776 6.01207 18.0351C6.15033 18.0812 6.2886 18.1273 6.43105 18.1748C6.43105 18.2209 6.43105 18.267 6.43105 18.3144C6.36192 18.3375 6.29279 18.3605 6.22156 18.3843C6.11985 18.5301 6.11985 18.5301 6.03389 18.7029C5.98812 18.7894 5.98812 18.7894 5.94142 18.8777C5.91864 18.9223 5.89587 18.9668 5.87241 19.0127C5.80327 18.9897 5.73414 18.9667 5.66291 18.9429C5.59663 18.7681 5.59663 18.7681 5.54507 18.5545C5.52752 18.4838 5.50997 18.4132 5.49188 18.3404C5.47919 18.2857 5.4665 18.2311 5.45342 18.1748C5.34803 18.4112 5.34803 18.4112 5.31376 18.6636C5.14355 18.6069 5.14355 18.6069 4.96461 18.5239C4.94156 18.4548 4.91852 18.3857 4.89478 18.3144C4.96391 18.3144 5.03304 18.3144 5.10427 18.3144C5.20688 18.191 5.20688 18.191 5.29194 18.0351C5.32245 17.9833 5.35297 17.9314 5.38441 17.878C5.40718 17.8377 5.42996 17.7973 5.45342 17.7558C5.40733 17.7558 5.36124 17.7558 5.31376 17.7558C5.31376 17.7097 5.31376 17.6636 5.31376 17.6161Z" fill="#880404"/>
<path d="M9.2243 16.2893C9.2243 16.7272 9.2243 17.165 9.2243 17.6161C9.29343 17.6161 9.36257 17.6161 9.43379 17.6161C9.43379 17.6853 9.43379 17.7544 9.43379 17.8256C9.18031 17.8256 8.92682 17.8256 8.66566 17.8256C8.66566 17.7565 8.66566 17.6873 8.66566 17.6161C8.73479 17.6161 8.80392 17.6161 8.87515 17.6161C8.8521 17.3165 8.82906 17.017 8.80532 16.7083C8.73618 16.7083 8.66705 16.7083 8.59583 16.7083C8.59583 16.6622 8.59583 16.6161 8.59583 16.5687C8.82651 16.3508 8.89778 16.2893 9.2243 16.2893Z" fill="#880404"/>
<path d="M19.5593 7.49068C19.6684 7.5736 19.6684 7.5736 19.7688 7.70017C19.7598 8.02278 19.5828 8.26964 19.4196 8.53814C19.5348 8.51509 19.6501 8.49205 19.7688 8.46831C19.7688 8.42222 19.7688 8.37613 19.7688 8.32865C19.8149 8.32865 19.861 8.32865 19.9084 8.32865C19.9315 8.46691 19.9545 8.60518 19.9783 8.74763C19.9243 8.72603 19.9243 8.72603 19.8692 8.70399C19.6847 8.66347 19.6847 8.66347 19.4545 8.74763C19.2101 8.81746 19.2101 8.81746 18.9308 8.74763C19.0691 8.49414 19.2073 8.24066 19.3498 7.97949C19.2346 8.02558 19.1193 8.07167 19.0006 8.11915C18.9315 8.1422 18.8624 8.16524 18.7911 8.18898C18.7681 8.05072 18.7451 7.91245 18.7213 7.77C18.7573 7.7844 18.7933 7.7988 18.8304 7.81364C19.0784 7.85179 19.2574 7.78773 19.4895 7.70017C19.5125 7.63104 19.5355 7.5619 19.5593 7.49068Z" fill="#880404"/>
<path d="M2.17133 13.4961C2.24046 13.4961 2.30959 13.4961 2.38082 13.4961C2.56532 13.8113 2.63771 14.0383 2.59031 14.4039C2.47684 14.5741 2.47684 14.5741 2.31099 14.6832C2.1015 14.7225 2.1015 14.7225 1.89201 14.6832C1.6806 14.4777 1.56147 14.265 1.47302 13.9849C1.47302 13.9158 1.47302 13.8467 1.47302 13.7754C1.54215 13.7985 1.61129 13.8215 1.68251 13.8453C1.84768 13.7809 2.011 13.7114 2.17133 13.6358C2.17133 13.5897 2.17133 13.5436 2.17133 13.4961ZM1.82218 14.1246C1.79913 14.1707 1.77609 14.2168 1.75235 14.2642C1.77539 14.3103 1.79843 14.3564 1.82218 14.4039C2.11474 14.4281 2.11474 14.4281 2.37646 14.3166C2.46737 14.196 2.46737 14.196 2.42883 14.0417C2.41299 13.9999 2.39714 13.9581 2.38082 13.9151C2.16272 13.9151 2.01004 14.0207 1.82218 14.1246Z" fill="#880404"/>
<path d="M10.4812 0.92659C10.7808 0.949634 11.0804 0.972678 11.389 0.996421C11.389 1.0886 11.389 1.18077 11.389 1.27574C11.3429 1.27574 11.2968 1.27574 11.2493 1.27574C11.2724 1.39096 11.2954 1.50618 11.3192 1.6249C11.3653 1.6249 11.4114 1.6249 11.4588 1.6249C11.4358 1.74012 11.4127 1.85534 11.389 1.97405C11.0664 1.97405 10.7438 1.97405 10.4114 1.97405C10.4114 1.76456 10.4114 1.76456 10.551 1.6249C10.579 1.4627 10.6027 1.29967 10.6209 1.13608C10.5748 1.13608 10.5287 1.13608 10.4812 1.13608C10.4812 1.06695 10.4812 0.997817 10.4812 0.92659ZM10.9002 1.13608C10.9002 1.20521 10.9002 1.27435 10.9002 1.34557C11.0154 1.32253 11.1306 1.29949 11.2493 1.27574C11.2493 1.22966 11.2493 1.18357 11.2493 1.13608C11.1341 1.13608 11.0189 1.13608 10.9002 1.13608ZM10.8304 1.55507C10.8304 1.6242 10.8304 1.69333 10.8304 1.76456C10.9625 1.81215 10.9625 1.81215 11.1097 1.83439C11.1558 1.7883 11.2019 1.74221 11.2493 1.69473C11.2033 1.69473 11.1572 1.69473 11.1097 1.69473C11.1097 1.64864 11.1097 1.60255 11.1097 1.55507C11.0175 1.55507 10.9253 1.55507 10.8304 1.55507Z" fill="#880404"/>
<path d="M19.1402 12.1693C19.2798 12.1911 19.2798 12.1911 19.4195 12.2392C19.4425 12.2852 19.4656 12.3313 19.4893 12.3788C19.5584 12.4019 19.6276 12.4249 19.6988 12.4486C19.7219 12.3795 19.7449 12.3104 19.7686 12.2392C19.8608 12.2852 19.953 12.3313 20.048 12.3788C20.0098 12.697 19.9591 12.9887 19.8385 13.2866C19.7924 13.3097 19.7463 13.3327 19.6988 13.3564C19.6758 13.2873 19.6527 13.2182 19.629 13.147C19.3755 13.1239 19.122 13.1009 18.8608 13.0771C18.894 12.9388 18.9275 12.8007 18.9612 12.6625C18.9799 12.5855 18.9985 12.5086 19.0177 12.4293C19.0703 12.2392 19.0703 12.2392 19.1402 12.1693ZM19.21 12.3788C19.1869 12.494 19.1639 12.6093 19.1402 12.728C19.2323 12.751 19.3245 12.7741 19.4195 12.7978C19.3964 12.6595 19.3734 12.5213 19.3497 12.3788C19.3036 12.3788 19.2575 12.3788 19.21 12.3788ZM19.7686 12.4486C19.7686 12.4947 19.7686 12.5408 19.7686 12.5883C19.6995 12.5883 19.6304 12.5883 19.5591 12.5883C19.5822 12.6805 19.6052 12.7727 19.629 12.8676C19.6981 12.8676 19.7672 12.8676 19.8385 12.8676C19.8385 12.7294 19.8385 12.5911 19.8385 12.4486C19.8154 12.4486 19.7924 12.4486 19.7686 12.4486Z" fill="#880404"/>
<path d="M12.6459 1.13608C12.8511 1.28011 12.8511 1.28011 12.9951 1.48524C13.0038 1.73837 13.0038 1.73837 12.9253 1.97405C12.7272 2.15519 12.626 2.18554 12.3579 2.17481C12.1507 2.11177 12.0679 2.08146 11.9476 1.90422C11.8865 1.73837 11.8865 1.73837 11.8778 1.55507C12.0612 1.17074 12.2212 1.08611 12.6459 1.13608ZM12.3666 1.27574C12.1982 1.41236 12.1982 1.41236 12.2182 1.66854C12.2211 1.74632 12.224 1.82409 12.227 1.90422C12.3998 1.93879 12.3998 1.93879 12.5761 1.97405C12.6222 1.81274 12.6683 1.65143 12.7158 1.48524C12.6198 1.37758 12.6198 1.37758 12.5063 1.27574C12.4602 1.27574 12.4141 1.27574 12.3666 1.27574Z" fill="#880404"/>
<path d="M19.2101 6.65271C19.4144 6.79628 19.4787 6.9025 19.5636 7.13716C19.5593 7.35102 19.5593 7.35102 19.4196 7.55614C19.2101 7.70017 19.2101 7.70017 18.957 7.70453C18.7213 7.63034 18.7213 7.63034 18.586 7.5125C18.4882 7.29962 18.478 7.16392 18.5118 6.93203C18.706 6.64822 18.874 6.5967 19.2101 6.65271ZM18.6515 7.14152C18.6745 7.2337 18.6975 7.32588 18.7213 7.42085C19.0457 7.38699 19.0457 7.38699 19.3498 7.28118C19.3267 7.16596 19.3037 7.05074 19.2799 6.93203C18.9939 6.9082 18.866 6.95084 18.6515 7.14152Z" fill="#880404"/>
<path d="M4.89484 17.1273C5.12971 17.3009 5.23007 17.4006 5.28327 17.6903C5.24399 17.8954 5.24399 17.8954 5.13488 18.0657C4.96467 18.1748 4.96467 18.1748 4.72026 18.1748C4.45478 18.0989 4.34394 18.059 4.19653 17.8256C4.20082 17.5815 4.22079 17.4112 4.34929 17.2015C4.54607 17.0862 4.67097 17.0915 4.89484 17.1273ZM4.68535 17.3368C4.52692 17.5057 4.52692 17.5057 4.40603 17.686C4.45211 17.7781 4.4982 17.8703 4.54569 17.9653C4.70769 17.9373 4.81546 17.902 4.95158 17.8082C5.05503 17.6843 5.05503 17.6843 5.01268 17.4983C4.98892 17.4184 4.98892 17.4184 4.96467 17.3368C4.87249 17.3368 4.78032 17.3368 4.68535 17.3368Z" fill="#880404"/>
<path d="M17.3944 16.429C17.6078 16.575 17.6643 16.659 17.713 16.9135C17.6593 17.2056 17.5663 17.3067 17.3246 17.4765C17.0562 17.4811 16.9062 17.4638 16.6961 17.2932C16.5935 17.0494 16.6274 16.8905 16.6961 16.6385C16.8996 16.4048 17.0944 16.3853 17.3944 16.429ZM16.9056 16.6385C16.8509 16.7636 16.8509 16.7636 16.8358 16.9178C16.9329 17.0968 16.9986 17.1788 17.1893 17.2539C17.3302 17.2796 17.3302 17.2796 17.4642 17.1971C17.4876 17.0314 17.4876 17.0314 17.4642 16.848C17.3474 16.7138 17.3474 16.7138 17.1849 16.6385C17.0927 16.6385 17.0006 16.6385 16.9056 16.6385Z" fill="#880404"/>
<path d="M6.36123 2.18354C6.49652 2.29701 6.49652 2.29701 6.57072 2.46286C6.56612 2.7249 6.55787 2.88625 6.38305 3.08697C6.17017 3.18478 6.03447 3.19499 5.80258 3.16117C5.63673 3.04769 5.63673 3.04769 5.52326 2.88185C5.48834 2.67235 5.48834 2.67235 5.52326 2.46286C5.78699 2.1376 5.95575 2.07596 6.36123 2.18354ZM5.73275 2.39303C5.74029 2.59584 5.74029 2.59584 5.80258 2.81201C5.96459 2.95352 5.96459 2.95352 6.15173 3.02151C6.19782 2.99846 6.24391 2.97542 6.29139 2.95168C6.26838 2.60145 6.26838 2.60145 6.0819 2.3232C5.87762 2.30759 5.87762 2.30759 5.73275 2.39303Z" fill="#880404"/>
<path d="M9.97055 0.983321C10.0552 0.986156 10.0552 0.986156 10.1416 0.989049C10.1845 0.991479 10.2275 0.99391 10.2717 0.996414C10.2947 1.08859 10.3178 1.18077 10.3415 1.27574C10.1572 1.25269 9.97282 1.22965 9.78288 1.20591C9.78288 1.36721 9.78288 1.52852 9.78288 1.69472C9.87505 1.74081 9.96723 1.7869 10.0622 1.83438C10.0622 1.76525 10.0622 1.69612 10.0622 1.62489C10.0161 1.62489 9.97002 1.62489 9.92254 1.62489C9.92254 1.55576 9.92254 1.48663 9.92254 1.4154C10.0838 1.4154 10.2452 1.4154 10.4114 1.4154C10.3935 1.57902 10.37 1.7421 10.3415 1.90421C10.1169 2.01651 9.88612 2.0162 9.64321 1.97404C9.46427 1.82565 9.46427 1.82565 9.36389 1.62489C9.36834 1.40259 9.38675 1.26781 9.5221 1.08943C9.6804 0.967852 9.77344 0.974751 9.97055 0.983321Z" fill="#880404"/>
<path d="M7.19917 18.5239C7.40866 18.6723 7.40866 18.6723 7.54832 18.8731C7.54832 19.0989 7.51562 19.2302 7.39993 19.423C7.18406 19.5525 7.02568 19.5354 6.78018 19.5016C6.57069 19.3532 6.57069 19.3532 6.43103 19.1524C6.43103 18.9266 6.46373 18.7953 6.57942 18.6025C6.79529 18.473 6.95367 18.4901 7.19917 18.5239ZM6.91985 18.6636C6.75967 18.9039 6.71035 18.9934 6.71035 19.2921C6.88318 19.3266 6.88318 19.3266 7.05951 19.3619C7.23187 19.1284 7.23187 19.1284 7.24718 18.8513C7.22341 18.7929 7.22341 18.7929 7.19917 18.7334C7.10699 18.7104 7.01482 18.6873 6.91985 18.6636Z" fill="#880404"/>
<path d="M18.9307 13.147C19.0229 13.17 19.1151 13.193 19.21 13.2168C19.21 13.2629 19.21 13.309 19.21 13.3564C19.0718 13.4256 19.0718 13.4256 18.9307 13.4961C18.9538 13.5883 18.9768 13.6805 19.0005 13.7754C19.2079 13.81 19.2079 13.81 19.4195 13.8453C19.4426 13.7761 19.4656 13.707 19.4894 13.6358C19.3972 13.6358 19.305 13.6358 19.21 13.6358C19.2561 13.4975 19.3022 13.3592 19.3497 13.2168C19.3958 13.2168 19.4419 13.2168 19.4894 13.2168C19.4894 13.2629 19.4894 13.309 19.4894 13.3564C19.5815 13.3795 19.6737 13.4025 19.7687 13.4263C19.7498 13.6963 19.7097 13.8307 19.5461 14.0504C19.3497 14.1944 19.3497 14.1944 19.1315 14.1944C18.8248 14.0878 18.8248 14.0878 18.7212 13.9151C18.692 13.6472 18.6831 13.4883 18.826 13.2561C18.8605 13.2201 18.8951 13.1841 18.9307 13.147Z" fill="#880404"/>
<path d="M7.61818 18.7334C7.99841 18.8371 7.99841 18.8371 8.38632 18.9429C8.45615 19.2222 8.45615 19.2222 8.35577 19.4143C8.30176 19.492 8.30176 19.492 8.24666 19.5714C8.1084 19.5253 7.97013 19.4792 7.82768 19.4317C7.82768 19.5239 7.82768 19.6161 7.82768 19.711C7.87376 19.711 7.91985 19.711 7.96734 19.711C7.96734 19.7571 7.96734 19.8032 7.96734 19.8507C7.80603 19.8277 7.64472 19.8046 7.47852 19.7809C7.45548 19.7117 7.43243 19.6426 7.40869 19.5714C7.45478 19.5714 7.50087 19.5714 7.54835 19.5714C7.57284 19.485 7.59732 19.3986 7.62255 19.3095C7.63632 19.2609 7.65009 19.2123 7.66428 19.1622C7.70166 18.9898 7.70166 18.9898 7.61818 18.7334ZM7.96734 19.0127C7.94429 19.1049 7.92125 19.1971 7.89751 19.2921C8.01273 19.269 8.12795 19.246 8.24666 19.2222C8.24666 19.1761 8.24666 19.1301 8.24666 19.0826C8.15448 19.0595 8.06231 19.0365 7.96734 19.0127Z" fill="#880404"/>
<path d="M13.065 1.27574C13.3415 1.36792 13.618 1.46009 13.9029 1.55506C13.9029 1.64724 13.9029 1.73942 13.9029 1.83439C13.8338 1.86895 13.8338 1.86895 13.7633 1.90422C13.6841 2.04505 13.6841 2.04505 13.6236 2.18354C13.5084 2.11441 13.3932 2.04528 13.2745 1.97405C13.3205 2.11231 13.3666 2.25058 13.4141 2.39303C13.0126 2.33193 13.0126 2.33193 12.8555 2.25337C12.8555 2.20728 12.8555 2.1612 12.8555 2.11371C12.9016 2.11371 12.9476 2.11371 12.9951 2.11371C13.0206 2.0135 13.0451 1.91308 13.0693 1.81257C13.0831 1.75667 13.0969 1.70077 13.1111 1.64317C13.1487 1.47409 13.1487 1.47409 13.065 1.27574ZM13.4141 1.55506C13.3911 1.64724 13.368 1.73942 13.3443 1.83439C13.4595 1.81134 13.5747 1.7883 13.6934 1.76456C13.6934 1.71847 13.6934 1.67238 13.6934 1.6249C13.6013 1.60185 13.5091 1.57881 13.4141 1.55506Z" fill="#880404"/>
<path d="M11.1097 19.2222C11.3192 19.2921 11.3192 19.2921 11.4135 19.4443C11.4575 19.5374 11.4575 19.5374 11.5025 19.6325C11.5322 19.6942 11.5619 19.756 11.5925 19.8196C11.6683 19.9904 11.6683 19.9904 11.7381 20.1999C11.5768 20.1999 11.4155 20.1999 11.2493 20.1999C11.2724 20.1077 11.2954 20.0155 11.3192 19.9205C11.227 19.9205 11.1348 19.9205 11.0398 19.9205C11.0629 20.0127 11.0859 20.1049 11.1097 20.1999C10.9714 20.2229 10.8331 20.2459 10.6907 20.2697C10.7115 20.2311 10.7323 20.1925 10.7537 20.1527C10.8352 19.9802 10.8877 19.8116 10.9394 19.6281C11.0323 19.2996 11.0323 19.2996 11.1097 19.2222Z" fill="#880404"/>
<path d="M1.05408 12.4487C1.42278 12.5178 1.79149 12.5869 2.17137 12.6581C2.17137 12.7273 2.17137 12.7964 2.17137 12.8676C2.05407 12.9797 2.05407 12.9797 1.90077 13.0902C1.85055 13.1272 1.80032 13.1642 1.74857 13.2023C1.61272 13.2866 1.61272 13.2866 1.47306 13.2866C1.47306 13.3558 1.47306 13.4249 1.47306 13.4961C1.42697 13.4961 1.38088 13.4961 1.3334 13.4961C1.28731 13.3348 1.24122 13.1735 1.19374 13.0073C1.28592 12.9843 1.37809 12.9612 1.47306 12.9375C1.45002 12.8914 1.42697 12.8453 1.40323 12.7978C1.31105 12.8209 1.21888 12.8439 1.12391 12.8676C1.10086 12.7294 1.07782 12.5911 1.05408 12.4487Z" fill="#880404"/>
<path d="M14.3219 1.69473C14.368 1.69473 14.4141 1.69473 14.4616 1.69473C14.4616 1.74082 14.4616 1.78691 14.4616 1.83439C14.7163 1.92326 14.9639 1.99698 15.2297 2.04389C15.1836 2.15911 15.1375 2.27433 15.0901 2.39304C15.044 2.39304 14.9979 2.39304 14.9504 2.39304C14.9504 2.32391 14.9504 2.25478 14.9504 2.18355C14.7604 2.34765 14.6734 2.50175 14.6012 2.74219C14.6243 2.81133 14.6473 2.88046 14.6711 2.95169C14.2695 2.82075 14.2695 2.82075 14.1124 2.74219C14.1124 2.69611 14.1124 2.65002 14.1124 2.60253C14.1816 2.60253 14.2507 2.60253 14.3219 2.60253C14.3911 2.39513 14.4602 2.18774 14.5314 1.97406C14.4162 1.9971 14.301 2.02014 14.1823 2.04389C14.1823 1.97475 14.1823 1.90562 14.1823 1.83439C14.2283 1.83439 14.2744 1.83439 14.3219 1.83439C14.3219 1.78831 14.3219 1.74222 14.3219 1.69473Z" fill="#880404"/>
<path d="M5.17407 2.60252C5.2432 2.64861 5.31233 2.6947 5.38356 2.74219C5.38356 2.78827 5.38356 2.83436 5.38356 2.88185C5.2453 2.90489 5.10703 2.92793 4.96458 2.95168C5.01314 3.16144 5.01314 3.16144 5.10424 3.37066C5.25654 3.43729 5.35855 3.44049 5.52322 3.44049C5.52322 3.32527 5.52322 3.21005 5.52322 3.09134C5.59235 3.11438 5.66149 3.13743 5.73271 3.16117C5.7137 3.39563 5.69195 3.48541 5.51013 3.64126C5.26602 3.7389 5.14362 3.73114 4.89475 3.64998C4.75945 3.53651 4.75945 3.53651 4.68525 3.37066C4.68089 3.12625 4.68089 3.12625 4.75508 2.88185C4.96894 2.71163 4.96894 2.71163 5.17407 2.60252Z" fill="#880404"/>
<path d="M16.4735 17.0706C16.5239 17.0893 16.5743 17.108 16.6263 17.1273C16.6263 17.1734 16.6263 17.2195 16.6263 17.267C16.488 17.3131 16.3497 17.3592 16.2073 17.4066C16.2509 17.5829 16.2509 17.5829 16.3469 17.7558C16.5248 17.8182 16.5248 17.8182 16.6961 17.8256C16.7191 17.7104 16.7422 17.5952 16.7659 17.4765C16.8351 17.4995 16.9042 17.5226 16.9754 17.5463C16.953 17.754 16.932 17.8671 16.7877 18.022C16.5729 18.1323 16.4457 18.1447 16.2073 18.1049C16.0261 17.9381 15.9428 17.8218 15.8887 17.5812C15.9591 17.2681 16.142 17.0485 16.4735 17.0706Z" fill="#880404"/>
<path d="M3.70769 16.1497C3.93763 16.1719 4.04744 16.2576 4.19651 16.429C4.15042 16.5212 4.10433 16.6134 4.05685 16.7083C4.01076 16.7083 3.96467 16.7083 3.91719 16.7083C3.91286 16.7515 3.90854 16.7948 3.90409 16.8393C3.84735 16.9877 3.84735 16.9877 3.66841 17.0749C3.61224 17.0922 3.55607 17.1095 3.4982 17.1273C3.38298 17.0121 3.26776 16.8969 3.14905 16.7782C3.19514 16.686 3.24122 16.5938 3.28871 16.4988C3.3348 16.4988 3.38089 16.4988 3.42837 16.4988C3.42837 16.6141 3.42837 16.7293 3.42837 16.848C3.4975 16.871 3.56664 16.8941 3.63786 16.9178C3.61338 16.8789 3.58889 16.8401 3.56367 16.8C3.48163 16.5976 3.50302 16.4952 3.56803 16.2894C3.61412 16.2433 3.66021 16.1972 3.70769 16.1497ZM3.77752 16.3592C3.80057 16.4744 3.82361 16.5896 3.84735 16.7083C3.89344 16.6162 3.93953 16.524 3.98702 16.429C3.91788 16.406 3.84875 16.3829 3.77752 16.3592Z" fill="#880404"/>
<path d="M17.0453 3.71982C17.2462 3.73527 17.3623 3.76415 17.5211 3.89003C17.604 3.99914 17.604 3.99914 17.604 4.1388C17.4657 4.20793 17.4657 4.20793 17.3247 4.27846C17.3247 4.18629 17.3247 4.09411 17.3247 3.99914C17.2786 3.9761 17.2325 3.95305 17.185 3.92931C17.208 4.13671 17.2311 4.3441 17.2548 4.55779C17.1396 4.60388 17.0244 4.64996 16.9057 4.69745C16.7905 4.60527 16.6752 4.5131 16.5565 4.41813C16.5796 4.32595 16.6026 4.23377 16.6263 4.1388C16.6955 4.1388 16.7646 4.1388 16.8358 4.1388C16.8358 4.23098 16.8358 4.32316 16.8358 4.41813C16.905 4.44117 16.9741 4.46421 17.0453 4.48796C17.0223 4.44907 16.9992 4.41018 16.9755 4.37012C16.895 4.18401 16.8845 4.06032 16.9057 3.85948C16.9518 3.81339 16.9978 3.7673 17.0453 3.71982Z" fill="#880404"/>
<path d="M4.19647 16.5687C4.37956 16.6419 4.46139 16.6838 4.56308 16.8567C4.58036 16.8999 4.59765 16.9431 4.61545 16.9876C4.56216 17.0064 4.50887 17.0251 4.45397 17.0444C4.27158 17.125 4.17352 17.1771 4.05681 17.3368C4.05681 17.429 4.05681 17.5212 4.05681 17.6161C3.88268 17.5321 3.7299 17.4447 3.56799 17.3368C3.56799 17.2907 3.56799 17.2446 3.56799 17.1971C3.61984 17.1813 3.67169 17.1655 3.72511 17.1491C3.95504 17.0394 4.05506 16.9178 4.19647 16.7083C4.19647 16.6622 4.19647 16.6161 4.19647 16.5687Z" fill="#880404"/>
<path d="M1.19374 11.3314C1.35959 11.3226 1.35959 11.3226 1.54289 11.3314C1.58898 11.3774 1.63507 11.4235 1.68255 11.471C1.67382 11.6456 1.67382 11.6456 1.61272 11.8202C1.4687 11.9118 1.4687 11.9118 1.3334 11.9598C1.24122 11.8677 1.14905 11.7755 1.05408 11.6805C1.10017 11.5653 1.14625 11.4501 1.19374 11.3314Z" fill="#880404"/>
<path d="M19.6291 11.2615C19.8167 11.3226 19.8167 11.3226 19.9782 11.4012C19.987 11.567 19.987 11.567 19.9782 11.7504C19.9321 11.7964 19.8861 11.8425 19.8386 11.89C19.5205 11.8512 19.5205 11.8512 19.4196 11.7504C19.4021 11.5801 19.4021 11.5801 19.4196 11.4012C19.4887 11.3551 19.5579 11.309 19.6291 11.2615Z" fill="#880404"/>
</svg>
