<svg width="5" height="5" viewBox="0 0 5 5" fill="none" xmlns="http://www.w3.org/2000/svg">
<path d="M0.367956 0.00842714C0.195087 0.0377269 0.0388221 0.197899 0.00952241 0.375651C-0.00317414 0.450853 -0.00317414 1.13842 0.00952241 1.21362C0.0300322 1.34059 0.124768 1.47244 0.24099 1.53494C0.349399 1.59354 0.236107 1.59061 2.5 1.59061C4.76389 1.59061 4.6506 1.59354 4.75901 1.53494C4.87523 1.47244 4.96997 1.34059 4.99048 1.21362C5.00317 1.13842 5.00317 0.450853 4.99048 0.375651C4.96118 0.193015 4.80589 0.0377269 4.62325 0.00842714C4.55293 -0.0032928 0.436322 -0.00231612 0.367956 0.00842714ZM0.857261 0.473316C0.905118 0.506523 0.908048 0.527032 0.908048 0.794637C0.908048 1.06419 0.905118 1.08275 0.855308 1.11596C0.801592 1.15112 0.718576 1.12475 0.69416 1.06517C0.686346 1.04564 0.683416 0.960669 0.68537 0.77608L0.6883 0.514336L0.720529 0.486013C0.756666 0.452806 0.820148 0.446947 0.857261 0.473316ZM1.30652 0.471363C1.35926 0.498709 1.36219 0.516289 1.36219 0.794637C1.36219 1.07201 1.36024 1.0847 1.30848 1.11498C1.25476 1.14721 1.17858 1.12768 1.15026 1.07494C1.14049 1.05638 1.13756 0.988015 1.13756 0.79073C1.13756 0.559262 1.13952 0.528009 1.15417 0.506523C1.18835 0.458666 1.25378 0.444017 1.30652 0.471363ZM1.77923 0.486013L1.81146 0.514336L1.81439 0.77608C1.81634 0.960669 1.81341 1.04564 1.8056 1.06517C1.77044 1.14916 1.64835 1.15405 1.60538 1.07201C1.58487 1.03099 1.58487 0.557309 1.60636 0.516289C1.64054 0.450853 1.72356 0.436203 1.77923 0.486013ZM3.51475 0.594422C3.55186 0.612978 3.57823 0.638371 3.60948 0.687204C3.62413 0.709668 3.62804 0.734084 3.62804 0.794637C3.62804 0.863003 3.62511 0.877653 3.60069 0.913789C3.50596 1.06126 3.28621 1.05052 3.20905 0.895233C3.12897 0.735061 3.25593 0.551449 3.43173 0.570982C3.4581 0.573912 3.49521 0.583679 3.51475 0.594422ZM4.15446 0.578795C4.29119 0.619815 4.35467 0.76729 4.29119 0.895233C4.21403 1.05052 3.99429 1.06126 3.89955 0.913789C3.87513 0.877653 3.8722 0.863003 3.8722 0.794637C3.8722 0.734084 3.87611 0.709668 3.89076 0.687204C3.93373 0.620792 3.97475 0.589539 4.03824 0.573912C4.08414 0.563169 4.10465 0.564145 4.15446 0.578795Z" fill="#2E2E2E" fill-opacity="0.7"/>
<path d="M0.304473 1.73125C0.164811 1.78399 0.0730047 1.87872 0.0222185 2.02229C0.00659199 2.06917 0.00463867 2.11117 0.00463867 2.4989C0.00463867 2.88663 0.00659199 2.92863 0.0222185 2.97551C0.0739814 3.12298 0.170671 3.21967 0.317169 3.27046C0.372839 3.28999 0.397255 3.28999 2.5 3.28999C4.60274 3.28999 4.62716 3.28999 4.68283 3.27046C4.82933 3.21967 4.92602 3.12298 4.97778 2.97551C4.99341 2.92863 4.99536 2.88663 4.99536 2.4989C4.99536 2.11117 4.99341 2.06917 4.97778 2.02229C4.92602 1.87482 4.82933 1.77813 4.68283 1.72734C4.62716 1.70781 4.60274 1.70781 2.49609 1.70878H0.366002L0.304473 1.73125ZM0.860191 2.17953C0.903164 2.2059 0.908047 2.23911 0.908047 2.49695C0.908047 2.63173 0.904141 2.75283 0.899257 2.76553C0.866051 2.8505 0.745922 2.86124 0.700019 2.78311C0.685369 2.75869 0.683416 2.72256 0.683416 2.4989C0.683416 2.27622 0.685369 2.23911 0.700019 2.21469C0.731272 2.16195 0.805498 2.14535 0.860191 2.17953ZM1.31824 2.18539C1.36317 2.21762 1.36805 2.25767 1.36512 2.51843C1.36219 2.78799 1.35926 2.79971 1.2909 2.82803C1.25964 2.84073 1.24988 2.84171 1.21667 2.82999C1.19518 2.82217 1.16881 2.80362 1.15807 2.78897C1.13854 2.7626 1.13756 2.7499 1.13756 2.49988C1.13756 2.26353 1.13952 2.23618 1.15514 2.21176C1.1903 2.15805 1.26453 2.14535 1.31824 2.18539ZM1.75188 2.17172C1.81341 2.20102 1.81634 2.21469 1.81634 2.4989C1.81634 2.72256 1.81439 2.75869 1.79974 2.78311C1.75383 2.86124 1.6337 2.8505 1.6005 2.76553C1.59561 2.75283 1.59171 2.63173 1.59171 2.49695C1.59171 2.20493 1.59561 2.19125 1.67961 2.16391C1.705 2.15512 1.71965 2.15707 1.75188 2.17172ZM3.49424 2.2899C3.57725 2.32408 3.63292 2.40709 3.63292 2.4989C3.63292 2.62587 3.53428 2.72353 3.40634 2.72353C3.28328 2.72256 3.18366 2.62196 3.18366 2.4989C3.18366 2.41393 3.23933 2.32701 3.31453 2.29283C3.36336 2.27036 3.4454 2.26939 3.49424 2.2899ZM4.18571 2.29283C4.23357 2.31431 4.29412 2.38268 4.30682 2.42956C4.32928 2.51062 4.31365 2.58387 4.26091 2.6454C4.12613 2.80264 3.8683 2.70791 3.86732 2.50085C3.86732 2.37291 3.96499 2.27427 4.09195 2.27427C4.1232 2.27427 4.16227 2.28208 4.18571 2.29283Z" fill="#2E2E2E" fill-opacity="0.7"/>
<path d="M0.354283 3.42184C0.182391 3.45896 0.0378455 3.61131 0.00952241 3.78418C-0.00317414 3.85939 -0.00317414 4.54695 0.00952241 4.62216C0.0388221 4.80479 0.194111 4.96008 0.376746 4.98938C0.454878 5.00208 4.54512 5.00208 4.62325 4.98938C4.80589 4.96008 4.96118 4.80479 4.99048 4.62216C5.00317 4.54695 5.00317 3.85939 4.99048 3.78418C4.96997 3.65722 4.87523 3.52537 4.75901 3.46286C4.6506 3.40426 4.76487 3.40719 2.49512 3.40817C0.781082 3.40817 0.404092 3.4111 0.354283 3.42184ZM0.855308 3.88185C0.905118 3.91506 0.908048 3.93361 0.908048 4.20317C0.908048 4.47077 0.905118 4.49128 0.857261 4.52449C0.820148 4.55086 0.756666 4.545 0.720529 4.51179L0.6883 4.48347L0.68537 4.22563C0.683416 4.08499 0.68537 3.95803 0.6883 3.94533C0.69123 3.93264 0.707833 3.9092 0.724436 3.89357C0.758619 3.86134 0.815265 3.85646 0.855308 3.88185ZM1.30848 3.88283C1.36024 3.9131 1.36219 3.9258 1.36219 4.20317C1.36219 4.48152 1.35926 4.4991 1.30652 4.52644C1.25183 4.55477 1.17858 4.53621 1.15221 4.48542C1.1317 4.44831 1.13073 3.95998 1.15026 3.92287C1.17858 3.87013 1.25476 3.8506 1.30848 3.88283ZM1.76751 3.88576C1.81439 3.91896 1.81732 3.93947 1.81439 4.22173L1.81146 4.48347L1.77923 4.51179C1.74309 4.545 1.67961 4.55086 1.64249 4.52449C1.59464 4.49128 1.59171 4.47077 1.59171 4.20317C1.59171 4.04104 1.59561 3.94533 1.60245 3.93166C1.6337 3.86915 1.71281 3.84669 1.76751 3.88576ZM3.45712 3.9844C3.5167 3.99807 3.56846 4.03323 3.60069 4.08402C3.62511 4.12015 3.62804 4.1348 3.62804 4.20317C3.62804 4.28423 3.62023 4.30572 3.57042 4.36236C3.52158 4.41803 3.42392 4.44343 3.34676 4.41901C3.28133 4.39948 3.23835 4.36334 3.20905 4.30377C3.14557 4.17582 3.21198 4.02346 3.34969 3.98733C3.40439 3.9717 3.40439 3.9717 3.45712 3.9844ZM4.14665 3.98635C4.28728 4.02346 4.35663 4.17387 4.29119 4.30377C4.26189 4.36334 4.21892 4.39948 4.15348 4.41901C4.07633 4.44343 3.97866 4.41803 3.92983 4.36236C3.88002 4.30572 3.8722 4.28423 3.8722 4.20317C3.8722 4.1348 3.87513 4.12015 3.89857 4.08499C3.9308 4.03421 3.97475 4.00295 4.03238 3.98733C4.09 3.9717 4.08902 3.9717 4.14665 3.98635Z" fill="#2E2E2E" fill-opacity="0.7"/>
</svg>
