<svg width="5" height="3" viewBox="0 0 5 3" fill="none" xmlns="http://www.w3.org/2000/svg">
<path d="M1.78245 0.00303864C1.49225 0.047008 1.27924 0.152535 1.08773 0.343069C0.881564 0.549236 0.769197 0.795465 0.743793 1.09543L0.736953 1.18142L0.663671 1.19998C0.582572 1.2205 0.453595 1.27913 0.384221 1.32701C0.302145 1.38368 0.203458 1.4853 0.144832 1.57421C-0.0808777 1.91717 -0.0398396 2.35394 0.247427 2.65293C0.358816 2.77018 0.510266 2.85812 0.673442 2.90111L0.756495 2.92358H2.50061H4.24473L4.32779 2.90111C4.54373 2.84444 4.73133 2.71155 4.85444 2.52884C5.0098 2.3002 5.04302 1.9973 4.94336 1.73739C4.88571 1.58887 4.75087 1.41885 4.61701 1.32701C4.54666 1.27815 4.41866 1.2205 4.33365 1.19901C4.29066 1.18826 4.25451 1.17751 4.25255 1.17653C4.25157 1.17458 4.24083 1.13843 4.23008 1.09543C4.15289 0.791557 3.91057 0.549236 3.59985 0.465206C3.53634 0.447618 3.4953 0.44371 3.38 0.44371C3.21585 0.44371 3.14061 0.459343 3.00187 0.524809C2.95594 0.546305 2.91686 0.562916 2.91588 0.561939C2.9149 0.559984 2.89341 0.528717 2.86703 0.491588C2.69897 0.251222 2.44199 0.0831606 2.14886 0.0206265C2.07753 0.00597 1.84107 -0.00575519 1.78245 0.00303864Z" fill="#2E2E2E" fill-opacity="0.3"/>
</svg>
