<svg width="22" height="22" viewBox="0 0 22 22" fill="none" xmlns="http://www.w3.org/2000/svg">
<circle cx="11" cy="11" r="11" fill="#D9D9D9" fill-opacity="0.4"/>
<path fill-rule="evenodd" clip-rule="evenodd" d="M12.1475 11.212C12.1669 11.1918 12.1866 11.1719 12.2062 11.152C12.2259 11.1321 12.2455 11.1132 12.2654 11.094L12.1475 11.212Z" fill="white"/>
<path fill-rule="evenodd" clip-rule="evenodd" d="M9.72967 14.8576C8.96764 15.5935 7.99725 16.0766 6.95073 16.241C5.9042 16.4054 4.83243 16.2432 3.88146 15.7764C2.93048 15.3096 2.14654 14.561 1.63646 13.6325C1.12638 12.704 0.914958 11.6409 1.03101 10.5879C1.14705 9.53491 1.58492 8.54331 2.28496 7.7482C2.98499 6.95309 3.91314 6.39314 4.94295 6.14465C5.97276 5.89616 7.05413 5.97121 8.03974 6.35958C9.02534 6.74795 9.86724 7.43074 10.4507 8.31494L9.44236 9.3233C9.06053 8.63511 8.47283 8.08373 7.76172 7.7465C7.05062 7.40926 6.25178 7.30311 5.47728 7.44292C4.70278 7.58273 3.99148 7.9615 3.44317 8.52608C2.89486 9.09067 2.53705 9.81274 2.41994 10.591C2.30283 11.3693 2.4323 12.1646 2.79018 12.8656C3.14806 13.5665 3.71639 14.1379 4.41545 14.4994C5.11451 14.861 5.90921 14.9946 6.68807 14.8816C7.46693 14.7685 8.19087 14.4145 8.75832 13.8692L9.7299 12.8976C10.9962 11.6313 12.185 10.4645 13.4346 9.21481C14.136 8.53893 15.0724 8.16187 16.0464 8.16318C16.168 8.16318 16.2883 8.16889 16.407 8.1803L10.2196 14.3677L9.72967 14.8576Z" fill="#0898DA"/>
<path fill-rule="evenodd" clip-rule="evenodd" d="M12.2683 7.4466C13.0304 6.7104 14.0009 6.22709 15.0477 6.06252C16.0945 5.89795 17.1665 6.06013 18.1177 6.52696C19.069 6.99379 19.8531 7.74256 20.3634 8.67124C20.8736 9.59992 21.0851 10.6633 20.969 11.7166C20.853 12.7698 20.415 13.7617 19.7147 14.5569C19.0145 15.3522 18.0861 15.9122 17.056 16.1607C16.026 16.4092 14.9443 16.334 13.9585 15.9454C12.9727 15.5569 12.1307 14.8738 11.5472 13.9893L12.5553 12.9809C12.937 13.6693 13.5247 14.2208 14.2357 14.5582C14.9468 14.8956 15.7457 15.0019 16.5203 14.8622C17.2948 14.7225 18.0062 14.3438 18.5546 13.7792C19.1031 13.2147 19.461 12.4926 19.5781 11.7143C19.6953 10.936 19.5659 10.1405 19.208 9.43954C18.8501 8.73854 18.2818 8.16717 17.5827 7.80559C16.8836 7.44402 16.0888 7.31039 15.3099 7.42345C14.531 7.53651 13.8071 7.89058 13.2396 8.436L12.268 9.40758C11.0017 10.6739 9.81293 11.8407 8.56306 13.0904C7.86186 13.7663 6.9255 14.1433 5.95157 14.142C5.82989 14.142 5.7096 14.1363 5.5907 14.1249L11.7781 7.93656L12.268 7.4466H12.2683Z" fill="#223E60"/>
</svg>
