<svg width="52" height="28" viewBox="0 0 52 28" fill="none" xmlns="http://www.w3.org/2000/svg">
<path fill-rule="evenodd" clip-rule="evenodd" d="M27.8184 8.25148C27.8491 8.21962 27.8803 8.18812 27.9114 8.15662C27.9425 8.12513 27.9736 8.09509 28.0051 8.0647L27.8184 8.25148Z" fill="white"/>
<path fill-rule="evenodd" clip-rule="evenodd" d="M23.9905 14.023C22.784 15.1881 21.2477 15.9529 19.5909 16.2132C17.934 16.4735 16.2372 16.2166 14.7317 15.4776C13.2261 14.7386 11.985 13.5534 11.1774 12.0834C10.3699 10.6135 10.0352 8.9303 10.2189 7.26324C10.4026 5.59617 11.0958 4.02628 12.2041 2.76748C13.3124 1.50867 14.7818 0.622176 16.4122 0.228771C18.0426 -0.164634 19.7546 -0.0458126 21.315 0.569044C22.8754 1.1839 24.2083 2.26489 25.132 3.66473L23.5356 5.26116C22.9311 4.17163 22.0007 3.29868 20.8748 2.76478C19.749 2.23088 18.4843 2.06282 17.2581 2.28417C16.032 2.50552 14.9059 3.10518 14.0378 3.99901C13.1697 4.89285 12.6032 6.03602 12.4178 7.26814C12.2324 8.50027 12.4374 9.75952 13.004 10.8692C13.5706 11.979 14.4703 12.8835 15.5771 13.4559C16.6838 14.0283 17.942 14.2398 19.1751 14.0609C20.4081 13.8819 21.5543 13.3215 22.4526 12.4581L23.9908 10.9199C25.9956 8.9151 27.8777 7.0678 29.8561 5.08939C30.9664 4.01934 32.4489 3.42239 33.9909 3.42447C34.1836 3.42447 34.3739 3.43351 34.5619 3.45158L24.7661 13.2473L23.9905 14.023Z" fill="#0898DA"/>
<path fill-rule="evenodd" clip-rule="evenodd" d="M28.0095 2.29023C29.2161 1.1247 30.7527 0.359525 32.4099 0.0989833C34.0671 -0.161559 35.7643 0.0952025 37.2703 0.834278C38.7763 1.57335 40.0178 2.75879 40.8256 4.22906C41.6334 5.69933 41.9682 7.38291 41.7845 9.05038C41.6007 10.7178 40.9073 12.2881 39.7987 13.5472C38.6901 14.8062 37.2202 15.6929 35.5894 16.0862C33.9587 16.4796 32.2462 16.3606 30.6855 15.7454C29.1248 15.1303 27.7918 14.0488 26.868 12.6485L28.4641 11.0521C29.0684 12.1418 29.9987 13.015 31.1244 13.5492C32.2502 14.0833 33.515 14.2516 34.7412 14.0304C35.9675 13.8092 37.0938 13.2097 37.962 12.3159C38.8303 11.4221 39.3969 10.2789 39.5824 9.04676C39.7679 7.81457 39.563 6.55523 38.9964 5.44542C38.4299 4.33561 37.5301 3.43102 36.4233 2.85858C35.3165 2.28615 34.0582 2.07458 32.8251 2.25358C31.5919 2.43257 30.4458 2.99314 29.5474 3.85663L28.0092 5.39482C26.0044 7.39961 24.1223 9.24691 22.1435 11.2253C21.0334 12.2954 19.551 12.8924 18.0091 12.8902C17.8164 12.8902 17.626 12.8812 17.4377 12.8631L27.2335 3.06592L28.0092 2.29023H28.0095Z" fill="#223E60"/>
<path fill-rule="evenodd" clip-rule="evenodd" d="M3.63719 23.7375C3.3442 23.6041 3.33358 23.5858 3.02081 23.4247C2.93871 23.58 2.81548 23.7098 2.66459 23.7999C2.51371 23.8899 2.34098 23.9367 2.16528 23.9352C1.90662 23.9352 1.65855 23.8325 1.47565 23.6496C1.29274 23.4667 1.18999 23.2186 1.18999 22.9599C1.18999 22.7013 1.29274 22.4532 1.47565 22.2703C1.65855 22.0874 1.90662 21.9846 2.16528 21.9846C2.33269 21.9843 2.49726 22.0279 2.64255 22.1111C2.78785 22.1943 2.90881 22.3141 2.99334 22.4586C3.30611 22.3066 3.32918 22.293 3.60972 22.1458C3.46688 21.8879 3.25759 21.6729 3.00358 21.5232C2.74957 21.3736 2.46011 21.2946 2.16528 21.2947C1.72362 21.2947 1.30005 21.4701 0.987749 21.7824C0.675449 22.0947 0.5 22.5183 0.5 22.9599C0.5 23.4016 0.675449 23.8252 0.987749 24.1375C1.30005 24.4498 1.72362 24.6252 2.16528 24.6252C2.46846 24.6265 2.76616 24.5444 3.02578 24.3878C3.2854 24.2312 3.49692 24.0062 3.63719 23.7375ZM41.9416 24.656C41.9218 24.9314 41.8779 24.9911 41.7024 24.9911V25.2504C42.1013 25.2504 42.2609 25.0991 42.2609 24.4487C42.2609 24.1337 42.2049 24.0616 41.9496 24.0616C41.6823 24.0616 41.6266 24.1495 41.6266 24.3608C41.6266 24.5721 41.6823 24.656 41.9416 24.656ZM7.24865 22.9599C7.24887 22.6237 7.1494 22.295 6.96283 22.0154C6.77625 21.7357 6.51094 21.5176 6.20044 21.3887C5.88994 21.2598 5.54819 21.2258 5.21839 21.2911C4.8886 21.3564 4.58557 21.518 4.34761 21.7555C4.10966 21.993 3.94746 22.2957 3.88152 22.6254C3.81559 22.9551 3.84888 23.2969 3.97718 23.6076C4.10549 23.9184 4.32305 24.1841 4.60236 24.3712C4.88167 24.5584 5.21019 24.6585 5.54638 24.6589C5.99685 24.6583 6.42878 24.4795 6.74775 24.1614C7.06673 23.8433 7.24682 23.4119 7.24865 22.9614V22.9599ZM5.54638 21.9524C6.09391 21.9524 6.53999 22.4124 6.53999 22.9599C6.54253 23.0926 6.51859 23.2245 6.46956 23.3478C6.42054 23.4712 6.34742 23.5835 6.25448 23.6782C6.16154 23.7729 6.05064 23.8482 5.92827 23.8996C5.80591 23.951 5.67452 23.9774 5.54181 23.9774C5.40909 23.9774 5.27771 23.951 5.15534 23.8996C5.03297 23.8482 4.92207 23.7729 4.82913 23.6782C4.73619 23.5835 4.66307 23.4712 4.61405 23.3478C4.56502 23.2245 4.54108 23.0926 4.54363 22.9599C4.54562 22.6942 4.65176 22.4398 4.83925 22.2514C5.02674 22.063 5.28062 21.9557 5.54638 21.9524ZM9.98591 24.593V23.9858H8.30122V21.3177H7.59365V24.593H9.98591ZM12.5071 23.3038V22.6655H11.0073V21.9249H12.7034V21.3177H10.3082V24.6161H12.8612V24.0088H11.0073V23.3038H12.5071ZM14.558 23.5261C14.558 24.3344 15.2205 24.6933 15.9567 24.6933C16.8536 24.6933 17.3227 24.2425 17.3227 23.6404C17.3227 22.8969 16.5903 22.7457 16.3475 22.686C15.5242 22.4882 15.3678 22.4329 15.3678 22.1897C15.3678 21.914 15.6344 21.818 15.8644 21.818C16.0944 21.818 16.4258 21.8319 16.513 22.2128L17.2125 22.3139C17.2125 21.5558 16.5822 21.2566 15.8966 21.2566C15.3033 21.2566 14.6683 21.5741 14.6683 22.2498C14.6683 23.4756 16.6236 23.0255 16.6236 23.7232C16.6236 24.059 16.2372 24.1319 15.9841 24.1319C15.7172 24.1319 15.3308 24.0729 15.2572 23.6404L14.558 23.5261ZM20.9159 22.9588C20.9159 22.6227 20.8162 22.294 20.6295 22.0145C20.4427 21.7349 20.1773 21.517 19.8668 21.3883C19.5562 21.2596 19.2144 21.2258 18.8847 21.2913C18.555 21.3568 18.252 21.5186 18.0142 21.7562C17.7764 21.9938 17.6144 22.2966 17.5486 22.6263C17.4828 22.956 17.5163 23.2977 17.6447 23.6084C17.7732 23.9191 17.9909 24.1847 18.2702 24.3717C18.5496 24.5587 18.8782 24.6586 19.2144 24.6589C19.6648 24.6583 20.0968 24.4795 20.4157 24.1614C20.7347 23.8433 20.9148 23.4119 20.9166 22.9614L20.9159 22.9588ZM19.2144 21.9524C19.7637 21.9524 20.208 22.4124 20.208 22.9599C20.2105 23.0926 20.1866 23.2245 20.1375 23.3478C20.0885 23.4712 20.0154 23.5835 19.9225 23.6782C19.8295 23.7729 19.7186 23.8482 19.5962 23.8996C19.4739 23.951 19.3425 23.9774 19.2098 23.9774C19.0771 23.9774 18.9457 23.951 18.8233 23.8996C18.7009 23.8482 18.59 23.7729 18.4971 23.6782C18.4042 23.5835 18.331 23.4712 18.282 23.3478C18.233 23.2245 18.2091 23.0926 18.2116 22.9599C18.2136 22.6942 18.3197 22.4398 18.5072 22.2514C18.6947 22.063 18.9486 21.9557 19.2144 21.9524ZM23.6539 24.593V23.9858H21.9692V21.3177H21.2616V24.593H23.6539ZM26.8464 21.3316H26.1242V23.3741C26.1242 23.8664 25.9586 24.0872 25.4433 24.0872C24.8573 24.0872 24.7673 23.7327 24.7673 23.3741V21.3316H24.0447V23.3741C24.0447 24.2711 24.5574 24.6944 25.4433 24.6944C26.3223 24.6944 26.8464 24.2619 26.8464 23.3741V21.3316ZM28.3003 24.6161H29.0226V21.9389H30.0575V21.3316H27.2558V21.9341H28.3003V24.6161ZM30.4718 24.6161H31.194V21.3316H30.4718V24.6161ZM34.9937 22.9599C34.9939 22.6237 34.8944 22.295 34.7079 22.0154C34.5213 21.7357 34.256 21.5176 33.9455 21.3887C33.635 21.2598 33.2932 21.2258 32.9634 21.2911C32.6336 21.3564 32.3306 21.518 32.0926 21.7555C31.8547 21.993 31.6925 22.2957 31.6266 22.6254C31.5606 22.9551 31.5939 23.2969 31.7222 23.6076C31.8505 23.9184 32.0681 24.1841 32.3474 24.3712C32.6267 24.5584 32.9552 24.6585 33.2914 24.6589C33.7419 24.6583 34.1738 24.4795 34.4928 24.1614C34.8118 23.8433 34.9919 23.4119 34.9937 22.9614V22.9599ZM33.2914 21.9524C33.8408 21.9524 34.2854 22.4124 34.2854 22.9599C34.2854 23.2247 34.1802 23.4787 33.993 23.6659C33.8057 23.8531 33.5518 23.9583 33.287 23.9583C33.0222 23.9583 32.7683 23.8531 32.5811 23.6659C32.3938 23.4787 32.2887 23.2247 32.2887 22.9599C32.2907 22.6942 32.3968 22.4398 32.5843 22.2514C32.7718 22.063 33.0257 21.9557 33.2914 21.9524ZM37.639 24.6161H38.2506V21.3221H37.639V23.3709L36.1715 21.3221H35.3434V24.6161H35.9737V22.3454L37.639 24.6161ZM38.6096 23.5272C38.6096 24.3355 39.2721 24.6944 40.0082 24.6944C40.9051 24.6944 41.3746 24.2436 41.3746 23.6415C41.3746 22.898 40.6422 22.7468 40.3994 22.6871C39.5757 22.4893 39.4193 22.434 39.4193 22.1908C39.4193 21.9151 39.6863 21.8191 39.9163 21.8191C40.1463 21.8191 40.4774 21.833 40.5649 22.2139L41.264 22.315C41.264 21.5569 40.6337 21.2577 39.9485 21.2577C39.3548 21.2577 38.7202 21.5752 38.7202 22.2509C38.7202 23.4767 40.6751 23.0266 40.6751 23.7243C40.6751 24.0601 40.2887 24.133 40.0357 24.133C39.7691 24.133 39.3827 24.074 39.3091 23.6415L38.6096 23.5272ZM45.4044 24.593V23.9858H43.7197V21.3177H43.011V24.593H45.4044ZM48.1325 24.593V23.9858H46.4478V21.3177H45.7391V24.593H48.1325ZM51.5 23.7375C51.207 23.6041 51.1964 23.5858 50.8836 23.4247C50.8015 23.5801 50.6782 23.7099 50.5272 23.7999C50.3763 23.8899 50.2035 23.9367 50.0277 23.9352C49.7691 23.9352 49.521 23.8325 49.3381 23.6496C49.1552 23.4667 49.0524 23.2186 49.0524 22.9599C49.0524 22.7013 49.1552 22.4532 49.3381 22.2703C49.521 22.0874 49.7691 21.9846 50.0277 21.9846C50.1952 21.9843 50.3598 22.0279 50.5052 22.1111C50.6505 22.1942 50.7716 22.314 50.8562 22.4586C51.1689 22.3066 51.192 22.293 51.4725 22.1458C51.3297 21.8878 51.1203 21.6728 50.8662 21.5231C50.6122 21.3735 50.3226 21.2946 50.0277 21.2947C49.5861 21.2947 49.1625 21.4701 48.8502 21.7824C48.5379 22.0947 48.3624 22.5183 48.3624 22.9599C48.3624 23.4016 48.5379 23.8252 48.8502 24.1375C49.1625 24.4498 49.5861 24.6252 50.0277 24.6252C50.331 24.6266 50.6288 24.5445 50.8884 24.3879C51.1481 24.2313 51.3597 24.0063 51.5 23.7375Z" fill="black"/>
<path fill-rule="evenodd" clip-rule="evenodd" d="M0.638794 27.5031H1.78658V27.2442H0.950462V26.8413H1.69173V26.5824H0.950462V26.2528H1.75289V25.9938H0.638794V27.5038V27.5031ZM2.14256 27.5031H2.5088L2.82486 26.9871L3.12811 27.5031H3.50716L3.00579 26.7216L3.47127 25.9931H3.10797L2.82596 26.4795L2.54579 25.9931H2.17626L2.63955 26.7256L2.14256 27.5031ZM4.80035 27.0061C4.77508 27.2061 4.67619 27.2713 4.46744 27.2713C4.17701 27.2713 4.09278 27.0966 4.09278 26.7827C4.09278 26.3799 4.20631 26.2246 4.46341 26.2246C4.72051 26.2246 4.76446 26.3278 4.80035 26.4626H5.11202C5.06148 26.1173 4.83404 25.9594 4.46341 25.9594C3.99389 25.9594 3.77672 26.2121 3.77672 26.7556C3.77672 27.3116 4.00635 27.5368 4.46121 27.5368C4.9267 27.5368 5.09077 27.3009 5.11202 27.0061H4.80035ZM5.59838 27.5031H6.74617V27.2442H5.91041V26.8413H6.65168V26.5824H5.91041V26.2528H6.71247V25.9938H5.59838V27.5038V27.5031ZM7.24095 27.5031H8.30854V27.2379H7.55299V25.9927H7.24132V27.5027L7.24095 27.5031ZM8.7656 27.5031H9.83135V27.2379H9.07763V25.9927H8.7656V27.5027V27.5031ZM10.2906 27.5031H11.4384V27.2442H10.6026V26.8413H11.3439V26.5824H10.6026V26.2528H11.4051V25.9938H10.291V27.5038L10.2906 27.5031ZM11.927 27.5031H12.2386V26.5007L12.8327 27.5031H13.1443V25.9931H12.8327V26.9893L12.2449 25.9931H11.927V27.5031ZM14.6525 27.0061C14.6269 27.2061 14.528 27.2713 14.3196 27.2713C14.0288 27.2713 13.9446 27.0966 13.9446 26.7827C13.9446 26.3799 14.0585 26.2246 14.3152 26.2246C14.5719 26.2246 14.6166 26.3278 14.6525 26.4626H14.9638C14.9136 26.1173 14.6858 25.9594 14.3152 25.9594C13.8457 25.9594 13.6289 26.2121 13.6289 26.7556C13.6289 27.3116 13.8585 27.5368 14.3134 27.5368C14.7788 27.5368 14.9429 27.3009 14.9638 27.0061H14.6525ZM15.4502 27.5031H16.5979V27.2442H15.7626V26.8413H16.5038V26.5824H15.7626V26.2528H16.565V25.9938H15.4502V27.5038V27.5031ZM18.0091 27.5031H18.3207V26.2579H18.7734V25.9927H17.5549V26.2579H18.0098V27.5031H18.0091ZM19.1968 27.5031H19.5084V26.8333H20.1014V27.5031H20.413V25.9931H20.1014V26.5743H19.5092V25.9931H19.1975V27.5031H19.1968ZM20.9617 27.5031H21.2733V26.9091H21.5531L21.9238 27.5031H22.3032L21.9091 26.8904C22.082 26.8501 22.2039 26.7406 22.2039 26.4458C22.2039 26.0015 21.9304 25.9931 21.618 25.9931H20.9624V27.5031H20.9617ZM21.5725 26.252C21.8359 26.252 21.8886 26.2835 21.8886 26.4352C21.8886 26.6245 21.8044 26.6498 21.5535 26.6498H21.2733V26.252H21.5725ZM22.6116 26.7465C22.6116 27.3951 22.9569 27.5361 23.344 27.5361C23.7103 27.5361 24.0707 27.4075 24.0707 26.7465C24.0707 26.0744 23.6982 25.9587 23.3382 25.9587C22.9972 25.9587 22.6138 26.062 22.6138 26.7465H22.6116ZM22.9276 26.7549C22.9276 26.3355 23.054 26.2238 23.3338 26.2238C23.6352 26.2238 23.7531 26.3524 23.7531 26.7366C23.7531 27.2273 23.5634 27.2691 23.3528 27.2691C23.0664 27.2691 22.9276 27.1914 22.9276 26.7534V26.7549ZM24.5515 25.9924V26.9863C24.5515 27.4456 24.7976 27.5357 25.1741 27.5357C25.5279 27.5357 25.766 27.4559 25.766 26.9904V25.9931H25.4543V26.8018C25.4543 27.1892 25.4224 27.2713 25.1635 27.2713C24.8815 27.2713 24.8647 27.1724 24.8647 26.7889V25.9931L24.5515 25.9924ZM27.6979 26.6915H27.0364V26.9505H27.3862C27.3862 27.1739 27.2998 27.2705 26.9921 27.2705C26.7226 27.2705 26.5625 27.1845 26.5625 26.7483C26.5625 26.3333 26.709 26.2238 26.9987 26.2238C27.2617 26.2238 27.3441 26.3147 27.3631 26.4619H27.6748C27.6451 26.1081 27.3968 25.9587 26.9903 25.9587C26.6534 25.9587 26.2468 26.062 26.2468 26.7465C26.2468 27.3951 26.6153 27.5361 26.9903 27.5361C27.4221 27.5361 27.6979 27.3698 27.6979 26.8684V26.6915ZM28.1842 27.5024H28.4959V26.8333H29.0877V27.5031H29.3998V25.9931H29.0877V26.5743H28.4959V25.9931H28.1842V27.5031V27.5024ZM31.495 27.0054C31.4697 27.2054 31.3709 27.2705 31.1625 27.2705C30.8717 27.2705 30.7874 27.0958 30.7874 26.782C30.7874 26.3791 30.9013 26.2238 31.1581 26.2238C31.4148 26.2238 31.4595 26.3271 31.495 26.4619H31.8067C31.7561 26.1165 31.5287 25.9587 31.1581 25.9587C30.6886 25.9587 30.4714 26.2114 30.4714 26.7549C30.4714 27.3108 30.701 27.5361 31.1559 27.5361C31.6214 27.5361 31.7858 27.3002 31.8067 27.0054H31.495ZM32.2275 26.7465C32.2275 27.3951 32.5729 27.5361 32.96 27.5361C33.3262 27.5361 33.6866 27.4075 33.6866 26.7465C33.6866 26.0744 33.3141 25.9587 32.9541 25.9587C32.6131 25.9587 32.2297 26.062 32.2297 26.7465H32.2275ZM32.5432 26.7549C32.5432 26.3355 32.6699 26.2238 32.9497 26.2238C33.2511 26.2238 33.3691 26.3524 33.3691 26.7366C33.3691 27.2273 33.1793 27.2691 32.9688 27.2691C32.6824 27.2691 32.5432 27.1914 32.5432 26.7534V26.7549ZM34.1715 27.5024H35.2372V27.2372H34.4817V25.992H34.17V27.502L34.1715 27.5024ZM35.6961 27.5024H36.7619V27.2372H36.0063V25.992H35.6947V27.502L35.6961 27.5024ZM38.5528 27.5024C38.4014 26.9869 38.2149 26.4824 37.9946 25.9924H37.6441C37.4269 26.4833 37.2412 26.9877 37.0882 27.5024H37.4178C37.4453 27.3969 37.4746 27.2896 37.5064 27.1823H38.1202C38.1517 27.2896 38.1836 27.3969 38.2107 27.5024H38.5528ZM37.8155 26.3377C37.8998 26.5337 37.9734 26.7296 38.0389 26.9237H37.5903C37.6555 26.73 37.7291 26.534 37.8155 26.3377ZM38.9783 25.9924V27.5024H39.7028C40.1195 27.5024 40.2334 27.3149 40.2334 27.0665C40.2334 26.9083 40.1869 26.7651 40.0016 26.6937C40.0668 26.6662 40.1745 26.6179 40.1745 26.3839C40.1745 26.0975 40.0122 25.9924 39.7152 25.9924H38.9783ZM39.5804 26.2513C39.8438 26.2513 39.8734 26.281 39.8734 26.4073C39.8734 26.563 39.8269 26.586 39.6394 26.586H39.29V26.252L39.5804 26.2513ZM39.631 26.8453C39.8584 26.8453 39.9174 26.8684 39.9174 27.0497C39.9174 27.2222 39.8544 27.2434 39.5698 27.2434H39.29V26.8461L39.631 26.8453ZM40.6693 26.7465C40.6693 27.3951 41.0146 27.5361 41.4017 27.5361C41.768 27.5361 42.1283 27.4075 42.1283 26.7465C42.1283 26.0744 41.7555 25.9587 41.3959 25.9587C41.0545 25.9587 40.6711 26.062 40.6711 26.7465H40.6693ZM40.9853 26.7549C40.9853 26.3355 41.1117 26.2238 41.3918 26.2238C41.6929 26.2238 41.8108 26.3524 41.8108 26.7366C41.8108 27.2273 41.6215 27.2691 41.4109 27.2691C41.1241 27.2691 40.9853 27.1914 40.9853 26.7534V26.7549ZM42.6133 27.5024H42.9249V26.9091H43.2051L43.5772 27.5031H43.9562L43.5625 26.8904C43.735 26.8501 43.8555 26.7406 43.8555 26.4458C43.8555 26.0015 43.5819 25.9931 43.2695 25.9931H42.6143V27.5031L42.6133 27.5024ZM43.2241 26.2513C43.4875 26.2513 43.5398 26.2828 43.5398 26.4344C43.5398 26.6238 43.456 26.649 43.2051 26.649H42.9249V26.252L43.2241 26.2513ZM45.705 27.5024C45.5538 26.9868 45.3673 26.4823 45.1469 25.9924H44.7975C44.58 26.4833 44.3943 26.9877 44.2415 27.5024H44.5712C44.5986 27.3969 44.6283 27.2896 44.6598 27.1823H45.2725C45.3044 27.2896 45.3359 27.3969 45.3633 27.5024H45.705ZM44.9689 26.3385C45.0531 26.5344 45.1267 26.7303 45.1919 26.9244H44.7433C44.8085 26.7307 44.8825 26.5348 44.9689 26.3385ZM46.2507 27.5031H46.5624V26.2579H47.0151V25.9927H45.7958V26.2579H46.2507V27.5031ZM47.4227 27.5031H47.7343V25.9931H47.4227V27.5031ZM48.2009 26.7465C48.2009 27.3951 48.5463 27.5361 48.9334 27.5361C49.2996 27.5361 49.66 27.4075 49.66 26.7465C49.66 26.0744 49.2872 25.9587 48.9275 25.9587C48.5862 25.9587 48.2031 26.062 48.2031 26.7465H48.2009ZM48.5166 26.7549C48.5166 26.3355 48.643 26.2238 48.9231 26.2238C49.2246 26.2238 49.3425 26.3524 49.3425 26.7366C49.3425 27.2273 49.1528 27.2691 48.9422 27.2691C48.6558 27.2691 48.5166 27.1914 48.5166 26.7534V26.7549ZM50.1383 27.5024H50.45V26.5007L51.044 27.5031H51.3557V25.9931H51.044V26.9893L50.4581 25.9931H50.1398L50.1383 27.5024Z" fill="black"/>
</svg>
