<svg width="72" height="72" viewBox="0 0 72 72" fill="none" xmlns="http://www.w3.org/2000/svg">
<circle cx="36" cy="36" r="36" fill="#0898DA"/>
<circle cx="36" cy="36" r="34.5" stroke="#223E60" stroke-opacity="0.901961" stroke-width="3"/>
<path d="M31.2435 29.7461H29.8437C29.8181 29.565 29.7659 29.4041 29.6871 29.2635C29.6082 29.1207 29.507 28.9993 29.3834 28.8991C29.2599 28.799 29.1171 28.7223 28.9552 28.669C28.7954 28.6158 28.6217 28.5891 28.4342 28.5891C28.0954 28.5891 27.8003 28.6733 27.5489 28.8416C27.2975 29.0078 27.1025 29.2507 26.964 29.5703C26.8256 29.8878 26.7563 30.2734 26.7563 30.7273C26.7563 31.1939 26.8256 31.5859 26.964 31.9034C27.1047 32.2209 27.3007 32.4606 27.5521 32.6225C27.8035 32.7844 28.0944 32.8654 28.4246 32.8654C28.61 32.8654 28.7815 32.8409 28.9392 32.7919C29.099 32.7429 29.2407 32.6715 29.3643 32.5778C29.4878 32.4819 29.5901 32.3658 29.6711 32.2294C29.7542 32.093 29.8117 31.9375 29.8437 31.7628L31.2435 31.7692C31.2073 32.0696 31.1167 32.3594 30.9719 32.6385C30.8291 32.9155 30.6363 33.1637 30.3934 33.3832C30.1526 33.6005 29.865 33.7731 29.5305 33.9009C29.1981 34.0266 28.822 34.0895 28.4023 34.0895C27.8184 34.0895 27.2964 33.9574 26.8362 33.6932C26.3781 33.429 26.0159 33.0465 25.7496 32.5458C25.4854 32.0451 25.3532 31.4389 25.3532 30.7273C25.3532 30.0135 25.4875 29.4062 25.7559 28.9055C26.0244 28.4048 26.3888 28.0234 26.849 27.7614C27.3092 27.4972 27.827 27.3651 28.4023 27.3651C28.7815 27.3651 29.1331 27.4183 29.4569 27.5249C29.7829 27.6314 30.0716 27.7869 30.3231 27.9915C30.5745 28.1939 30.779 28.4421 30.9367 28.7362C31.0965 29.0302 31.1988 29.3668 31.2435 29.7461ZM34.4284 34.0959C33.9319 34.0959 33.5026 33.9904 33.1404 33.7795C32.7803 33.5664 32.5022 33.2702 32.3062 32.891C32.1102 32.5096 32.0122 32.0675 32.0122 31.5646C32.0122 31.0575 32.1102 30.6143 32.3062 30.2351C32.5022 29.8537 32.7803 29.5575 33.1404 29.3466C33.5026 29.1335 33.9319 29.027 34.4284 29.027C34.9248 29.027 35.3531 29.1335 35.7132 29.3466C36.0754 29.5575 36.3545 29.8537 36.5505 30.2351C36.7465 30.6143 36.8445 31.0575 36.8445 31.5646C36.8445 32.0675 36.7465 32.5096 36.5505 32.891C36.3545 33.2702 36.0754 33.5664 35.7132 33.7795C35.3531 33.9904 34.9248 34.0959 34.4284 34.0959ZM34.4347 33.0412C34.6606 33.0412 34.8492 32.9773 35.0004 32.8494C35.1517 32.7195 35.2657 32.5426 35.3424 32.3189C35.4213 32.0952 35.4607 31.8406 35.4607 31.555C35.4607 31.2695 35.4213 31.0149 35.3424 30.7912C35.2657 30.5675 35.1517 30.3906 35.0004 30.2607C34.8492 30.1307 34.6606 30.0657 34.4347 30.0657C34.2068 30.0657 34.015 30.1307 33.8595 30.2607C33.7061 30.3906 33.5899 30.5675 33.5111 30.7912C33.4344 31.0149 33.396 31.2695 33.396 31.555C33.396 31.8406 33.4344 32.0952 33.5111 32.3189C33.5899 32.5426 33.7061 32.7195 33.8595 32.8494C34.015 32.9773 34.2068 33.0412 34.4347 33.0412ZM39.0914 27.4545V34H37.7298V27.4545H39.0914ZM42.4192 34.0959C41.9142 34.0959 41.4796 33.9936 41.1152 33.7891C40.753 33.5824 40.4739 33.2905 40.2779 32.9134C40.0819 32.5341 39.9838 32.0856 39.9838 31.5678C39.9838 31.0629 40.0819 30.6197 40.2779 30.2383C40.4739 29.8569 40.7498 29.5597 41.1056 29.3466C41.4636 29.1335 41.8833 29.027 42.3649 29.027C42.6887 29.027 42.9902 29.0792 43.2694 29.1836C43.5506 29.2859 43.7956 29.4403 44.0044 29.647C44.2154 29.8537 44.3794 30.1136 44.4966 30.4268C44.6138 30.7379 44.6724 31.1023 44.6724 31.5199V31.8938H40.5272V31.0501H43.3908C43.3908 30.854 43.3482 30.6804 43.263 30.5291C43.1777 30.3778 43.0595 30.2596 42.9082 30.1744C42.7591 30.087 42.5854 30.0433 42.3873 30.0433C42.1806 30.0433 41.9973 30.0913 41.8375 30.1871C41.6799 30.2809 41.5563 30.4077 41.4668 30.5675C41.3773 30.7251 41.3315 30.9009 41.3294 31.0948V31.897C41.3294 32.1399 41.3741 32.3498 41.4636 32.5266C41.5552 32.7035 41.6841 32.8398 41.8503 32.9357C42.0165 33.0316 42.2136 33.0795 42.4416 33.0795C42.5929 33.0795 42.7314 33.0582 42.8571 33.0156C42.9828 32.973 43.0904 32.9091 43.1799 32.8239C43.2694 32.7386 43.3375 32.6342 43.3844 32.5107L44.6436 32.5938C44.5797 32.8963 44.4487 33.1605 44.2505 33.3864C44.0545 33.6101 43.801 33.7848 43.4899 33.9105C43.1809 34.0341 42.824 34.0959 42.4192 34.0959ZM19.3248 40.337C19.2992 40.0792 19.1895 39.8789 18.9956 39.7362C18.8017 39.5934 18.5385 39.522 18.2061 39.522C17.9803 39.522 17.7896 39.554 17.6341 39.6179C17.4785 39.6797 17.3592 39.766 17.2761 39.8768C17.1951 39.9876 17.1547 40.1133 17.1547 40.2539C17.1504 40.3711 17.1749 40.4734 17.2282 40.5607C17.2836 40.6481 17.3592 40.7237 17.4551 40.7876C17.551 40.8494 17.6618 40.9038 17.7875 40.9506C17.9132 40.9954 18.0474 41.0337 18.1902 41.0657L18.7782 41.2063C19.0637 41.2702 19.3258 41.3555 19.5645 41.462C19.8031 41.5685 20.0098 41.6996 20.1845 41.8551C20.3592 42.0107 20.4945 42.1939 20.5904 42.4048C20.6884 42.6158 20.7385 42.8576 20.7406 43.1303C20.7385 43.5309 20.6362 43.8782 20.4338 44.1722C20.2335 44.4641 19.9437 44.6911 19.5645 44.853C19.1873 45.0128 18.7324 45.0927 18.1998 45.0927C17.6713 45.0927 17.2111 45.0117 16.8191 44.8498C16.4292 44.6879 16.1245 44.4482 15.905 44.1307C15.6877 43.8111 15.5737 43.4158 15.563 42.945H16.9022C16.9171 43.1644 16.9799 43.3477 17.0907 43.4947C17.2037 43.6396 17.3539 43.7493 17.5414 43.8239C17.731 43.8963 17.9451 43.9325 18.1838 43.9325C18.4181 43.9325 18.6216 43.8984 18.7942 43.8303C18.9689 43.7621 19.1042 43.6673 19.2001 43.5458C19.296 43.4244 19.3439 43.2848 19.3439 43.1271C19.3439 42.9801 19.3002 42.8565 19.2129 42.7564C19.1277 42.6562 19.002 42.571 18.8358 42.5007C18.6717 42.4304 18.4703 42.3665 18.2317 42.3089L17.519 42.13C16.9672 41.9957 16.5314 41.7859 16.2118 41.5004C15.8922 41.2148 15.7335 40.8303 15.7356 40.3466C15.7335 39.9503 15.839 39.604 16.052 39.3079C16.2672 39.0117 16.5623 38.7805 16.9373 38.6143C17.3123 38.4482 17.7385 38.3651 18.2157 38.3651C18.7015 38.3651 19.1255 38.4482 19.4877 38.6143C19.8521 38.7805 20.1355 39.0117 20.3379 39.3079C20.5403 39.604 20.6447 39.9471 20.6511 40.337H19.3248ZM23.8639 45.0959C23.3675 45.0959 22.9381 44.9904 22.5759 44.7795C22.2158 44.5664 21.9378 44.2702 21.7417 43.891C21.5457 43.5096 21.4477 43.0675 21.4477 42.5646C21.4477 42.0575 21.5457 41.6143 21.7417 41.2351C21.9378 40.8537 22.2158 40.5575 22.5759 40.3466C22.9381 40.1335 23.3675 40.027 23.8639 40.027C24.3604 40.027 24.7886 40.1335 25.1487 40.3466C25.5109 40.5575 25.79 40.8537 25.9861 41.2351C26.1821 41.6143 26.2801 42.0575 26.2801 42.5646C26.2801 43.0675 26.1821 43.5096 25.9861 43.891C25.79 44.2702 25.5109 44.5664 25.1487 44.7795C24.7886 44.9904 24.3604 45.0959 23.8639 45.0959ZM23.8703 44.0412C24.0961 44.0412 24.2847 43.9773 24.436 43.8494C24.5873 43.7195 24.7013 43.5426 24.778 43.3189C24.8568 43.0952 24.8962 42.8406 24.8962 42.555C24.8962 42.2695 24.8568 42.0149 24.778 41.7912C24.7013 41.5675 24.5873 41.3906 24.436 41.2607C24.2847 41.1307 24.0961 41.0657 23.8703 41.0657C23.6423 41.0657 23.4506 41.1307 23.295 41.2607C23.1416 41.3906 23.0255 41.5675 22.9466 41.7912C22.8699 42.0149 22.8316 42.2695 22.8316 42.555C22.8316 42.8406 22.8699 43.0952 22.9466 43.3189C23.0255 43.5426 23.1416 43.7195 23.295 43.8494C23.4506 43.9773 23.6423 44.0412 23.8703 44.0412ZM28.5269 38.4545V45H27.1654V38.4545H28.5269ZM32.7656 42.9098V40.0909H34.1271V45H32.82V44.1083H32.7688C32.658 44.396 32.4737 44.6271 32.2159 44.8018C31.9602 44.9766 31.6481 45.0639 31.2795 45.0639C30.9513 45.0639 30.6626 44.9893 30.4134 44.8402C30.1641 44.6911 29.9691 44.479 29.8285 44.2042C29.69 43.9293 29.6197 43.6001 29.6175 43.2166V40.0909H30.979V42.9737C30.9812 43.2635 31.0589 43.4925 31.2124 43.6609C31.3658 43.8292 31.5714 43.9134 31.8292 43.9134C31.9933 43.9134 32.1467 43.8761 32.2894 43.8015C32.4322 43.7248 32.5472 43.6119 32.6346 43.4627C32.7241 43.3136 32.7678 43.1293 32.7656 42.9098ZM37.8273 40.0909V41.1136H34.871V40.0909H37.8273ZM35.5422 38.9148H36.9037V43.4915C36.9037 43.6172 36.9229 43.7152 36.9612 43.7855C36.9996 43.8537 37.0528 43.9016 37.121 43.9293C37.1913 43.957 37.2723 43.9709 37.3639 43.9709C37.4278 43.9709 37.4917 43.9656 37.5557 43.9549C37.6196 43.9421 37.6686 43.9325 37.7027 43.9261L37.9168 44.9393C37.8486 44.9606 37.7528 44.9851 37.6292 45.0128C37.5056 45.0426 37.3554 45.0607 37.1785 45.0671C36.8504 45.0799 36.5628 45.0362 36.3156 44.9361C36.0706 44.8359 35.8799 44.6804 35.7435 44.4695C35.6072 44.2585 35.54 43.9922 35.5422 43.6705V38.9148ZM38.7142 45V40.0909H40.0757V45H38.7142ZM39.3982 39.4581C39.1958 39.4581 39.0221 39.391 38.8772 39.2567C38.7345 39.1204 38.6631 38.9574 38.6631 38.7678C38.6631 38.5803 38.7345 38.4194 38.8772 38.2852C39.0221 38.1488 39.1958 38.0806 39.3982 38.0806C39.6006 38.0806 39.7732 38.1488 39.9159 38.2852C40.0608 38.4194 40.1333 38.5803 40.1333 38.7678C40.1333 38.9574 40.0608 39.1204 39.9159 39.2567C39.7732 39.391 39.6006 39.4581 39.3982 39.4581ZM43.3844 45.0959C42.888 45.0959 42.4586 44.9904 42.0964 44.7795C41.7363 44.5664 41.4583 44.2702 41.2623 43.891C41.0662 43.5096 40.9682 43.0675 40.9682 42.5646C40.9682 42.0575 41.0662 41.6143 41.2623 41.2351C41.4583 40.8537 41.7363 40.5575 42.0964 40.3466C42.4586 40.1335 42.888 40.027 43.3844 40.027C43.8809 40.027 44.3091 40.1335 44.6692 40.3466C45.0314 40.5575 45.3105 40.8537 45.5066 41.2351C45.7026 41.6143 45.8006 42.0575 45.8006 42.5646C45.8006 43.0675 45.7026 43.5096 45.5066 43.891C45.3105 44.2702 45.0314 44.5664 44.6692 44.7795C44.3091 44.9904 43.8809 45.0959 43.3844 45.0959ZM43.3908 44.0412C43.6167 44.0412 43.8052 43.9773 43.9565 43.8494C44.1078 43.7195 44.2218 43.5426 44.2985 43.3189C44.3773 43.0952 44.4167 42.8406 44.4167 42.555C44.4167 42.2695 44.3773 42.0149 44.2985 41.7912C44.2218 41.5675 44.1078 41.3906 43.9565 41.2607C43.8052 41.1307 43.6167 41.0657 43.3908 41.0657C43.1628 41.0657 42.9711 41.1307 42.8155 41.2607C42.6621 41.3906 42.546 41.5675 42.4672 41.7912C42.3904 42.0149 42.3521 42.2695 42.3521 42.555C42.3521 42.8406 42.3904 43.0952 42.4672 43.3189C42.546 43.5426 42.6621 43.7195 42.8155 43.8494C42.9711 43.9773 43.1628 44.0412 43.3908 44.0412ZM48.0474 42.1619V45H46.6859V40.0909H47.9835V40.957H48.041C48.1497 40.6715 48.3319 40.4457 48.5875 40.2795C48.8432 40.1112 49.1532 40.027 49.5176 40.027C49.8585 40.027 50.1557 40.1016 50.4093 40.2507C50.6628 40.3999 50.8599 40.6129 51.0005 40.8899C51.1412 41.1648 51.2115 41.4929 51.2115 41.8743V45H49.85V42.1172C49.8521 41.8168 49.7754 41.5824 49.6199 41.4141C49.4643 41.2436 49.2502 41.1584 48.9775 41.1584C48.7942 41.1584 48.6323 41.1978 48.4917 41.2766C48.3532 41.3555 48.2445 41.4705 48.1657 41.6218C48.089 41.771 48.0495 41.951 48.0474 42.1619ZM56.3691 41.4908L55.1226 41.5675C55.1013 41.4609 55.0555 41.3651 54.9852 41.2798C54.9149 41.1925 54.8222 41.1232 54.7071 41.0721C54.5942 41.0188 54.4589 40.9922 54.3012 40.9922C54.0903 40.9922 53.9124 41.0369 53.7675 41.1264C53.6226 41.2138 53.5502 41.331 53.5502 41.478C53.5502 41.5952 53.597 41.6942 53.6908 41.7752C53.7845 41.8562 53.9454 41.9212 54.1734 41.9702L55.0619 42.1491C55.5392 42.2472 55.895 42.4048 56.1294 42.6222C56.3637 42.8395 56.4809 43.125 56.4809 43.4787C56.4809 43.8004 56.3861 44.0827 56.1965 44.3256C56.009 44.5685 55.7512 44.7582 55.423 44.8945C55.097 45.0288 54.721 45.0959 54.2948 45.0959C53.645 45.0959 53.1272 44.9606 52.7416 44.69C52.358 44.4173 52.1333 44.0465 52.0672 43.5778L53.4063 43.5075C53.4468 43.7056 53.5448 43.8569 53.7004 43.9613C53.8559 44.0636 54.0551 44.1147 54.298 44.1147C54.5367 44.1147 54.7284 44.0689 54.8733 43.9773C55.0203 43.8835 55.0949 43.7631 55.097 43.6161C55.0949 43.4925 55.0427 43.3913 54.9404 43.3125C54.8382 43.2315 54.6805 43.1697 54.4674 43.1271L53.6173 42.9577C53.1379 42.8619 52.781 42.6957 52.5466 42.4592C52.3144 42.2227 52.1982 41.9212 52.1982 41.5547C52.1982 41.2393 52.2835 40.9677 52.4539 40.7397C52.6265 40.5117 52.8683 40.3359 53.1794 40.2124C53.4926 40.0888 53.8591 40.027 54.2789 40.027C54.8989 40.027 55.3868 40.158 55.7426 40.4201C56.1006 40.6822 56.3094 41.0391 56.3691 41.4908Z" fill="white"/>
</svg>
