<svg width="5" height="6" viewBox="0 0 5 6" fill="none" xmlns="http://www.w3.org/2000/svg">
<path d="M2.05947 0.0106034C0.87049 0.0780139 0.0604021 0.382523 0.00461415 0.7835C-0.0011971 0.82999 0.0011274 0.839288 0.0313459 0.870668C0.0755114 0.917158 0.228928 1.01827 0.33818 1.0729C0.607822 1.20888 0.975093 1.30419 1.43999 1.3623C1.7968 1.40763 2.02925 1.41925 2.49996 1.41925C2.97068 1.41925 3.20313 1.40763 3.55994 1.3623C4.02484 1.30419 4.39211 1.20888 4.66175 1.0729C4.771 1.01827 4.92442 0.917158 4.96858 0.870668C4.9988 0.839288 5.00113 0.82999 4.99532 0.7835C4.93953 0.377874 4.13641 0.0791762 2.91837 0.00944114C2.68941 -0.00334358 2.29308 -0.00334358 2.05947 0.0106034Z" fill="#2E2E2E" fill-opacity="0.3"/>
<path d="M0.0012207 1.7226V2.2735L0.0511975 2.31651C0.272025 2.50595 0.645107 2.65472 1.12628 2.74538C1.27853 2.77443 1.66324 2.81976 1.88407 2.83487C1.99564 2.84184 2.27342 2.84882 2.50006 2.84882C3.30201 2.84882 3.89011 2.77676 4.35966 2.62334C4.60141 2.54314 4.81294 2.43389 4.95008 2.31651L4.9989 2.2735V1.7226C4.9989 1.41925 4.99541 1.17169 4.99192 1.17169C4.98727 1.17169 4.95357 1.19029 4.91638 1.21237C4.42939 1.50874 3.61466 1.65983 2.50006 1.65983C1.38546 1.65983 0.570723 1.50874 0.0837405 1.21237C0.0465485 1.19029 0.0128432 1.17169 0.0081942 1.17169C0.00470745 1.17169 0.0012207 1.41925 0.0012207 1.7226Z" fill="#2E2E2E" fill-opacity="0.3"/>
<path d="M0.0012207 3.14635V3.70307L0.0570087 3.74956C0.477743 4.10056 1.29132 4.27606 2.50006 4.27606C3.18346 4.27606 3.67742 4.22841 4.1214 4.11916C4.48286 4.02966 4.7525 3.90879 4.94427 3.74956L4.9989 3.70307V3.14635V2.58964L4.92102 2.63845C4.55492 2.86277 3.97495 3.00921 3.20903 3.06848C2.9545 3.08824 2.04562 3.08824 1.79109 3.06848C1.02516 3.00921 0.4452 2.86277 0.0802537 2.63845L0.0012207 2.58964V3.14635Z" fill="#2E2E2E" fill-opacity="0.3"/>
<path d="M0.00348675 4.61427L0.0069735 5.21051L0.0395165 5.27211C0.0999535 5.38717 0.19642 5.47434 0.369596 5.56964C0.930962 5.8788 2.17457 6.02292 3.28684 5.90786C4.19689 5.81371 4.79544 5.58591 4.96048 5.27211L4.99303 5.21051L4.99651 4.61427L5 4.0192L4.92097 4.06685C4.55253 4.29349 3.9563 4.4411 3.18573 4.49805C2.91957 4.51781 2.08043 4.51781 1.81427 4.49805C1.0437 4.4411 0.447466 4.29349 0.079033 4.06685L0 4.0192L0.00348675 4.61427Z" fill="#2E2E2E" fill-opacity="0.3"/>
</svg>
