<svg width="14" height="10" viewBox="0 0 14 10" fill="none" xmlns="http://www.w3.org/2000/svg">
<path d="M6.19531 0.627837V1.25568H6.89585H7.59638V0.627837V-1.54972e-06H6.89585H6.19531V0.627837Z" fill="white"/>
<path d="M2.81152 2.3197V2.94754H3.51206H4.2126V2.3197V1.69186H3.51206H2.81152V2.3197Z" fill="white"/>
<path d="M4.50342 2.3197V2.94754H5.20395H5.90449V2.3197V1.69186H5.20395H4.50342V2.3197Z" fill="white"/>
<path d="M6.19531 2.3197V2.94754H6.89585H7.59638V2.3197V1.69186H6.89585H6.19531V2.3197Z" fill="white"/>
<path d="M10.4486 2.92639C10.2926 3.09558 10.2107 3.25683 10.142 3.52912C10.0785 3.7829 10.064 3.94019 10.0759 4.2627C10.0904 4.69227 10.0865 4.85617 10.0561 4.91433C10.0256 4.97381 9.96881 5.02932 9.91594 5.05047C9.88422 5.06369 8.88893 5.06765 5.22367 5.07294L0.569739 5.07823H0.307311H0C0 5.07823 0.010632 5.73118 0.0172408 5.86203C0.038389 6.26253 0.138843 6.79388 0.268376 7.19305C0.678124 8.45534 1.49894 9.29863 2.7295 9.72027C3.53182 9.9952 4.44383 10.0666 5.50785 9.93836C6.88249 9.77446 8.19104 9.25104 9.31454 8.41569C10.1658 7.78388 10.9126 6.96306 11.4161 6.1092C11.4518 6.0484 11.4822 6.01139 11.5007 6.00743C11.9739 5.91226 12.2555 5.81313 12.5634 5.63469C12.8185 5.48797 13.0644 5.28178 13.2323 5.0769C13.3089 4.98306 13.5045 4.67244 13.5045 4.64469C13.5045 4.609 13.0565 4.4266 12.7498 4.33804C12.3956 4.23362 12.1616 4.19793 11.8788 4.20454L11.6831 4.20983L11.6541 4.10805C11.5536 3.7591 11.2655 3.35597 10.9007 3.05196C10.8161 2.98058 10.5781 2.81536 10.5623 2.81536C10.5557 2.81536 10.5041 2.86559 10.4486 2.92639Z" fill="white"/>
<path d="M1.11621 4.01157V4.6394H1.81675H2.51728V4.01157V3.38373H1.81675H1.11621V4.01157Z" fill="white"/>
<path d="M2.81152 4.01157V4.6394H3.51206H4.2126V4.01157V3.38373H3.51206H2.81152V4.01157Z" fill="white"/>
<path d="M4.50342 4.01157V4.6394H5.20395H5.90449V4.01157V3.38373H5.20395H4.50342V4.01157Z" fill="white"/>
<path d="M6.19531 4.01157V4.6394H6.89585H7.59638V4.01157V3.38373H6.89585H6.19531V4.01157Z" fill="white"/>
<path d="M7.88696 4.01157V4.6394H8.5875H9.28804V4.01157V3.38373H8.5875H7.88696V4.01157Z" fill="white"/>
</svg>
