<svg width="13" height="10" viewBox="0 0 13 10" fill="none" xmlns="http://www.w3.org/2000/svg">
<path d="M5.96387 0.604322V1.20871H6.63823H7.31259V0.604322V-6.47306e-05H6.63823H5.96387V0.604322Z" fill="white"/>
<path d="M2.70654 2.23292V2.83731H3.38091H4.05527V2.23292V1.62854H3.38091H2.70654V2.23292Z" fill="white"/>
<path d="M4.33521 2.23292V2.83731H5.00957H5.68393V2.23292V1.62854H5.00957H4.33521V2.23292Z" fill="white"/>
<path d="M5.96387 2.23292V2.83731H6.63823H7.31259V2.23292V1.62854H6.63823H5.96387V2.23292Z" fill="white"/>
<path d="M10.0582 2.81692C9.90811 2.97979 9.82922 3.13502 9.76306 3.39714C9.70198 3.64144 9.68799 3.79285 9.69944 4.10331C9.71343 4.51684 9.70962 4.67462 9.68035 4.73061C9.65109 4.78786 9.59637 4.8413 9.54548 4.86166C9.51494 4.87439 8.55684 4.8782 5.02852 4.88329L0.548453 4.88838H0.295829H0C0 4.88838 0.0102347 5.51694 0.0165967 5.64291C0.0369548 6.02845 0.133656 6.53995 0.25835 6.92421C0.652789 8.13935 1.44294 8.95114 2.62753 9.35703C3.39987 9.62169 4.27781 9.6904 5.30208 9.56697C6.62536 9.4092 7.88502 8.90533 8.96654 8.10118C9.78596 7.49297 10.5049 6.70282 10.9896 5.88085C11.024 5.82232 11.0533 5.78669 11.0711 5.78287C11.5266 5.69126 11.7976 5.59583 12.0941 5.42406C12.3396 5.28282 12.5763 5.08433 12.7379 4.88711C12.8117 4.79677 13 4.49776 13 4.47104C13 4.43668 12.5687 4.26109 12.2735 4.17584C11.9325 4.07532 11.7073 4.04097 11.435 4.04733L11.2467 4.05242L11.2187 3.95444C11.122 3.61853 10.8446 3.23045 10.4934 2.9378C10.412 2.86909 10.1829 2.71004 10.1677 2.71004C10.1613 2.71004 10.1117 2.75839 10.0582 2.81692Z" fill="white"/>
<path d="M1.07458 3.86152V4.46591H1.74895H2.42331V3.86152V3.25714H1.74895H1.07458V3.86152Z" fill="white"/>
<path d="M2.70654 3.86152V4.46591H3.38091H4.05527V3.86152V3.25714H3.38091H2.70654V3.86152Z" fill="white"/>
<path d="M4.33521 3.86152V4.46591H5.00957H5.68393V3.86152V3.25714H5.00957H4.33521V3.86152Z" fill="white"/>
<path d="M5.96387 3.86152V4.46591H6.63823H7.31259V3.86152V3.25714H6.63823H5.96387V3.86152Z" fill="white"/>
<path d="M7.59229 3.86152V4.46591H8.26665H8.94101V3.86152V3.25714H8.26665H7.59229V3.86152Z" fill="white"/>
</svg>
