<svg width="10" height="8" viewBox="0 0 10 8" fill="none" xmlns="http://www.w3.org/2000/svg">
<path d="M0.730043 0.00658178C0.708553 0.010489 0.647989 0.0280719 0.59524 0.0456548L0.501465 0.0749598L1.55253 1.12993C3.32645 2.90581 4.4713 4.0233 4.57679 4.08191C4.83858 4.22648 5.15898 4.22648 5.42077 4.08191C5.52627 4.0233 6.67111 2.90581 8.44504 1.12993L9.4961 0.0769134L9.40233 0.039794C9.3105 0.00462818 9.16789 0.0026741 5.03786 0.000720501C2.68956 -0.0012331 0.751533 0.000720501 0.730043 0.00658178Z" fill="#5D5D5D"/>
<path d="M0.0442017 0.592561C0.0090359 0.682429 0.00708224 0.813324 0.00122127 3.45076C-0.00268605 6.21323 -0.000732387 6.31678 0.0617846 6.46721L0.0852285 6.52191L1.59931 5.0176L3.1134 3.51133L2.25379 2.64976C1.781 2.17502 1.09918 1.4971 0.73775 1.14349L0.0793676 0.500739L0.0442017 0.592561Z" fill="#5D5D5D"/>
<path d="M8.39604 2.00323L6.88391 3.5095L8.39604 5.01577C9.52135 6.13326 9.91403 6.51423 9.92576 6.49274C9.93357 6.47711 9.95311 6.41264 9.97069 6.35012C9.99609 6.25048 9.99999 5.88515 9.99999 3.5095C9.99999 1.13385 9.99609 0.768521 9.97069 0.668885C9.95311 0.606368 9.93357 0.541897 9.92576 0.526268C9.91403 0.504777 9.52135 0.885741 8.39604 2.00323Z" fill="#5D5D5D"/>
<path d="M2.00749 5.43966L0.495361 6.94203L0.602812 6.97915C0.706356 7.01431 0.829437 7.01627 4.99854 7.01627C9.13834 7.01627 9.29073 7.01431 9.39232 6.97915L9.49586 6.94398L8.64016 6.08437C8.16737 5.61159 7.48555 4.93562 7.12217 4.58006L6.46378 3.93339L6.19418 4.19518C6.04766 4.33976 5.87378 4.49214 5.81126 4.53317C5.4049 4.80277 4.87937 4.85161 4.43003 4.66406C4.23075 4.58006 4.09204 4.47651 3.80486 4.19714C3.65833 4.05648 3.5333 3.93926 3.52744 3.93926C3.52353 3.93926 2.8378 4.61522 2.00749 5.43966Z" fill="#5D5D5D"/>
</svg>
