<svg width="5" height="5" viewBox="0 0 5 5" fill="none" xmlns="http://www.w3.org/2000/svg">
<path opacity="0.997" fill-rule="evenodd" clip-rule="evenodd" d="M5 0.537367C5 1.4651 5 2.39284 5 3.32057C4.93951 3.58779 4.77675 3.75868 4.51172 3.83327C3.84149 3.84457 3.17092 3.84946 2.5 3.84791C1.82908 3.84946 1.15851 3.84457 0.488281 3.83327C0.223248 3.75868 0.0604877 3.58779 0 3.32057C0 2.39284 0 1.4651 0 0.537367C0.0657258 0.25842 0.238252 0.0842669 0.517578 0.0149056C1.17818 0.00366338 1.83898 -0.00121943 2.5 0.000257129C3.16102 -0.00121943 3.82182 0.00366338 4.48242 0.0149056C4.76175 0.0842669 4.93428 0.25842 5 0.537367Z" fill="#2E2E2E" fill-opacity="0.3"/>
<path opacity="0.968" fill-rule="evenodd" clip-rule="evenodd" d="M1.8555 4.07252C2.28519 4.07252 2.71487 4.07252 3.14456 4.07252C3.14456 4.18971 3.14456 4.3069 3.14456 4.42408C3.46093 4.41942 3.77668 4.4243 4.09183 4.43873C4.19128 4.50297 4.21569 4.58923 4.16507 4.69752C4.13261 4.74937 4.0854 4.77703 4.02347 4.78053C3.00784 4.78704 1.99222 4.78704 0.976594 4.78053C0.868923 4.76876 0.813585 4.70854 0.810578 4.59986C0.809396 4.52573 0.841948 4.47202 0.908234 4.43873C1.22338 4.4243 1.53913 4.41942 1.8555 4.42408C1.8555 4.3069 1.8555 4.18971 1.8555 4.07252Z" fill="#2E2E2E" fill-opacity="0.3"/>
</svg>
