<svg width="10" height="12" viewBox="0 0 10 12" fill="none" xmlns="http://www.w3.org/2000/svg">
<path d="M1.65344 0.385677C1.47368 0.884409 1.45398 1.69866 1.61404 2.09561C1.64359 2.16686 1.64112 2.17958 1.59926 2.2203C1.57218 2.24574 1.49584 2.34243 1.43182 2.43404C1.06983 2.94295 0.912235 3.46967 0.912235 4.17451C0.912235 6.2076 1.85536 7.33993 3.79332 7.63764C3.94845 7.66308 4.09128 7.68599 4.10851 7.69107C4.12821 7.69616 4.0962 7.75469 4.02479 7.84629C3.88443 8.02187 3.78101 8.25087 3.72683 8.49515C3.6899 8.67073 3.68743 8.67327 3.57416 8.72416C3.5126 8.75215 3.3944 8.79032 3.31314 8.80813C2.60149 8.97862 2.06467 8.75724 1.65097 8.1211C1.34563 7.65291 1.03043 7.41372 0.629052 7.34502C0.419742 7.30939 0.19812 7.37809 0.19812 7.47479C0.19812 7.52059 0.343406 7.66308 0.505928 7.77759C0.826049 8.00151 1.00827 8.24833 1.26929 8.80813C1.42197 9.13638 1.45151 9.17963 1.6362 9.36793C1.78149 9.51806 1.88491 9.59694 2.02281 9.66819C2.40695 9.86157 2.85019 9.92519 3.35993 9.85394C3.52245 9.83358 3.66035 9.82086 3.66773 9.82849C3.69728 9.85648 3.69975 11.0448 3.67266 11.1364C3.64065 11.2484 3.58155 11.3069 3.45596 11.3527C3.37716 11.3832 3.60617 11.3858 4.99993 11.3756C6.83446 11.3629 7.54119 11.3425 7.42546 11.312C7.33188 11.2865 7.2457 11.2051 7.22846 11.1288C7.22353 11.0982 7.21368 10.5232 7.20876 9.8514C7.20137 8.69871 7.19891 8.61983 7.14966 8.43408C7.08317 8.19235 6.99699 8.00914 6.85663 7.82594L6.75074 7.68344L6.97729 7.65291C7.46485 7.58929 8.06816 7.41372 8.40798 7.23814C9.292 6.78267 9.81158 5.96842 9.95194 4.81319C9.99873 4.43405 9.99134 3.81573 9.93963 3.54601C9.85591 3.09817 9.66876 2.67832 9.39789 2.3348L9.26492 2.16177L9.3117 1.9862C9.43975 1.51291 9.39789 0.810616 9.2132 0.311885L9.18365 0.238093L8.9448 0.250816C8.75765 0.260994 8.6493 0.283895 8.43999 0.355143C8.15188 0.456924 7.70371 0.680844 7.41807 0.871686L7.23831 0.988735L6.93789 0.922577C6.47494 0.818251 6.15975 0.780082 5.66479 0.76227C5.02209 0.741914 4.51728 0.79535 3.79332 0.960746L3.65542 0.991281L3.51014 0.897131C2.89206 0.487459 2.28875 0.245728 1.87998 0.245728H1.70269L1.65344 0.385677Z" fill="white"/>
</svg>
