<svg width="12" height="12" viewBox="0 0 12 12" fill="none" xmlns="http://www.w3.org/2000/svg">
<rect width="12" height="12" rx="5" fill="white"/>
<path fill-rule="evenodd" clip-rule="evenodd" d="M2.5 0C1.11929 0 0 1.11929 0 2.5V9.5C0 10.8807 1.11929 12 2.5 12H9.5C10.8807 12 12 10.8807 12 9.5V2.5C12 1.11929 10.8807 0 9.5 0H2.5ZM2.49344 2.85749C2.34077 2.49108 2.35956 1.73946 2.53102 1.27909L2.578 1.14991H2.74711C3.13701 1.14991 3.71247 1.37304 4.30202 1.7512L4.4406 1.83811L4.57214 1.80992C5.26269 1.65725 5.7442 1.60792 6.35724 1.62671C6.82935 1.64316 7.13 1.67839 7.57157 1.77469L7.85813 1.83576L8.02959 1.72771C8.30205 1.55155 8.72954 1.34486 9.00435 1.2509C9.204 1.18514 9.30735 1.164 9.48586 1.1546L9.71369 1.14286L9.74188 1.21097C9.91804 1.67134 9.95797 2.31962 9.83583 2.75649L9.7912 2.91856L9.91804 3.07828C10.1764 3.39537 10.3549 3.78293 10.4348 4.19632C10.4841 4.44529 10.4911 5.01605 10.4465 5.36603C10.3126 6.43239 9.81704 7.18401 8.97381 7.60444C8.64968 7.76651 8.07422 7.92858 7.60915 7.9873L7.39306 8.01549L7.49406 8.14702C7.62794 8.31614 7.71015 8.48525 7.77357 8.70839C7.82055 8.87985 7.8229 8.95266 7.82994 10.0167C7.83464 10.6368 7.84403 11.1676 7.84873 11.1958C7.86517 11.2662 7.94738 11.3414 8.03664 11.3649C8.14703 11.3931 7.47292 11.4119 5.72306 11.4236C4.39363 11.433 4.17519 11.4307 4.25035 11.4025C4.37014 11.3602 4.42651 11.3062 4.45705 11.2028C4.48288 11.1183 4.48053 10.0214 4.45235 9.99554C4.4453 9.98849 4.31377 10.0002 4.15875 10.019C3.67254 10.0848 3.24976 10.0261 2.88334 9.84756C2.75181 9.78179 2.65316 9.70898 2.51458 9.5704C2.33842 9.39659 2.31023 9.35666 2.1646 9.05366C1.91563 8.53692 1.74182 8.30909 1.43647 8.10239C1.28145 7.9967 1.14287 7.86516 1.14287 7.82288C1.14287 7.73363 1.35426 7.67021 1.55391 7.70309C1.93677 7.76651 2.23742 7.9873 2.52867 8.41948C2.92327 9.00669 3.43531 9.21103 4.11412 9.05366C4.19163 9.03722 4.30437 9.00199 4.36309 8.97615C4.47114 8.92918 4.47349 8.92683 4.50872 8.76476C4.56039 8.53927 4.65904 8.32788 4.79293 8.16581C4.86104 8.08125 4.89158 8.02723 4.87279 8.02253C4.85904 8.0186 4.76152 8.00318 4.64341 7.9845C4.62029 7.98084 4.59637 7.97705 4.57214 7.97321C2.72362 7.6984 1.82403 6.65318 1.82403 4.77647C1.82403 4.12585 1.97435 3.63965 2.31963 3.16989C2.3807 3.08533 2.45351 2.99607 2.47935 2.97258C2.51928 2.935 2.52162 2.92326 2.49344 2.85749Z" fill="#2E2E2E"/>
</svg>
