<svg width="21" height="21" viewBox="0 0 21 21" fill="none" xmlns="http://www.w3.org/2000/svg">
<path fill-rule="evenodd" clip-rule="evenodd" d="M2.5 0C1.11929 0 0 1.11929 0 2.5V18.5C0 19.8807 1.11929 21 2.5 21H18.5C19.8807 21 21 19.8807 21 18.5V2.5C21 1.11929 19.8807 0 18.5 0H2.5ZM4.36349 5.00061C4.09632 4.35938 4.1292 3.04405 4.42926 2.23841L4.51147 2.01233H4.80742C5.48975 2.01233 6.4968 2.40282 7.52852 3.0646L7.77103 3.21669L8.00122 3.16736C9.20968 2.90018 10.0523 2.81386 11.1251 2.84675C11.9513 2.87552 12.4775 2.93718 13.2502 3.1057L13.7517 3.21258L14.0518 3.0235C14.5286 2.71521 15.2767 2.3535 15.7576 2.18908C16.107 2.07399 16.2878 2.03699 16.6002 2.02055L16.9989 2L17.0483 2.1192C17.3565 2.92484 17.4264 4.05932 17.2127 4.82386L17.1346 5.10748L17.3565 5.38699C17.8087 5.9419 18.1211 6.62012 18.2608 7.34355C18.3472 7.77926 18.3595 8.77809 18.2814 9.39054C18.0471 11.2567 17.1798 12.572 15.7042 13.3078C15.1369 13.5914 14.1299 13.875 13.316 13.9778L12.9378 14.0271L13.1146 14.2573C13.3489 14.5532 13.4927 14.8492 13.6037 15.2397C13.6859 15.5397 13.69 15.6672 13.7024 17.5292C13.7106 18.6143 13.727 19.5433 13.7353 19.5926C13.764 19.7159 13.9079 19.8475 14.0641 19.8886C14.2573 19.9379 13.0776 19.9708 10.0153 19.9913C7.68883 20.0078 7.30656 20.0037 7.43809 19.9543C7.64772 19.8803 7.74637 19.7858 7.79981 19.6049C7.84502 19.457 7.84091 17.5374 7.79159 17.4922C7.77925 17.4799 7.54907 17.5004 7.27778 17.5333C6.42693 17.6484 5.68705 17.5456 5.04582 17.2332C4.81564 17.1181 4.643 16.9907 4.40049 16.7482C4.09221 16.444 4.04288 16.3742 3.78803 15.8439C3.35233 14.9396 3.04816 14.5409 2.5138 14.1792C2.24251 13.9942 2 13.764 2 13.69C2 13.5338 2.36994 13.4229 2.71932 13.4804C3.38932 13.5914 3.91546 13.9778 4.42515 14.7341C5.1157 15.7617 6.01177 16.1193 7.19969 15.8439C7.33533 15.8151 7.53263 15.7535 7.63539 15.7083C7.82447 15.6261 7.82858 15.6219 7.89024 15.3383C7.98067 14.9437 8.1533 14.5738 8.3876 14.2902C8.5068 14.1422 8.56024 14.0477 8.52735 14.0394C8.50329 14.0326 8.33265 14.0056 8.12598 13.9729C8.08549 13.9665 8.04363 13.9598 8.00122 13.9531C4.76631 13.4722 3.19202 11.6431 3.19202 8.35883C3.19202 7.22024 3.45509 6.36938 4.05932 5.5473C4.16619 5.39932 4.29362 5.24312 4.33883 5.20202C4.40871 5.13625 4.41282 5.1157 4.36349 5.00061Z" fill="#2E2E2E"/>
</svg>
