<svg width="9" height="8" viewBox="0 0 9 8" fill="none" xmlns="http://www.w3.org/2000/svg">
<path d="M2.4048 2.19048V7.16667H0.833374V2.19048H2.4048ZM0.833374 0.74215C0.833374 0.375484 1.14766 0.0952454 1.61909 0.0952454C2.09052 0.0952454 2.38647 0.375484 2.4048 0.74215C2.4048 1.10882 2.11147 1.40477 1.61909 1.40477C1.14766 1.40477 0.833374 1.10882 0.833374 0.74215ZM8.16671 7.16667H6.59528C6.59528 7.16667 6.59528 4.74144 6.59528 4.54763C6.59528 4.02382 6.33337 3.50001 5.67861 3.48953H5.65766C5.02385 3.48953 4.76195 4.02906 4.76195 4.54763C4.76195 4.78596 4.76195 7.16667 4.76195 7.16667H3.19052V2.19048H4.76195V2.86096C4.76195 2.86096 5.26742 2.19048 6.28361 2.19048C7.32337 2.19048 8.16671 2.90548 8.16671 4.35382V7.16667Z" fill="#0E44B9"/>
</svg>
