<svg width="22" height="16" viewBox="0 0 22 16" fill="none" xmlns="http://www.w3.org/2000/svg">
<path d="M1.60602 0.0145092C1.55874 0.0231047 1.4255 0.0617876 1.30946 0.10047L1.10315 0.164941L3.4155 2.48589C7.31814 6.39282 9.8368 8.85131 10.0689 8.98025C10.6448 9.29831 11.3497 9.29831 11.9257 8.98025C12.1578 8.85131 14.6764 6.39282 18.579 2.48589L20.8914 0.169239L20.6851 0.0875759C20.4831 0.010211 20.1693 0.00591278 11.0832 0.00161457C5.91697 -0.00268364 1.6533 0.00161457 1.60602 0.0145092Z" fill="white"/>
<path d="M0.097244 1.30379C0.019879 1.5015 0.015581 1.78947 0.0026868 7.59184C-0.00590931 13.6693 -0.00161125 13.8971 0.135927 14.228L0.187503 14.3484L3.5185 11.0389L6.84949 7.72508L4.95835 5.82964C3.91822 4.78521 2.41819 3.29379 1.62305 2.51584L0.174609 1.10178L0.097244 1.30379Z" fill="white"/>
<path d="M18.4713 4.40714L15.1447 7.72094L18.4713 11.0347C20.947 13.4932 21.8109 14.3313 21.8367 14.2841C21.8539 14.2497 21.8969 14.1078 21.9356 13.9703C21.9915 13.7511 22.0001 12.9474 22.0001 7.72094C22.0001 2.4945 21.9915 1.69076 21.9356 1.47156C21.8969 1.33403 21.8539 1.19219 21.8367 1.15781C21.8109 1.11053 20.947 1.94865 18.4713 4.40714Z" fill="white"/>
<path d="M4.41654 11.9674L1.08984 15.2726L1.32624 15.3542C1.55403 15.4316 1.82481 15.4359 10.9969 15.4359C20.1044 15.4359 20.4397 15.4316 20.6632 15.3542L20.891 15.2769L19.0084 13.3857C17.9683 12.3456 16.4683 10.8585 15.6689 10.0762L14.2204 8.65356L13.6273 9.2295C13.3049 9.54756 12.9224 9.88281 12.7849 9.97307C11.8909 10.5662 10.7347 10.6737 9.74613 10.261C9.30773 10.0762 9.00257 9.84842 8.37075 9.2338C8.0484 8.92434 7.77332 8.66646 7.76043 8.66646C7.75183 8.66646 6.24321 10.1536 4.41654 11.9674Z" fill="white"/>
</svg>
