<?xml version="1.0" standalone="no"?>
<!DOCTYPE svg PUBLIC "-//W3C//DTD SVG 20010904//EN"
 "http://www.w3.org/TR/2001/REC-SVG-20010904/DTD/svg10.dtd">
<svg version="1.0" xmlns="http://www.w3.org/2000/svg"
 width="512.000000pt" height="512.000000pt" viewBox="0 0 512.000000 512.000000"
 preserveAspectRatio="xMidYMid meet">

<g transform="translate(0.000000,512.000000) scale(0.100000,-0.100000)"
fill="#000000" stroke="none">
<path d="M2345 4984 c-16 -2 -73 -9 -125 -15 -358 -40 -669 -179 -891 -398
-180 -178 -221 -420 -107 -634 143 -268 412 -300 705 -84 134 99 230 145 358
172 94 19 271 19 353 0 137 -33 246 -116 300 -233 23 -49 27 -70 27 -147 0
-79 -3 -97 -29 -147 -44 -88 -113 -156 -279 -281 -287 -216 -434 -409 -520
-682 -94 -298 -38 -707 118 -874 59 -63 113 -85 195 -79 124 9 199 99 273 329
75 231 153 365 294 500 37 36 167 139 288 229 236 176 390 317 465 429 235
351 254 762 51 1148 -199 376 -525 620 -961 717 -202 45 -396 63 -515 50z"/>
<path d="M2370 1194 c-248 -53 -400 -246 -400 -509 0 -375 303 -619 673 -540
137 29 271 125 344 247 70 115 91 295 53 443 -24 93 -56 151 -124 223 -117
124 -343 180 -546 136z"/>
</g>
</svg>
