<svg width="3" height="5" viewBox="0 0 3 5" fill="none" xmlns="http://www.w3.org/2000/svg">
<path d="M0.608213 0.0149031C0.421663 0.0598316 0.261484 0.213174 0.213625 0.394841C0.202881 0.434886 0.199951 0.81287 0.199951 2.49964C0.199951 3.87581 0.203858 4.57025 0.210695 4.59955C0.252693 4.78415 0.43436 4.95507 0.623841 4.98926C0.662909 4.99609 0.977408 5 1.56636 5C2.53818 5 2.52841 5 2.64952 4.94042C2.72766 4.90233 2.83119 4.79978 2.87319 4.72066C2.93863 4.5976 2.93472 4.74606 2.93472 2.48987C2.93472 0.277637 2.93765 0.393864 2.88491 0.289357C2.83803 0.19657 2.74524 0.10476 2.64952 0.0559244C2.53623 -0.00170088 2.55088 -0.000724316 1.56538 0.000252724C0.832855 0.00122929 0.653142 0.00318241 0.608213 0.0149031ZM1.11512 0.321588C1.1454 0.332332 1.16689 0.36554 1.16689 0.400701C1.16689 0.430979 1.12391 0.468094 1.08875 0.468094C1.05359 0.468094 1.01062 0.430979 1.01062 0.400701C1.01062 0.367493 1.0321 0.332332 1.05847 0.322565C1.07215 0.317681 1.08387 0.312798 1.08485 0.312798C1.08582 0.311821 1.0995 0.316705 1.11512 0.321588ZM1.86621 0.334285C1.88574 0.350889 1.89258 0.366517 1.89258 0.389957C1.89258 0.413398 1.88574 0.429026 1.86621 0.44563C1.83984 0.468094 1.83886 0.468094 1.5732 0.468094C1.31828 0.468094 1.30558 0.467117 1.28019 0.447583C1.26065 0.431956 1.25479 0.419259 1.25479 0.389957C1.25479 0.360656 1.26065 0.347959 1.28019 0.332332C1.30558 0.312798 1.31828 0.311821 1.5732 0.311821C1.83886 0.311821 1.83984 0.311821 1.86621 0.334285ZM2.70031 2.4801V4.21864H1.58687H0.473428V2.4801V0.741571H1.58687H2.70031V2.4801ZM1.65036 4.39933C1.73533 4.43449 1.78612 4.51262 1.78612 4.60932C1.78612 4.75094 1.67184 4.85545 1.53315 4.8408C1.47162 4.83494 1.43548 4.81736 1.39348 4.77438C1.34563 4.72555 1.32804 4.68062 1.32804 4.60932C1.32902 4.48821 1.39544 4.41105 1.52339 4.38175C1.54976 4.37491 1.61422 4.3837 1.65036 4.39933Z" fill="#2E2E2E" fill-opacity="0.3"/>
</svg>
