<svg width="318" height="195" viewBox="0 0 318 195" fill="none" xmlns="http://www.w3.org/2000/svg">
<path fill-rule="evenodd" clip-rule="evenodd" d="M72.7596 0.656558C75.1256 -1.70927 78.7557 2.73176 78.2371 7.36652C78.1398 8.37128 77.9456 10.1857 77.8484 11.4495C77.7188 12.8432 77.3944 14.0431 77.0379 14.5941C76.1954 15.7607 76.2604 16.0526 77.492 16.3118C78.0432 16.4416 79.6639 17.1215 81.0574 17.8021C83.8446 19.1957 84.2332 19.2608 85.2703 18.6126C85.6592 18.3533 87.2797 18.0946 88.9002 17.9974C90.5207 17.9001 92.3361 17.608 92.9519 17.3812C93.665 17.1219 95.0587 16.9921 96.5496 17.0569C98.948 17.1542 99.0128 17.1871 99.4666 18.1595C99.8231 18.9371 100.277 19.2612 101.314 19.5853C102.092 19.8122 103.323 20.5577 104.134 21.303C105.689 22.7289 106.273 22.8909 106.888 22.1458C107.699 21.1735 105.171 18.224 103.064 17.7054C101.476 17.3165 100.796 16.4415 101.573 15.7933C102.189 15.3071 102.676 14.1077 102.838 12.7464C103 11.6768 104.037 10.6718 106.76 9.01886L108.444 8.01398L110.097 8.56574C111.005 8.85736 111.847 9.21319 111.945 9.37531C112.042 9.53735 112.69 9.66727 113.371 9.6673C114.959 9.6673 115.251 10.1532 114.344 11.1253C113.63 11.8708 113.631 11.9361 114.149 12.7464C115.089 14.2047 116.061 13.7834 118.168 10.9964C118.654 10.3482 119.4 9.89418 120.275 9.6673C121.021 9.44041 122.058 9.08377 122.544 8.82453C123.062 8.56528 123.613 8.37042 123.775 8.37042C123.97 8.37051 124.066 9.34338 124.034 10.6722C123.969 12.4869 124.067 13.0381 124.488 13.265C124.812 13.4594 125.007 14.0104 124.974 14.8206C124.974 15.5012 125.136 16.6032 125.363 17.2191C125.752 18.4507 127.341 20.0384 128.183 20.0384C128.54 20.0385 128.604 20.2338 128.442 20.7523C128.286 21.2106 128.173 21.8386 128.105 22.4925C130.481 23.2179 130.456 23.1057 131.278 22.6429C131.782 22.3123 132.833 22.0753 133.611 22.0833C134.911 22.0536 135.005 22.1232 135.557 23.3528C136.344 25.0814 137.145 25.2849 140.456 24.6458C142.358 24.258 143.693 24.1985 144.916 24.3919C146.428 24.6328 147.05 24.5347 149.135 23.7669C150.458 23.2841 152.002 22.9101 152.52 22.9368C153.459 22.9857 153.488 23.0524 153.245 23.9808C152.92 25.2296 153.388 26.2278 154.327 26.2767C155.362 26.3305 155.602 26.083 156.756 23.8714C157.331 22.7978 157.961 21.9226 158.123 21.931C158.446 21.9478 158.363 22.3001 157.336 24.5833C156.854 25.7265 156.765 26.2086 157 26.6751C157.358 27.2779 159.344 27.771 159.371 27.2532C159.379 27.0914 159.85 26.7917 160.38 26.5921C161.868 26.053 162.446 24.9143 161.966 23.5589C161.455 22.1369 161.356 18.4317 161.784 16.4417C162.21 14.4841 163.147 13.9486 166.063 14.0355C168.753 14.1105 168.753 14.1101 167.884 13.3509C166.766 12.3842 167.568 12.5558 168.911 13.5667C169.535 14.0535 170.196 14.445 170.358 14.4534C170.52 14.4623 171.273 14.9554 172.086 15.5491C173.805 16.807 174.81 16.8268 175.525 15.5657C175.779 15.0597 176.29 14.6 176.617 14.5521C177.077 14.4461 177.255 14.1305 177.296 13.3538C177.388 11.5738 178.03 10.4711 179.29 9.95246C180.916 9.25819 181.591 9.39077 182.537 10.5433C183.48 11.7606 183.738 11.8066 184.012 10.9124C184.324 9.89013 185.012 10.3801 185.012 11.6458C185.035 13.0751 185.81 16.2637 186.209 16.7064C186.547 17.0809 189.384 17.4553 192.979 17.5775C195.441 17.6732 199.923 18.8472 201.656 19.846C202.697 20.4194 202.865 20.9479 202.761 22.9544C202.693 24.2491 202.804 24.6119 203.338 24.9642C203.999 25.3555 206.755 25.4019 208.105 25.0179C208.632 24.883 208.823 24.9578 208.804 25.3138C208.761 26.1553 210.264 27.8243 211.473 28.2767C212.077 28.5352 213.169 28.754 213.848 28.7894C214.659 28.7991 215.199 29.022 215.377 29.3558C215.581 29.7883 216.127 29.9141 217.943 29.9437C218.316 29.954 218.66 29.974 218.962 30.0003H271C276.523 30.0003 281 34.4775 281 40.0003V87.0677C281.214 86.9815 281.402 86.8999 281.544 86.8245C282.062 86.5653 282.613 86.3704 282.775 86.3704C282.97 86.3705 283.066 87.3434 283.034 88.6722C282.969 90.4869 283.067 91.0381 283.488 91.265C283.812 91.4594 284.007 92.0104 283.974 92.8206C283.974 93.5012 284.136 94.6032 284.363 95.2191C284.752 96.4507 286.341 98.0384 287.183 98.0384C287.54 98.0385 287.604 98.2338 287.442 98.7523C286.989 100.081 286.892 102.835 287.248 103.516C287.572 104.067 287.929 104.197 289.225 104.197C291.235 104.197 291.753 104.392 292.271 105.461C293.179 107.244 294.119 111.781 294.087 114.244C294.022 117.842 294.249 120.695 294.605 121.051C295.027 121.472 298.17 122.412 299.596 122.509C300.861 122.574 301.314 123.287 300.277 123.546C299.37 123.773 299.402 124.033 300.569 125.037C301.671 126.042 301.768 126.723 300.99 128.311C300.407 129.542 299.273 130.126 297.49 130.126C296.712 130.126 296.388 130.288 296.259 130.742C296.194 131.066 295.707 131.552 295.188 131.779C293.892 132.427 293.859 133.433 295.026 135.215C295.577 136.058 296.031 136.835 296.031 136.997C296.031 137.16 296.388 137.84 296.842 138.489C297.781 139.882 297.911 140.692 297.004 139.526C296.291 138.618 296.29 138.618 296.225 141.308C296.161 144.225 295.577 145.132 293.6 145.456C291.591 145.78 287.897 145.489 286.503 144.906C285.174 144.355 284.007 144.873 283.391 146.331C283.165 146.85 282.84 147.304 282.678 147.304C282.16 147.305 282.548 149.313 283.132 149.702C283.585 149.962 284.072 149.897 285.238 149.476C287.572 148.568 287.928 148.503 287.928 148.827C287.928 148.99 287.021 149.573 285.919 150.091C283.65 151.128 283.391 151.356 283.391 152.393C283.392 153.333 284.364 153.851 285.628 153.592C286.567 153.398 286.632 153.43 286.632 154.369C286.632 154.888 286.179 156.412 285.628 157.708C284.753 159.75 284.623 160.366 284.785 161.889C284.915 163.121 284.785 164.45 284.299 166.329C283.488 169.603 283.65 170.413 285.336 171.288C286.535 171.904 286.6 172.002 286.503 173.298C286.47 174.076 286.178 175.113 285.822 175.599C285.206 176.571 285.174 176.312 286.308 180.752C286.568 181.692 286.502 182.276 286.113 183.281C284.59 187.105 280.117 187.267 277.654 183.573C275.385 180.267 274.056 179.165 272.922 179.781C272.629 179.944 271.754 181.013 271.042 182.179C269.13 185.16 269.065 184.48 270.945 181.304C271.95 179.587 272.371 178.581 272.112 178.484C271.885 178.419 271.722 177.9 271.722 177.317C271.722 174.886 269.454 174.757 267.121 177.026C266.181 177.933 265.791 178.127 265.5 177.835C265.208 177.544 265.565 177.025 266.991 175.631C268.611 174.076 269 173.849 269.778 173.979C271.01 174.238 271.658 173.427 271.788 171.483C271.885 169.96 271.982 169.83 273.506 168.76C274.381 168.144 275.775 167.463 276.585 167.237C277.946 166.913 278.043 166.783 278.14 165.746C278.232 164.577 277.853 163.944 276.372 163.432C274.82 164.423 272.978 165 271 165H256.413C257.548 168.624 257.324 169.857 255.938 172.229C255.258 173.363 254.059 174.822 253.281 175.47C252.503 176.118 251.303 177.122 250.655 177.673C249.975 178.256 249.165 178.743 248.841 178.743C248.257 178.776 248.257 178.776 248.808 179.1C249.1 179.262 249.359 179.78 249.359 180.234C249.359 181.303 248.063 181.919 246.928 181.401C245.956 180.947 245.891 180.169 246.799 179.197L247.447 178.516L245.826 177.284C244.919 176.636 243.72 175.47 243.137 174.659C242.099 173.233 241.224 172.683 240.576 173.104C240.122 173.363 240.348 176.086 241.061 178.906C241.936 182.244 241.839 184.48 240.835 186.586C239.96 188.401 239.538 188.791 239.149 188.175C239.052 187.981 238.696 187.883 238.372 187.915C238.015 187.915 237.205 187.656 236.556 187.332L235.389 186.684L233.769 187.559C232.019 188.564 230.755 188.693 229.167 188.045C228 187.527 223.139 181.045 222.49 179.1C222.296 178.484 221.874 177.706 221.583 177.382C220.935 176.669 219.249 176.604 218.374 177.284C216.851 178.451 214.971 177.382 212.313 173.784C211.309 172.423 210.336 172.229 209.785 173.298C209.461 173.914 209.493 174.076 210.012 174.367C210.336 174.53 211.6 175.696 212.832 176.928C215.003 179.197 215.262 179.813 214.808 181.563C214.711 181.952 213.804 182.762 212.734 183.41C210.53 184.772 210.207 185.387 211.114 186.36C211.47 186.748 211.761 187.299 211.762 187.591C211.762 187.883 212.151 188.37 212.604 188.661C213.577 189.31 215.003 191.967 215.003 193.134C215.002 194.56 213.252 195.013 210.724 194.236C209.169 193.782 208.391 192.712 208.618 191.481C209.039 189.342 209.46 188.045 209.849 187.785C210.109 187.656 210.206 187.462 210.141 187.397C209.882 187.137 204.245 184.579 203.951 184.577C203.789 184.577 203.562 184.966 203.465 185.452C202.978 187.429 201.974 187.688 200.645 186.198C200.159 185.679 199.641 185.225 199.478 185.225C199.316 185.225 198.927 184.642 198.603 183.929C198.247 183.151 197.793 182.632 197.469 182.632C196.691 182.632 196.302 182.017 196.075 180.299C195.945 179.456 195.491 178.095 195.07 177.284L194.26 175.826L195.07 176.021C195.977 176.248 196.042 176.085 195.556 175.146C194.908 173.947 196.334 172.585 197.793 173.072C198.117 173.169 198.571 173.687 198.798 174.238C199.154 175.048 199.122 175.275 198.636 175.826C198.311 176.183 197.631 176.474 197.112 176.474C196.529 176.474 196.205 176.636 196.205 176.96C196.205 177.965 200.062 184.253 200.678 184.253C200.969 184.252 201.714 181.887 201.715 180.98C201.715 180.591 201.974 179.585 202.265 178.71L202.816 177.155L201.585 176.085C200.548 175.178 200.288 174.724 200.061 173.266C199.932 172.327 199.738 171.484 199.673 171.418C199.608 171.353 198.732 171.126 197.695 170.932C196.69 170.77 195.329 170.284 194.714 169.927C193.839 169.409 193.482 169.344 193.19 169.635C192.704 170.121 192.802 172.164 193.482 174.53C194.098 176.734 193.935 177.544 192.898 177.382C192.347 177.317 192.121 176.928 191.797 175.34C191.57 174.271 191.246 172.974 191.052 172.488C190.857 171.969 190.694 171.061 190.694 170.446C190.694 169.83 190.533 169.345 190.371 169.344C190.176 169.344 189.139 169.798 188.069 170.349L186.093 171.386L186.255 172.714C186.417 174.14 187.388 176.637 188.782 179.1C189.949 181.174 190.143 182.081 189.56 182.826C189.074 183.41 189.041 183.411 188.263 182.535C187.81 182.049 187.454 181.271 187.454 180.882C187.454 179.91 185.93 175.827 185.314 175.146C185.055 174.887 184.86 174.335 184.86 173.979C184.86 173.622 184.569 173.071 184.245 172.78C183.888 172.455 183.564 171.807 183.499 171.321C183.369 170.316 182.267 169.992 181.619 170.802C181.392 171.061 180.776 171.288 180.258 171.288C179.448 171.288 179.35 171.386 179.512 171.905C179.642 172.358 179.48 172.715 178.897 173.104C177.99 173.687 177.082 173.525 177.082 172.78C177.082 172.488 176.758 171.612 176.369 170.802C175.753 169.538 175.526 169.344 174.651 169.344C173.808 169.344 173.549 169.538 173.16 170.381C172.803 171.224 172.382 171.548 171.183 171.937C169.855 172.358 169.66 172.552 169.562 173.395C169.497 174.14 169.271 174.4 168.655 174.465C166.354 174.822 163.956 172.91 165.154 171.71C165.575 171.289 165.867 171.256 166.678 171.548C167.909 172.002 168.655 171.742 168.655 170.932C168.655 170.575 169.335 169.636 170.145 168.826C171.377 167.562 171.669 167.043 171.896 165.552C171.928 165.355 171.96 165.172 171.989 165H47.9998C42.4771 165 38 160.523 37.9998 155V104.531C37.5245 104.296 37.2507 103.629 37.075 102.299C36.9453 101.456 36.4914 100.095 36.0701 99.2845L35.2596 97.8265L36.0701 98.0208C36.9774 98.2476 37.0424 98.0854 36.5564 97.1458C36.0281 96.1683 36.8776 95.0824 37.9998 94.9778V92.7825C37.1334 92.5622 36.1953 92.2059 35.7137 91.9271C34.8388 91.4086 34.4819 91.3436 34.1902 91.6351C33.704 92.1212 33.8016 94.1636 34.4822 96.5296C35.098 98.7335 34.9354 99.5442 33.8982 99.3821C33.3474 99.3172 33.1207 98.9278 32.7967 97.3401C32.5698 96.2706 32.246 94.9738 32.0515 94.4876C31.8571 93.969 31.6941 93.0614 31.6941 92.4456C31.6941 91.8305 31.5328 91.345 31.3709 91.3441C31.1764 91.3441 30.1387 91.7979 29.0691 92.3489L27.0926 93.386L27.2547 94.7142C27.4167 96.1403 28.3883 98.6367 29.782 101.1C30.9486 103.174 31.1434 104.081 30.5603 104.826C30.0742 105.41 30.0413 105.411 29.2635 104.535C28.8097 104.049 28.4539 103.271 28.4539 102.882C28.4538 101.91 26.9301 97.827 26.3142 97.1458C26.055 96.8866 25.8602 96.3354 25.8601 95.9788C25.8601 95.6224 25.5689 95.0714 25.2449 94.7796C24.8884 94.4555 24.5636 93.8068 24.4988 93.3206C24.369 92.3161 23.2671 91.9919 22.6189 92.8021C22.3921 93.0612 21.777 93.2883 21.2586 93.2884C20.4483 93.2884 20.3504 93.386 20.5125 93.9046C20.642 94.3582 20.4804 94.715 19.8972 95.1038C18.9898 95.6872 18.082 95.5249 18.0818 94.7796C18.0818 94.4879 17.7579 93.6123 17.3689 92.8021C16.7532 91.5382 16.526 91.3441 15.6512 91.3441C14.8085 91.3441 14.5489 91.5385 14.1599 92.3812C13.8035 93.2236 13.3822 93.548 12.1834 93.9368C10.8547 94.3581 10.6595 94.5525 10.5623 95.3948C10.4975 96.1402 10.2707 96.4003 9.65506 96.4651C7.3541 96.8216 4.95574 94.9095 6.15408 93.7103C6.57542 93.2889 6.8673 93.2565 7.67752 93.5482C8.90915 94.0019 9.65506 93.7422 9.65506 92.9319C9.65508 92.5755 10.3352 91.6357 11.1453 90.8255C12.3768 89.5616 12.6694 89.0427 12.8963 87.5521C13.3176 84.9592 13.4467 84.6668 14.7107 83.7269C15.8775 82.8194 16.7849 81.2316 16.7849 80.0648C16.7849 79.7082 16.299 79.0924 15.7156 78.7034C14.8081 78.0876 14.0626 76.9208 12.9607 74.3929C12.8959 74.2633 13.0903 74.1654 13.3494 74.1653C13.9004 74.1653 14.4188 73.1611 14.743 71.4759C14.8402 70.9573 14.6784 69.6929 14.3543 68.6234C13.9006 67.1651 13.8361 66.6143 14.1277 66.3226C14.6462 65.804 14.6139 64.7018 14.0955 63.9564C13.7714 63.5674 13.5769 63.5029 13.4148 63.7298C13.0583 64.313 12.3448 64.1831 10.8865 63.2757C9.6225 62.4654 9.49281 62.4329 8.65018 62.9515C7.0946 63.8589 5.76571 63.4377 5.76541 62.012C5.76541 61.1693 6.34887 60.553 7.12674 60.553C7.48326 60.553 7.87191 60.1964 8.03397 59.7103C8.29323 59.0621 8.5204 58.9 9.03885 59.0296C9.91394 59.2565 10.6919 57.9926 10.5623 56.5989C10.4326 55.0432 9.52544 55.011 9.13651 56.5667C8.90967 57.6036 8.68247 57.83 7.93729 57.8948C7.22429 57.9921 7.0624 58.122 7.2244 58.5433C7.64574 59.5804 7.54761 60.0671 6.86697 60.1644C6.21927 60.2615 6.1549 60.1312 6.18729 58.2523V56.2425L7.67752 55.3353C8.81192 54.6222 9.23347 54.0703 9.52518 53.098C9.75177 52.3532 9.78446 51.738 9.62283 51.6077C9.46078 51.5105 9.33084 51.2186 9.33084 50.9593C9.33084 50.6676 9.71963 50.5054 10.5623 50.473C12.7662 50.4081 13.3169 50.1165 13.7058 48.723C14.2244 46.681 14.4521 46.5188 17.4988 45.8382C18.2439 45.6761 18.406 45.4487 18.406 44.7034C18.4061 43.926 18.5036 43.7965 19.0545 43.9261C19.4433 44.0232 19.7676 43.8937 19.8972 43.5696C19.9945 43.278 20.4476 43.0512 20.8689 43.0511C21.2902 43.0511 21.6472 42.9213 21.6472 42.7269C21.6472 42.4676 18.8921 40.1992 18.4383 40.1019C18.341 40.0695 17.9522 40.0044 17.5633 39.972C16.6234 39.8748 13.4152 38.3192 12.9285 37.7357C12.5071 37.2171 12.5068 36.8926 13.1551 33.5218C13.4467 32.0312 13.9006 31.3833 14.7107 31.3831C15.2941 31.3831 18.6647 33.2307 19.7019 34.1058C20.2529 34.5595 21.258 34.9478 22.2303 35.0775C23.1054 35.1747 24.4023 35.6608 25.0506 36.1146C26.4765 37.0544 27.0594 36.9575 27.2215 35.6937C27.2863 34.9482 27.4811 34.7536 28.3562 34.6888C28.9394 34.624 29.652 34.7211 29.9763 34.9153C30.819 35.3691 31.5972 34.818 32.6668 32.8734C34.4492 29.7299 34.8709 29.4378 37.6902 29.4378C40.3154 29.4378 40.2191 29.503 40.1219 27.429C40.0246 25.4843 40.5432 24.9007 42.3582 24.9007C43.2983 24.9006 45.4695 24.3818 47.9324 23.5716C50.1362 22.8586 52.5995 22.1457 53.4099 22.0159C54.447 21.8539 54.8362 21.6595 54.739 21.303C54.6742 21.0438 54.6093 20.2331 54.5769 19.4876C54.5445 18.2562 54.4468 18.0941 53.7986 18.0941C53.3777 18.0942 53.1508 18.2239 53.2478 18.4183C53.5719 18.9692 52.8265 18.7752 52.2107 18.1595C51.2385 17.1873 49.9101 16.4741 49.0349 16.4739C48.3544 16.4739 48.062 16.2145 47.576 15.0804C47.2195 14.335 46.9276 13.3623 46.9275 12.9085C46.9275 11.8389 48.095 10.0565 49.7156 8.59796C50.9795 7.46369 51.1738 7.39875 53.2801 7.39875C57.7527 7.43116 59.3736 8.37082 60.4431 11.5794L61.0271 13.3626L62.8738 13.7191C65.1101 14.1728 65.4997 14.464 66.2127 16.4085C66.5367 17.251 67.0874 18.3206 67.4763 18.8069C68.0921 19.682 68.0925 19.7472 67.574 20.8489C67.2823 21.4647 66.8933 21.9836 66.7312 21.9837C66.5692 21.9837 65.9861 22.3405 65.4676 22.7943C64.5277 23.5721 64.4947 23.6366 64.8836 24.9652C65.3697 26.5857 66.5047 27.623 67.3474 27.1693C67.8982 26.8771 68.3191 25.5483 68.3191 24.0902C68.3192 23.5393 68.6434 23.1825 69.5183 22.7288C71.1065 21.951 71.4953 20.4927 70.9119 17.5433C70.6852 16.4098 70.5884 15.3733 70.7176 15.2747C70.8148 15.1775 70.6207 14.6264 70.2967 14.0755C68.9679 11.9365 69.0323 7.82033 70.3933 6.19953C70.8147 5.68095 71.3657 4.41656 71.5926 3.34699C71.8519 2.21259 72.3382 1.11032 72.7596 0.656558ZM37.9998 98.4778C37.4873 98.4978 37.205 98.6577 37.2049 98.9603C37.2049 99.2503 37.5279 99.9794 37.9998 100.871V98.4778Z" fill="white"/>
<path d="M181.652 177.349C181.685 176.604 181.749 176.248 181.846 176.572C181.944 176.96 182.17 177.09 182.624 176.96C183.11 176.798 183.24 176.928 183.24 177.576C183.24 178.646 182.106 179.91 181.814 179.164C181.717 178.905 181.652 178.094 181.652 177.349Z" fill="white"/>
<path d="M163.858 168.566C166.905 167.172 167.52 167.626 165.608 169.863C165.025 170.576 163.793 171.483 162.886 171.905L161.265 172.682L160.066 171.515C158.673 170.154 158.64 169.117 160.001 168.371C160.876 167.918 160.941 167.918 161.524 168.631L162.108 169.344L163.858 168.566Z" fill="white"/>
<path d="M290.587 150.577C292.077 150.156 292.045 150.157 292.693 150.837C293.018 151.161 294.638 152.068 296.291 152.846C299.24 154.207 299.272 154.24 299.272 155.407C299.272 156.055 298.916 157.32 298.463 158.195C298.009 159.07 297.781 159.815 297.911 159.88C298.948 160.237 302.643 162.699 304.426 164.255C305.592 165.292 307.019 166.362 307.538 166.654C308.769 167.302 308.704 167.205 308.477 167.853C308.186 168.598 307.473 168.501 306.857 167.561C305.982 166.232 297.781 160.593 296.712 160.593C296.388 160.593 295.934 160.82 295.707 161.079C294.929 161.986 293.243 162.019 291.753 161.144C289.808 159.977 289.127 159.069 288.674 157.028C287.863 153.3 288.512 151.193 290.587 150.577Z" fill="white"/>
<path d="M22.6521 99.3489C22.6845 98.6038 22.7493 98.2476 22.8465 98.5716C22.9437 98.9604 23.1702 99.0898 23.6238 98.9603C24.11 98.7982 24.24 98.9283 24.24 99.5765C24.2399 100.646 23.106 101.91 22.8142 101.164C22.717 100.905 22.6521 100.094 22.6521 99.3489Z" fill="white"/>
<path d="M4.85819 90.5657C7.90462 89.1722 8.5204 89.6263 6.60819 91.8626C6.02474 92.5756 4.79299 93.4833 3.88553 93.9046L2.26541 94.6819L1.06619 93.515C-0.327437 92.1537 -0.360346 91.1169 1.00076 90.3714C1.87587 89.9176 1.9408 89.9181 2.5242 90.6312L3.10819 91.3441L4.85819 90.5657Z" fill="white"/>
<path d="M294.762 82.5726C294.86 82.2485 294.924 82.6045 294.957 83.3499C294.957 84.0954 294.892 84.9061 294.795 85.1653C294.503 85.9104 293.368 84.646 293.368 83.5765C293.368 82.9286 293.498 82.7992 293.984 82.9612C294.438 83.0908 294.665 82.9612 294.762 82.5726Z" fill="white"/>
<path d="M10.8865 76.2405C11.9882 75.6897 13.2199 75.6568 13.2205 76.2073C13.2205 76.4342 12.7343 77.083 12.1834 77.6663C10.5304 79.2545 7.38651 80.3238 7.38651 79.2542C7.38717 78.8001 9.55783 76.9535 10.8865 76.2405Z" fill="white"/>
<path d="M311 75.8626C309.088 73.6265 309.704 73.1731 312.751 74.5667L314.501 75.3441L315.084 74.6312C315.667 73.9181 315.732 73.9186 316.607 74.3724C317.968 75.1178 317.936 76.1548 316.543 77.5159L315.344 78.6829L313.722 77.9046C312.815 77.4832 311.583 76.5756 311 75.8626Z" fill="white"/>
<path d="M304.388 60.2083C304.388 59.6574 305.62 59.6897 306.721 60.2405C308.05 60.9536 310.222 62.8014 310.222 63.2552C310.222 64.3244 307.078 63.2544 305.426 61.6663C304.875 61.083 304.388 60.4352 304.388 60.2083Z" fill="white"/>
<path d="M52.6648 19.7152C52.8593 18.9698 53.4098 19.1637 53.4099 20.0062C53.4099 20.784 52.567 21.4647 51.9187 21.2054C51.3359 20.9782 51.4984 20.1686 52.114 20.2982C52.3084 20.3302 52.5676 20.0713 52.6648 19.7152Z" fill="white"/>
<path d="M102.838 5.97199C104.134 4.87028 105.268 4.87047 105.268 5.90753C105.268 6.39361 105.042 6.7827 104.718 6.91242C104.394 7.00963 103.778 7.59267 103.324 8.20831C102.352 9.56958 101.282 9.63482 101.12 8.30597C101.055 7.85221 101.217 7.30122 101.444 7.10675C101.671 6.91214 102.319 6.3932 102.838 5.97199Z" fill="white"/>
<path d="M56.6512 6.45832C57.4938 6.4259 57.6557 6.52307 57.364 6.81476C57.1048 7.07405 56.8135 7.07404 56.2625 6.81476C55.5495 6.49066 55.5817 6.45832 56.6512 6.45832Z" fill="white"/>
<path d="M56.0681 4.54621C56.6515 3.96302 57.5591 4.0923 57.948 4.77277C58.3694 5.61543 58.0451 5.74501 56.7488 5.29132C55.9061 4.99962 55.7764 4.83791 56.0681 4.54621Z" fill="white"/>
<path d="M264.198 4.00617C264.198 3.16375 264.749 2.96979 264.943 3.71515C265.04 4.07156 265.3 4.33056 265.495 4.29816C266.11 4.16891 266.272 4.97839 265.689 5.20539C265.041 5.46468 264.198 4.78404 264.198 4.00617Z" fill="white"/>
</svg>
