<?xml version="1.0" standalone="no"?>
<!DOCTYPE svg PUBLIC "-//W3C//DTD SVG 20010904//EN"
 "http://www.w3.org/TR/2001/REC-SVG-20010904/DTD/svg10.dtd">
<svg version="1.0" xmlns="http://www.w3.org/2000/svg"
 width="1200.000000pt" height="1200.000000pt" viewBox="0 0 1200.000000 1200.000000"
 preserveAspectRatio="xMidYMid meet">

<g transform="translate(0.000000,1200.000000) scale(0.100000,-0.100000)"
fill="#FFFFFF" stroke="none">
<path d="M5400 10346 c-327 -117 -899 -321 -1270 -454 -639 -228 -2497 -890
-2568 -915 -28 -9 -32 -15 -28 -37 3 -14 157 -1341 342 -2950 185 -1609 339
-2928 343 -2932 3 -3 856 -477 1894 -1052 l1888 -1046 1302 722 c716 396 1565
867 1887 1045 322 178 588 327 592 331 4 4 158 1319 342 2922 185 1603 339
2931 342 2950 l5 36 -663 237 c-365 130 -1043 372 -1508 537 -465 166 -874
312 -910 325 -36 13 -263 94 -505 180 -242 86 -540 192 -662 236 -122 43 -224
79 -225 78 -2 0 -271 -96 -598 -213z m1993 -3978 c763 -1718 1387 -3126 1387
-3130 0 -5 -233 -8 -518 -8 l-518 0 -141 353 c-78 193 -206 511 -284 705
l-142 352 -1182 0 -1183 0 -282 -705 -282 -705 -519 0 c-285 0 -519 4 -519 8
0 5 212 483 470 1063 259 580 885 1984 1393 3122 507 1137 924 2067 927 2067
3 0 630 -1405 1393 -3122z"/>
<path d="M5598 6492 c-219 -526 -401 -965 -404 -974 -6 -17 37 -18 806 -18
671 0 811 2 808 13 -6 28 -803 1937 -808 1937 -3 0 -184 -431 -402 -958z"/>
</g>
</svg>
