<svg width="322" height="134" viewBox="0 0 322 134" fill="none" xmlns="http://www.w3.org/2000/svg">
<path d="M104.285 28.25C71.9304 -6.74995 1 4.5 1 70.3334C5.56278 137 75.2488 139.083 104.285 108.667L78.1524 84.5002C65.2937 101.167 35.4282 91.1667 35.4282 70.3334C35.4282 46.1667 63.6345 33.6667 78.982 53.2501L104.285 28.25Z" fill="white"/>
<path d="M142.861 119.5L107.603 132V15.3333L142.861 2V119.5Z" fill="white"/>
<path d="M148.668 39.0833H182.267V92C182.267 93.8056 183.428 97.3333 188.074 97C192.72 96.6667 193.328 93.5278 193.051 92V39.0833H225.821V95.75C224.991 104.361 217.939 123.667 188.074 124.917C159.768 126.101 150.051 106.583 148.668 95.75V39.0833Z" fill="white"/>
<path fill-rule="evenodd" clip-rule="evenodd" d="M266.076 91.3574L320 73.0241C315.299 58.4408 298.431 31.3574 271.054 36.3574C236.078 42.7454 230.404 61.7741 230.818 83.8574C231.233 105.941 255.292 124.274 271.054 124.274C286.816 124.274 309.215 115.524 318.341 94.2741L292.623 84.6908C287.922 92.1908 276.031 104.024 266.076 91.3574ZM283.912 65.9408L259.025 75.1075C259.025 71.4964 261.066 65.0574 268.15 63.0242C268.24 62.9985 268.328 62.973 268.416 62.9478C274.035 61.3333 276.561 60.6076 283.912 65.9408Z" fill="white"/>
<path d="M104.285 28.25C71.9304 -6.74995 1 4.5 1 70.3334C5.56278 137 75.2488 139.083 104.285 108.667L78.1524 84.5002C65.2937 101.167 35.4282 91.1667 35.4282 70.3334C35.4282 46.1667 63.6345 33.6667 78.982 53.2501L104.285 28.25Z" stroke="black" stroke-width="2"/>
<path d="M142.861 119.5L107.603 132V15.3333L142.861 2V119.5Z" stroke="black" stroke-width="2"/>
<path d="M148.668 39.0833H182.267V92C182.267 93.8056 183.428 97.3333 188.074 97C192.72 96.6667 193.328 93.5278 193.051 92V39.0833H225.821V95.75C224.991 104.361 217.939 123.667 188.074 124.917C159.768 126.101 150.051 106.583 148.668 95.75V39.0833Z" stroke="black" stroke-width="2"/>
<path fill-rule="evenodd" clip-rule="evenodd" d="M266.076 91.3574L320 73.0241C315.299 58.4408 298.431 31.3574 271.054 36.3574C236.078 42.7454 230.404 61.7741 230.818 83.8574C231.233 105.941 255.292 124.274 271.054 124.274C286.816 124.274 309.215 115.524 318.341 94.2741L292.623 84.6908C287.922 92.1908 276.031 104.024 266.076 91.3574ZM283.912 65.9408L259.025 75.1075C259.025 71.4964 261.066 65.0574 268.15 63.0242C268.24 62.9985 268.328 62.973 268.416 62.9478C274.035 61.3333 276.561 60.6076 283.912 65.9408Z" stroke="black" stroke-width="2"/>
</svg>
