<svg height="50" viewBox="0 0 21 21" fill="none" xmlns="http://www.w3.org/2000/svg">
    <path
        d="M18.5 0H2.5C1.12 0 0 1.12 0 2.5V18.5C0 19.88 1.12 21 2.5 21H18.5C19.88 21 21 19.88 21 18.5V2.5C21 1.12 19.88 0 18.5 0ZM6.5 8V17.5H3.5V8H6.5ZM3.5 5.235C3.5 4.535 4.1 4 5 4C5.9 4 6.465 4.535 6.5 5.235C6.5 5.935 5.94 6.5 5 6.5C4.1 6.5 3.5 5.935 3.5 5.235ZM17.5 17.5H14.5C14.5 17.5 14.5 12.87 14.5 12.5C14.5 11.5 14 10.5 12.75 10.48H12.71C11.5 10.48 11 11.51 11 12.5C11 12.955 11 17.5 11 17.5H8V8H11V9.28C11 9.28 11.965 8 13.905 8C15.89 8 17.5 9.365 17.5 12.13V17.5Z"
        fill="#0E44B9" />
</svg>