<svg width="14" height="16" viewBox="0 0 14 16" fill="none" xmlns="http://www.w3.org/2000/svg">
<path fill-rule="evenodd" clip-rule="evenodd" d="M7.00049 1.01749L12.9312 4.44154V11.2897L7.00049 14.7137L1.06982 11.2897V4.44154L7.00049 1.01749ZM1.73525 4.8257V9.85591L6.09154 2.31059L1.73525 4.8257ZM7.00049 2.06707L1.97877 10.7649H12.0222L7.00049 2.06707ZM11.3568 11.4303H2.6442L7.00049 13.9454L11.3568 11.4303ZM12.2657 9.85591L7.90944 2.31059L12.2657 4.8257V9.85591Z" fill="#E10098"/>
<path d="M1.40165 6.03449C2.17576 6.03449 2.8033 5.40695 2.8033 4.63284C2.8033 3.85873 2.17576 3.23119 1.40165 3.23119C0.627541 3.23119 0 3.85873 0 4.63284C0 5.40695 0.627541 6.03449 1.40165 6.03449Z" fill="#E10098"/>
<path d="M1.40165 12.4992C2.17576 12.4992 2.8033 11.8717 2.8033 11.0976C2.8033 10.3235 2.17576 9.69594 1.40165 9.69594C0.627541 9.69594 0 10.3235 0 11.0976C0 11.8717 0.627541 12.4992 1.40165 12.4992Z" fill="#E10098"/>
<path d="M7.00028 15.7312C7.77439 15.7312 8.40193 15.1037 8.40193 14.3296C8.40193 13.5554 7.77439 12.9279 7.00028 12.9279C6.22617 12.9279 5.59863 13.5554 5.59863 14.3296C5.59863 15.1037 6.22617 15.7312 7.00028 15.7312Z" fill="#E10098"/>
<path d="M12.5984 12.4992C13.3725 12.4992 14.0001 11.8717 14.0001 11.0976C14.0001 10.3235 13.3725 9.69594 12.5984 9.69594C11.8243 9.69594 11.1968 10.3235 11.1968 11.0976C11.1968 11.8717 11.8243 12.4992 12.5984 12.4992Z" fill="#E10098"/>
<path d="M12.5984 6.03528C13.3725 6.03528 14.0001 5.40774 14.0001 4.63363C14.0001 3.85952 13.3725 3.23198 12.5984 3.23198C11.8243 3.23198 11.1968 3.85952 11.1968 4.63363C11.1968 5.40774 11.8243 6.03528 12.5984 6.03528Z" fill="#E10098"/>
<path d="M7.00028 2.8033C7.77439 2.8033 8.40193 2.17576 8.40193 1.40165C8.40193 0.627541 7.77439 0 7.00028 0C6.22617 0 5.59863 0.627541 5.59863 1.40165C5.59863 2.17576 6.22617 2.8033 7.00028 2.8033Z" fill="#E10098"/>
</svg>
