<svg width="410" height="363" viewBox="0 0 410 363" fill="none" xmlns="http://www.w3.org/2000/svg">
<path fill-rule="evenodd" clip-rule="evenodd" d="M387.753 255.569L409.173 255.686C409.173 255.686 369.348 309.65 366.097 314.048C365.04 315.473 363.435 317.009 362.622 318.912C360.566 323.699 358.454 334.198 358.454 334.198L338.855 334.295C338.855 334.295 341.904 323.352 341.778 317.523C341.668 312.43 339.068 307.344 337.61 302.237C336.137 297.068 334.136 286.952 334.136 286.952H354.285L357.064 298.068L387.753 255.569Z" fill="#1A1918"/>
<path fill-rule="evenodd" clip-rule="evenodd" d="M347.192 266.949C351.145 269.333 353.57 282.478 353.57 282.478C353.57 282.478 332.886 282.783 321.63 282.783H311.903L300.092 334.198H282.028C282.028 334.198 293.269 278.323 295.923 268.193C296.784 264.914 301.815 265.476 310.312 265.476H323.881C332.643 265.476 342.884 264.358 347.192 266.949Z" fill="#1A1918"/>
<path fill-rule="evenodd" clip-rule="evenodd" d="M263.094 291.989C263.094 291.989 263.657 288.689 261.184 284.867C259.072 281.609 257.12 280.852 251.562 280.678C235.866 280.185 236.171 291.816 236.171 291.816L263.094 291.989ZM280.117 278.67C282.417 286.966 278.033 306.462 278.033 306.462C278.033 306.462 255.139 306.079 242.599 306.462C238.7 306.58 234.032 306.038 232.872 307.851C231.239 310.394 233.468 314.306 235.358 315.959C237.534 317.863 241.771 318.079 243.293 318.273C253.471 319.566 274.774 318.606 274.774 318.606L271.084 334.947C271.084 334.947 240.98 336.456 225.923 332.863C222.95 332.155 220.164 330.724 218.281 328.694C217.767 328.139 217.321 327.382 216.835 326.729C216.446 326.207 215.315 324.491 214.806 323.136C211.368 313.972 215.21 296.415 218.975 287.008C219.413 285.917 219.962 284.535 220.54 283.36C221.261 281.894 221.872 280.241 222.449 279.365C222.838 278.761 223.318 278.371 223.721 277.801C224.186 277.128 224.728 276.474 225.229 275.892C226.618 274.279 228.195 273.139 230.092 271.723C236.365 267.026 247.719 263.378 261.357 264.775C266.492 265.302 274.247 267.137 278.033 272.417C279.047 273.828 279.547 276.627 280.117 278.67Z" fill="#1A1918"/>
<path fill-rule="evenodd" clip-rule="evenodd" d="M197.263 265.413L214.779 265.309C214.779 265.309 205.018 311.617 200.043 334.198H179.894C165.811 334.198 153.27 335.942 147.934 325.86C142.758 316.071 147.697 299.972 150.018 289.036C151.658 281.296 155.112 265.476 155.112 265.476L173.259 265.309C173.259 265.309 168.131 289.939 165.998 302.237C165.234 306.642 163.658 310.79 165.303 314.048C166.867 317.148 169.055 317.37 175.725 317.523C177.838 317.572 184.757 317.523 184.757 317.523L197.263 265.413Z" fill="#1A1918"/>
<path fill-rule="evenodd" clip-rule="evenodd" d="M115.278 298.763C117.113 292.246 119.787 285.18 119.447 279.309C119.079 273.029 113.813 267.31 110.415 266.109C100.181 262.495 90.6004 267.547 86.7928 271.666C81.866 277.003 80.1986 283.235 78.4546 291.816C77.156 298.186 76.0928 304.912 78.4546 309.88C82.6369 318.662 95.6782 316.745 109.72 316.828C111.804 311.242 113.528 304.968 115.278 298.763ZM139.596 273.056C141.597 287.605 133.92 303.662 128.633 317.626C134.024 318.113 138.749 317.551 139.089 317.953C139.443 318.475 135.476 334.622 134.093 334.663C129.814 334.775 115.633 334.892 109.72 334.892C90.4258 334.892 72.3754 336.15 63.1702 326.555C59.4322 322.657 56.8476 315.973 56.2219 311.27C55.1792 303.418 56.4857 294.775 58.3062 287.647C59.953 281.213 62.0647 275.14 65.2544 269.582C73.3621 255.429 87.4666 244.924 111.11 247.349C115.695 247.822 122.282 249.83 126.395 252.212C126.68 252.38 127.674 253.171 127.903 253.311C133.461 256.848 138.526 265.289 139.596 273.056Z" fill="#1A1918"/>
<path fill-rule="evenodd" clip-rule="evenodd" d="M54.2279 265.497C53.0607 270.812 51.8935 276.836 50.6635 282.089H31.2095C32.717 276.266 33.8705 270.478 35.3781 265.413C41.6035 265.413 47.3914 265.497 54.2279 265.497Z" fill="#1A1918"/>
<path fill-rule="evenodd" clip-rule="evenodd" d="M30.515 286.952H49.2736C46.8215 300.528 41.9654 322.428 38.1577 337.671C35.7743 347.211 34.1834 354.173 27.7353 359.209C27.1586 359.661 26.8261 359.447 26.3464 359.905C25.1576 361.038 19.662 362.351 16.6194 362.683C11.672 363.219 6.07926 362.753 0 362.629C1.59093 356.813 3.39078 349.831 4.8081 344.619C19.6277 346.412 20.0033 332.405 22.8723 318.912C24.5328 311.117 29.5636 290.079 30.515 286.952Z" fill="#1A1918"/>
<path fill-rule="evenodd" clip-rule="evenodd" d="M323.221 183.113L322.106 186C303.112 222.984 269.46 245.677 221.458 246.677C199.018 247.14 177.636 241.383 163.669 235.12C133.525 221.578 108.173 196.462 94.3259 169.627C74.4638 131.159 70.8824 77.6481 112.181 37.6792C112.817 37.6792 107.172 46.3458 107.808 46.3458L106.672 50.0441C76.9112 143.217 168.599 223.062 257.729 213.931C279.149 211.736 306.465 200.005 323.221 183.113Z" fill="#21609B"/>
<path fill-rule="evenodd" clip-rule="evenodd" d="M269.286 144.585C291.71 144.74 315.132 134.26 329 119.545C316.866 150.347 281.733 170.147 234.614 163.849C195.165 158.57 157.584 118.871 153.711 79.0922C150.88 50.142 160.972 32.8633 177.598 11.9053C171.819 22.867 169.66 31.3214 169.122 36.7139C162.805 99.3377 219.147 144.259 269.286 144.585Z" fill="#21609B"/>
<path fill-rule="evenodd" clip-rule="evenodd" d="M326.749 66.8034C323.263 74.7983 303.191 89.8988 294.329 91.7861C259.233 99.2616 236.755 82.6192 224.983 63.6816C223.231 60.8508 219.995 53.1279 219.416 51.1618C214.85 35.637 216.95 12.1555 230.571 0C226.467 11.5572 225.869 24.9826 228.028 33.709C229.336 38.9873 233.323 48.1977 237.312 53.9926C244.573 64.5491 249.177 67.1134 258.501 72.718C262.7 75.2416 267.206 77.2648 269.153 77.8222C277.994 80.4219 296.659 87.2801 326.749 66.8034Z" fill="#21609B"/>
</svg>
