<svg width="28" height="21" viewBox="0 0 28 21" fill="none" xmlns="http://www.w3.org/2000/svg">
<path opacity="0.2" d="M5.71808 1.21505C3.82678 1.21725 2.57747 1.37204 2.56712 1.37332C2.56708 1.37333 2.55997 1.37398 2.55997 1.37398C2.43649 1.38842 2.45219 1.57541 2.57629 1.56837C2.57629 1.56837 9.45313 1.23807 14.9653 3.49033C15.1619 4.3457 15.6813 5.65683 15.9881 6.35373C15.5704 6.64516 15.1224 6.94099 14.7537 7.41045C14.3668 7.90324 14.0743 8.5833 13.9964 9.62316C13.8385 11.7325 15.6179 13.579 17.8188 13.6359C19.8597 13.7464 21.2473 13.7616 22.9365 14.6517C23.7253 15.0957 24.4601 16.0083 25.0088 17.1231C25.5578 18.2385 25.9221 19.5545 25.9875 20.7955C25.9936 20.9174 26.1699 20.9197 26.179 20.7979C26.1794 20.7941 26.1789 20.7889 26.1792 20.7851C26.25 19.8349 26.112 18.364 25.5517 16.9647C25.0823 15.7926 24.3069 14.6768 23.1148 13.9769C24.8282 14.4526 25.8091 15.3367 26.3729 16.1445C27.0199 17.0713 27.1155 17.8963 27.1149 17.8917C27.1286 18.0083 27.2959 18.0056 27.3059 17.8886C27.3059 17.8886 27.391 16.8775 26.7046 15.7634C26.0183 14.6493 24.5614 13.4315 21.5239 12.9783C20.7545 12.8635 19.7836 12.7753 18.7996 12.7728C18.7991 12.7728 18.7986 12.7728 18.7981 12.7728C16.417 12.8048 15.2166 11.4251 15.0297 10.0099C14.9363 9.30224 15.0997 8.58548 15.5041 8.03006C15.9084 7.47466 16.5519 7.07699 17.4385 7.00654H17.4389C18.8947 6.88442 20.6703 7.68482 22.4164 8.51078C22.4146 8.7159 22.4325 8.9228 22.58 9.11017C22.6787 9.23563 22.8568 9.32281 23.0381 9.40986C23.2194 9.4969 23.4059 9.57577 23.4799 9.61893C23.6482 9.71712 24.2094 10.0831 24.5403 10.521C24.5828 10.5772 24.6682 10.5701 24.7011 10.5076C24.7029 10.5043 24.7532 10.4453 24.8195 10.3889C24.8859 10.3324 24.9701 10.268 25.0522 10.208C25.2162 10.0879 25.3716 9.98501 25.3716 9.98501C25.4524 9.93144 25.4137 9.80369 25.3172 9.80569C25.3172 9.80569 25.2936 9.80704 25.2183 9.79241C25.1429 9.77778 25.0231 9.74702 24.8527 9.68226C24.6958 9.62267 24.5084 9.49363 24.3639 9.37695C24.2916 9.31861 24.2294 9.26346 24.1855 9.22213C24.1803 9.21719 24.178 9.21478 24.1733 9.21026C24.2192 9.16825 24.2255 9.1011 24.2163 9.05888C24.2068 9.01573 24.1883 8.98075 24.1675 8.94669C24.1261 8.87861 24.0734 8.81792 24.037 8.78089L24.0369 8.78076C24.0421 8.78611 24.0261 8.76704 24.0099 8.74298C23.9936 8.71882 23.9727 8.68619 23.9491 8.64852C23.902 8.57319 23.8442 8.47741 23.788 8.38304C23.6756 8.19429 23.5742 8.01886 23.5644 8.00217C23.5643 8.00191 23.54 7.94993 23.4928 7.91792C23.4854 7.9129 23.4774 7.90894 23.4689 7.90618C23.4156 7.88878 23.3734 7.89286 23.3188 7.89572C23.2642 7.89857 23.2036 7.90511 23.1462 7.91256C23.0501 7.92504 22.9905 7.93604 22.9645 7.94064C22.8996 7.90582 22.392 7.61996 22.2054 7.0375C22.171 6.93066 22.0155 6.95792 22.0182 7.0703C22.0192 7.10857 21.9623 7.22261 21.9747 7.39514C21.7491 7.25698 21.5551 7.03746 21.3861 6.58525C21.3551 6.50186 21.2393 6.50095 21.2071 6.58385C21.1423 6.74932 21.1384 6.88777 21.1516 6.9951C20.9373 6.89269 20.5866 6.66734 20.5101 6.21945C20.4937 6.12362 20.3646 6.10849 20.3272 6.19801C20.2642 6.34901 20.2586 6.47399 20.2692 6.57467C19.87 6.40059 18.7704 5.99351 17.1294 5.98448C16.8127 5.9549 16.561 5.79378 16.3543 5.55217C16.1475 5.31052 15.9905 4.98843 15.8793 4.6549C15.7681 4.32134 15.7024 3.97657 15.6726 3.69216C15.6429 3.40773 15.6554 3.17258 15.6762 3.10515C15.69 3.06021 15.6703 3.01161 15.6293 2.98964C15.6293 2.98964 13.6226 1.91645 9.69974 1.44469C8.22884 1.2678 6.85778 1.21375 5.71826 1.21507L5.71808 1.21505ZM10.2993 3.34032C9.70156 3.3449 9.05995 3.36755 8.38576 3.41626C4.78432 3.67651 1.15858 4.95572 1.15858 4.95572C1.0426 4.99642 1.0945 5.17319 1.21345 5.14259C1.21345 5.14259 8.6084 3.25572 14.7859 4.36171C14.7913 4.36271 14.7969 4.36322 14.8024 4.36324H14.8027C14.8673 4.36322 14.9135 4.29954 14.8943 4.23675L14.7329 3.70705C14.7223 3.67213 14.6933 3.64617 14.6579 3.63979C14.6579 3.63979 12.8892 3.32058 10.2995 3.34035C10.2992 3.34035 10.2989 3.34035 10.2987 3.34035L10.2993 3.34032ZM14.6904 4.46853C14.0548 4.4658 12.0989 4.54721 9.16119 5.48173C5.47439 6.65451 3.37598 8.3218 3.37598 8.3218C3.28351 8.39613 3.37876 8.54172 3.48194 8.48377C3.48194 8.48377 8.94092 5.38857 15.0886 5.21291C15.1528 5.21102 15.1972 5.14678 15.177 5.08476L15.0004 4.54115C14.9881 4.50344 14.9546 4.47704 14.9156 4.47439C14.9156 4.47439 14.8373 4.46915 14.6906 4.46852L14.6904 4.46853ZM18.71 4.45947C18.6159 4.46087 18.5798 4.58492 18.6581 4.63816H18.6582C18.6638 4.64199 18.6698 4.6452 18.6761 4.64773C20.362 5.34457 21.8243 6.26562 22.9579 7.53172C22.9589 7.53285 22.9599 7.53396 22.961 7.53504L22.9611 7.53517C22.9807 7.55501 23.0077 7.56533 23.0352 7.56351L23.3103 7.54525C23.3883 7.54003 23.4278 7.44721 23.3781 7.38584C23.3781 7.38584 21.7853 5.42349 18.7485 4.46715C18.7481 4.46702 18.7478 4.46676 18.7475 4.46663C18.7459 4.46604 18.7444 4.46548 18.7428 4.46497C18.7419 4.46464 18.7411 4.46438 18.7402 4.46407C18.7304 4.46092 18.7203 4.45936 18.71 4.45947ZM23.5106 8.59126C23.5657 8.60255 23.6698 8.81063 23.7653 8.95924C23.7737 8.97132 23.7823 8.98418 23.7903 8.99434C23.7903 8.99524 23.7904 8.99588 23.7911 8.99677C23.8019 9.01243 23.8126 9.02865 23.8229 9.04169C23.8282 9.07277 23.8368 9.09176 23.7653 9.07679C23.7593 9.04485 23.749 9.03557 23.749 9.03557C23.749 9.03557 23.5763 8.93121 23.5234 8.85713C23.4704 8.78305 23.4612 8.65354 23.487 8.6044C23.4932 8.59342 23.5012 8.58944 23.5106 8.59126Z" fill="black"/>
<path opacity="0.2" d="M5.71808 1.21505C3.82678 1.21725 2.57747 1.37204 2.56712 1.37332C2.56708 1.37333 2.55997 1.37398 2.55997 1.37398C2.43649 1.38842 2.45219 1.57541 2.57629 1.56837C2.57629 1.56837 9.45313 1.23807 14.9653 3.49033C15.1619 4.3457 15.6813 5.65683 15.9881 6.35373C15.5704 6.64516 15.1224 6.94099 14.7537 7.41045C14.3668 7.90324 14.0743 8.5833 13.9964 9.62316C13.8385 11.7325 15.6179 13.579 17.8188 13.6359C19.8597 13.7464 21.2473 13.7616 22.9365 14.6517C23.7253 15.0957 24.4601 16.0083 25.0088 17.1231C25.5578 18.2385 25.9221 19.5545 25.9875 20.7955C25.9936 20.9174 26.1699 20.9197 26.179 20.7979C26.1794 20.7941 26.1789 20.7889 26.1792 20.7851C26.25 19.8349 26.112 18.364 25.5517 16.9647C25.0823 15.7926 24.3069 14.6768 23.1148 13.9769C24.8282 14.4526 25.8091 15.3367 26.3729 16.1445C27.0199 17.0713 27.1155 17.8963 27.1149 17.8917C27.1286 18.0083 27.2959 18.0056 27.3059 17.8886C27.3059 17.8886 27.391 16.8775 26.7046 15.7634C26.0183 14.6493 24.5614 13.4315 21.5239 12.9783C20.7545 12.8635 19.7836 12.7753 18.7996 12.7728C18.7991 12.7728 18.7986 12.7728 18.7981 12.7728C16.417 12.8048 15.2166 11.4251 15.0297 10.0099C14.9363 9.30224 15.0997 8.58548 15.5041 8.03006C15.9084 7.47466 16.5519 7.07699 17.4385 7.00654H17.4389C18.8947 6.88442 20.6703 7.68482 22.4164 8.51078C22.4146 8.7159 22.4325 8.9228 22.58 9.11017C22.6787 9.23563 22.8568 9.32281 23.0381 9.40986C23.2194 9.4969 23.4059 9.57577 23.4799 9.61893C23.6482 9.71712 24.2094 10.0831 24.5403 10.521C24.5828 10.5772 24.6682 10.5701 24.7011 10.5076C24.7029 10.5043 24.7532 10.4453 24.8195 10.3889C24.8859 10.3324 24.9701 10.268 25.0522 10.208C25.2162 10.0879 25.3716 9.98501 25.3716 9.98501C25.4524 9.93144 25.4137 9.80369 25.3172 9.80569C25.3172 9.80569 25.2936 9.80704 25.2183 9.79241C25.1429 9.77778 25.0231 9.74702 24.8527 9.68226C24.6958 9.62267 24.5084 9.49363 24.3639 9.37695C24.2916 9.31861 24.2294 9.26346 24.1855 9.22213C24.1803 9.21719 24.178 9.21478 24.1733 9.21026C24.2192 9.16825 24.2255 9.1011 24.2163 9.05888C24.2068 9.01573 24.1883 8.98075 24.1675 8.94669C24.1261 8.87861 24.0734 8.81792 24.037 8.78089L24.0369 8.78076C24.0421 8.78611 24.0261 8.76704 24.0099 8.74298C23.9936 8.71882 23.9727 8.68619 23.9491 8.64852C23.902 8.57319 23.8442 8.47741 23.788 8.38304C23.6756 8.19429 23.5742 8.01886 23.5644 8.00217C23.5643 8.00191 23.54 7.94993 23.4928 7.91792C23.4854 7.9129 23.4774 7.90894 23.4689 7.90618C23.4156 7.88878 23.3734 7.89286 23.3188 7.89572C23.2642 7.89857 23.2036 7.90511 23.1462 7.91256C23.0501 7.92504 22.9905 7.93604 22.9645 7.94064C22.8996 7.90582 22.392 7.61996 22.2054 7.0375C22.171 6.93066 22.0155 6.95792 22.0182 7.0703C22.0192 7.10857 21.9623 7.22261 21.9747 7.39514C21.7491 7.25698 21.5551 7.03746 21.3861 6.58525C21.3551 6.50186 21.2393 6.50095 21.2071 6.58385C21.1423 6.74932 21.1384 6.88777 21.1516 6.9951C20.9373 6.89269 20.5866 6.66734 20.5101 6.21945C20.4937 6.12362 20.3646 6.10849 20.3272 6.19801C20.2642 6.34901 20.2586 6.47399 20.2692 6.57467C19.87 6.40059 18.7704 5.99351 17.1294 5.98448C16.8127 5.9549 16.561 5.79378 16.3543 5.55217C16.1475 5.31052 15.9905 4.98843 15.8793 4.6549C15.7681 4.32134 15.7024 3.97657 15.6726 3.69216C15.6429 3.40773 15.6554 3.17258 15.6762 3.10515C15.69 3.06021 15.6703 3.01161 15.6293 2.98964C15.6293 2.98964 13.6226 1.91645 9.69974 1.44469C8.22884 1.2678 6.85778 1.21375 5.71826 1.21507L5.71808 1.21505ZM10.2993 3.34032C9.70156 3.3449 9.05995 3.36755 8.38576 3.41626C4.78432 3.67651 1.15858 4.95572 1.15858 4.95572C1.0426 4.99642 1.0945 5.17319 1.21345 5.14259C1.21345 5.14259 8.6084 3.25572 14.7859 4.36171C14.7913 4.36271 14.7969 4.36322 14.8024 4.36324H14.8027C14.8673 4.36322 14.9135 4.29954 14.8943 4.23675L14.7329 3.70705C14.7223 3.67213 14.6933 3.64617 14.6579 3.63979C14.6579 3.63979 12.8892 3.32058 10.2995 3.34035C10.2992 3.34035 10.2989 3.34035 10.2987 3.34035L10.2993 3.34032ZM14.6904 4.46853C14.0548 4.4658 12.0989 4.54721 9.16119 5.48173C5.47439 6.65451 3.37598 8.3218 3.37598 8.3218C3.28351 8.39613 3.37876 8.54172 3.48194 8.48377C3.48194 8.48377 8.94092 5.38857 15.0886 5.21291C15.1528 5.21102 15.1972 5.14678 15.177 5.08476L15.0004 4.54115C14.9881 4.50344 14.9546 4.47704 14.9156 4.47439C14.9156 4.47439 14.8373 4.46915 14.6906 4.46852L14.6904 4.46853ZM18.71 4.45947C18.6159 4.46087 18.5798 4.58492 18.6581 4.63816H18.6582C18.6638 4.64199 18.6698 4.6452 18.6761 4.64773C20.362 5.34457 21.8243 6.26562 22.9579 7.53172C22.9589 7.53285 22.9599 7.53396 22.961 7.53504L22.9611 7.53517C22.9807 7.55501 23.0077 7.56533 23.0352 7.56351L23.3103 7.54525C23.3883 7.54003 23.4278 7.44721 23.3781 7.38584C23.3781 7.38584 21.7853 5.42349 18.7485 4.46715C18.7481 4.46702 18.7478 4.46676 18.7475 4.46663C18.7459 4.46604 18.7444 4.46548 18.7428 4.46497C18.7419 4.46464 18.7411 4.46438 18.7402 4.46407C18.7304 4.46092 18.7203 4.45936 18.71 4.45947ZM23.5106 8.59126C23.5657 8.60255 23.6698 8.81063 23.7653 8.95924C23.7737 8.97132 23.7823 8.98418 23.7903 8.99434C23.7903 8.99524 23.7904 8.99588 23.7911 8.99677C23.8019 9.01243 23.8126 9.02865 23.8229 9.04169C23.8282 9.07277 23.8368 9.09176 23.7653 9.07679C23.7593 9.04485 23.749 9.03557 23.749 9.03557C23.749 9.03557 23.5763 8.93121 23.5234 8.85713C23.4704 8.78305 23.4612 8.65354 23.487 8.6044C23.4932 8.59342 23.5012 8.58944 23.5106 8.59126Z" fill="black"/>
<path opacity="0.5" d="M5.20414 0.528221C3.31014 0.530423 2.05762 0.686409 2.05762 0.686409C2.05762 0.686409 8.98267 0.348506 14.5302 2.63183C14.7188 3.48936 15.2861 4.91753 15.5917 5.60404C14.7173 6.2186 13.7313 6.79662 13.5778 8.84621C13.4244 10.8957 15.1576 12.6984 17.307 12.754C19.348 12.8646 20.7582 12.8803 22.4673 13.7812C24.0988 14.6984 25.4366 17.4927 25.569 20.006C25.712 18.1413 25.0236 14.1313 21.8115 12.9135C26.3001 13.712 26.6958 17.0942 26.6959 17.0955C26.6959 17.0955 27.0305 13.1906 20.9956 12.2903C20.2307 12.1762 19.2634 12.0883 18.285 12.0858C13.4481 12.1508 13.2717 6.4143 16.9166 6.12467C18.4271 5.99796 20.2307 6.8264 21.9939 7.66119C21.9874 7.88383 21.9965 8.08165 22.1404 8.26447C22.2842 8.44723 22.8367 8.6466 23.0133 8.74959C23.1898 8.8526 23.7554 9.21825 24.102 9.67684C24.1772 9.53391 24.8048 9.11854 24.8048 9.11854C24.8048 9.11854 24.6544 9.12186 24.3046 8.98894C23.9548 8.85602 23.5397 8.45387 23.5298 8.43064C23.52 8.40735 23.5134 8.37077 23.5952 8.35414C23.6573 8.30101 23.5167 8.12819 23.4546 8.06508C23.3925 8.00193 22.9773 7.28414 22.9675 7.26754C22.9577 7.25091 22.9544 7.23426 22.9251 7.21431C22.8335 7.18437 22.4314 7.25751 22.4314 7.25751C22.4314 7.25751 21.8129 6.94871 21.5998 6.28293C21.6029 6.39955 21.4937 6.52695 21.5998 6.79486C21.2773 6.65618 21.0003 6.41964 20.7819 5.83518C20.6519 6.16761 20.7819 6.379 20.7819 6.379C20.7819 6.379 20.0227 6.16324 19.9012 5.45135C19.7679 5.77093 19.9012 5.96315 19.9012 5.96315C19.9012 5.96315 18.6633 5.30651 16.6064 5.29696C15.2294 5.16855 14.9427 2.70581 15.0703 2.29123C15.0703 2.29123 13.0841 1.227 9.1742 0.756864C7.708 0.580535 6.3406 0.526581 5.20417 0.527901L5.20414 0.528221ZM9.78587 2.65349C9.19 2.65806 8.55038 2.68066 7.87838 2.72922C4.29462 2.98819 0.67627 4.26345 0.67627 4.26345C0.67627 4.26345 8.08022 2.36959 14.2892 3.48114H14.2893L14.1278 2.95143C14.1278 2.95143 12.3683 2.65347 9.78613 2.65347L9.78587 2.65349ZM14.1759 3.78163C13.5491 3.77894 11.6033 3.85906 8.67566 4.79039C5.00364 5.95846 2.92105 7.61418 2.92105 7.61418C2.92105 7.61418 8.39405 4.50748 14.5714 4.33097L14.3947 3.78741C14.3947 3.78741 14.3204 3.78232 14.1758 3.78169L14.1759 3.78163ZM18.1972 3.77253C19.893 4.47328 21.3689 5.40178 22.5147 6.68155L22.5148 6.68168L22.7899 6.66338C22.7899 6.66338 21.2139 4.71946 18.1972 3.77253ZM22.9966 7.80669C23.0518 7.81798 23.1559 8.02605 23.2515 8.17465C23.2599 8.18672 23.2684 8.19956 23.2765 8.20972C23.2766 8.21062 23.2767 8.21125 23.2769 8.21214C23.2877 8.2278 23.2985 8.24407 23.3089 8.25711C23.3141 8.28819 23.3228 8.30714 23.2512 8.29218C23.2452 8.26023 23.2349 8.25102 23.2349 8.25102C23.2349 8.25102 23.0622 8.14657 23.0093 8.0725C22.9563 7.99842 22.947 7.86891 22.9728 7.81977C22.9791 7.80868 22.9871 7.80474 22.9966 7.80669Z" fill="white"/>
<path d="M5.20414 0.528221C3.31014 0.530423 2.05762 0.686409 2.05762 0.686409C2.05762 0.686409 8.98267 0.348506 14.5302 2.63183C14.7188 3.48936 15.2861 4.91753 15.5917 5.60404C14.7173 6.2186 13.7313 6.79662 13.5778 8.84621C13.4244 10.8957 15.1576 12.6984 17.307 12.754C19.348 12.8646 20.7582 12.8803 22.4673 13.7812C24.0988 14.6984 25.4366 17.4927 25.569 20.006C25.712 18.1413 25.0236 14.1313 21.8115 12.9135C26.3001 13.712 26.6958 17.0942 26.6959 17.0955C26.6959 17.0955 27.0305 13.1906 20.9956 12.2903C20.2307 12.1762 19.2634 12.0883 18.285 12.0858C13.4481 12.1508 13.2717 6.4143 16.9166 6.12467C18.4271 5.99796 20.2307 6.8264 21.9939 7.66119C21.9874 7.88383 21.9965 8.08165 22.1404 8.26447C22.2842 8.44723 22.8367 8.6466 23.0133 8.74959C23.1898 8.8526 23.7554 9.21825 24.102 9.67684C24.1772 9.53391 24.8048 9.11854 24.8048 9.11854C24.8048 9.11854 24.6544 9.12186 24.3046 8.98894C23.9548 8.85602 23.5397 8.45387 23.5298 8.43064C23.52 8.40735 23.5134 8.37077 23.5952 8.35414C23.6573 8.30101 23.5167 8.12819 23.4546 8.06508C23.3925 8.00193 22.9773 7.28414 22.9675 7.26754C22.9577 7.25091 22.9544 7.23426 22.9251 7.21431C22.8335 7.18437 22.4314 7.25751 22.4314 7.25751C22.4314 7.25751 21.8129 6.94871 21.5998 6.28293C21.6029 6.39955 21.4937 6.52695 21.5998 6.79486C21.2773 6.65618 21.0003 6.41964 20.7819 5.83518C20.6519 6.16761 20.7819 6.379 20.7819 6.379C20.7819 6.379 20.0227 6.16324 19.9012 5.45135C19.7679 5.77093 19.9012 5.96315 19.9012 5.96315C19.9012 5.96315 18.6633 5.30651 16.6064 5.29696C15.2294 5.16855 14.9427 2.70581 15.0703 2.29123C15.0703 2.29123 13.0841 1.227 9.1742 0.756864C7.708 0.580535 6.3406 0.526581 5.20417 0.527901L5.20414 0.528221ZM9.78587 2.65349C9.19 2.65806 8.55038 2.68066 7.87838 2.72922C4.29462 2.98819 0.67627 4.26345 0.67627 4.26345C0.67627 4.26345 8.08022 2.36959 14.2892 3.48114H14.2893L14.1278 2.95143C14.1278 2.95143 12.3683 2.65347 9.78613 2.65347L9.78587 2.65349ZM14.1759 3.78163C13.5491 3.77894 11.6033 3.85906 8.67566 4.79039C5.00364 5.95846 2.92105 7.61418 2.92105 7.61418C2.92105 7.61418 8.39405 4.50748 14.5714 4.33097L14.3947 3.78741C14.3947 3.78741 14.3204 3.78232 14.1758 3.78169L14.1759 3.78163ZM18.1972 3.77253C19.893 4.47328 21.3689 5.40178 22.5147 6.68155L22.5148 6.68168L22.7899 6.66338C22.7899 6.66338 21.2139 4.71946 18.1972 3.77253ZM22.9966 7.80669C23.0518 7.81798 23.1559 8.02605 23.2515 8.17465C23.2599 8.18672 23.2684 8.19956 23.2765 8.20972C23.2766 8.21062 23.2767 8.21125 23.2769 8.21214C23.2877 8.2278 23.2985 8.24407 23.3089 8.25711C23.3141 8.28819 23.3228 8.30714 23.2512 8.29218C23.2452 8.26023 23.2349 8.25102 23.2349 8.25102C23.2349 8.25102 23.0622 8.14657 23.0093 8.0725C22.9563 7.99842 22.947 7.86891 22.9728 7.81977C22.9791 7.80868 22.9871 7.80474 22.9966 7.80669Z" fill="white"/>
</svg>
