<svg width="280" height="112" viewBox="0 0 280 112" fill="none" xmlns="http://www.w3.org/2000/svg">
    <path fill-rule="evenodd" clip-rule="evenodd"
        d="M134.184 69.3845C133.351 69.4338 132.142 69.5985 131.499 69.7503C130.856 69.9015 130.132 70.0721 129.892 70.1297C126.619 70.9049 124.279 72.6887 123.465 75.0292C123.127 75.9989 123.192 81.6361 123.548 82.3746C124.204 83.7312 126.493 85.3893 128.476 85.9452C128.99 86.0889 129.265 86.2341 129.303 86.383C129.347 86.5498 129.447 86.5887 129.702 86.5401C130.113 86.4615 131.396 86.7511 131.468 86.9389C131.497 87.0145 131.748 87.0549 132.048 87.0309C132.34 87.0077 133.168 87.0871 133.889 87.2068C134.995 87.3908 136.405 87.4372 142.882 87.5001C147.106 87.5412 150.629 87.6176 150.71 87.6692C150.792 87.7208 151.1 87.8151 151.397 87.8779C154.394 88.5162 154.766 89.004 154.767 92.2851C154.767 95.0468 154.671 95.3633 153.625 96.0555C151.889 97.2055 151.08 97.2601 135.758 97.2601H123.278L123.208 97.5415C123.17 97.6963 123.155 98.6952 123.175 99.7607L123.21 101.699L123.988 101.761C126.265 101.944 153.564 101.67 154.371 101.456C154.818 101.338 155.473 101.194 155.828 101.138C156.521 101.028 157.358 100.771 157.551 100.61C157.616 100.555 157.755 100.51 157.859 100.51C158.139 100.51 159.751 99.8745 160.136 99.6118C160.319 99.4876 160.505 99.3859 160.55 99.3859C160.596 99.3859 160.817 99.2452 161.043 99.0731C161.268 98.901 161.487 98.7603 161.53 98.7603C161.719 98.7603 163.024 97.418 163.343 96.8965C163.939 95.9193 163.996 95.4688 163.96 92.0718L163.926 88.9464L163.557 88.2176C162.66 86.4458 159.498 84.6658 156.151 84.0499C155.653 83.9579 154.81 83.7948 154.278 83.6863C153.486 83.5247 151.781 83.4716 144.88 83.3922C135.869 83.289 135.129 83.2351 134.244 82.6156C134.062 82.4876 133.834 82.3829 133.737 82.3829C132.271 82.3829 131.601 76.4359 132.915 75.0898C134.131 73.8432 134.11 73.8447 150.36 73.7991C160.322 73.7706 164.068 73.722 164.192 73.618C164.422 73.4272 164.441 69.6336 164.214 69.4062C164.045 69.2378 136.979 69.2176 134.184 69.3845ZM182.098 69.3919C180.766 69.4847 179.923 69.6052 178.664 69.8828C178.389 69.9434 177.939 70.0287 177.665 70.0721C176.11 70.3175 173.448 71.4795 172.335 72.3991C172.013 72.6647 171.704 72.8817 171.648 72.8825C171.511 72.884 170.675 74.1919 170.41 74.8197C169.68 76.5459 169.591 94.1766 170.303 96.0884C170.791 97.4008 171.947 98.6833 173.418 99.5422C174.51 100.18 177.032 101.136 177.622 101.136C177.774 101.136 178.296 101.245 178.781 101.378C181.116 102.022 190.381 102.204 198.105 101.76C200.934 101.597 201.58 101.635 201.936 101.987C202.164 102.213 202.296 102.31 203.628 103.23C204.101 103.557 204.643 103.937 204.833 104.074C205.697 104.699 206.347 105.137 206.412 105.137C206.451 105.137 206.668 105.291 206.895 105.48C208.381 106.721 208.435 106.731 213.322 106.697C218.935 106.657 218.761 106.679 218.2 106.081C218.035 105.905 217.854 105.762 217.798 105.762C217.742 105.762 217.373 105.516 216.977 105.216C216.581 104.915 215.948 104.467 215.571 104.219C215.193 103.971 214.659 103.598 214.384 103.392C214.109 103.185 213.77 102.965 213.63 102.902C213.489 102.839 213.295 102.691 213.197 102.573C213.1 102.456 212.906 102.308 212.765 102.246C212.626 102.182 212.285 101.961 212.011 101.754C211.736 101.547 211.301 101.238 211.043 101.068C210.424 100.658 210.453 100.445 211.168 100.135C211.494 99.9927 211.864 99.8198 211.989 99.7495C212.114 99.6792 212.449 99.5011 212.733 99.3522C214.293 98.5389 215.363 96.8516 215.564 94.8874C215.783 92.7565 215.738 77.1272 215.51 75.9345C215.172 74.162 214.097 72.7231 212.386 71.7496C212.111 71.594 211.83 71.404 211.761 71.3284C211.693 71.2528 211.412 71.1264 211.137 71.0463C210.862 70.9662 210.131 70.7238 209.513 70.5076C208.895 70.2913 208.052 70.0646 207.64 70.0032C207.227 69.9426 206.504 69.8072 206.033 69.7032C204.165 69.2894 186.814 69.0635 182.098 69.3919ZM221.691 69.5057C221.438 69.9778 221.587 94.6652 221.848 95.5399C222.174 96.6361 223.44 98.3264 224.293 98.806C224.433 98.8838 224.861 99.1322 225.246 99.3574C225.63 99.5826 226.25 99.8819 226.625 100.022C226.999 100.163 227.339 100.329 227.378 100.394C227.418 100.458 227.591 100.51 227.763 100.51C228.243 100.51 229.323 100.9 229.4 101.101C229.452 101.237 229.606 101.261 230.044 101.201C230.391 101.154 231.068 101.206 231.744 101.331C232.363 101.446 233.458 101.585 234.18 101.641C236.259 101.803 262.047 101.797 262.209 101.634C262.376 101.466 262.432 97.9695 262.274 97.5527L262.162 97.2601H249.875C235.562 97.2601 233.056 97.1367 233.056 96.4318C233.056 96.2934 232.957 96.2672 232.65 96.3226C232.146 96.4146 231.445 95.8834 231.025 95.0917L230.75 94.5724L230.713 82.0791C230.687 73.2558 230.636 69.5378 230.539 69.4211C230.279 69.1076 221.861 69.1877 221.691 69.5057ZM202.196 74.0101C203.387 74.1358 204.295 74.3386 204.511 74.5279C204.577 74.5855 204.722 74.6319 204.836 74.6319C205.148 74.6319 206.631 75.7879 206.683 76.0715C206.708 76.2077 206.821 76.4239 206.934 76.5511C207.252 76.9088 207.321 93.4583 207.009 94.4497C206.436 96.2739 204.888 96.9092 203.518 95.8834C203.106 95.5751 202.614 95.2548 202.425 95.1725C202.236 95.0895 202.082 94.9615 202.082 94.8882C202.082 94.8141 201.955 94.6989 201.801 94.6315C201.646 94.5642 201.267 94.3128 200.958 94.0726C200.648 93.8324 200.272 93.5818 200.12 93.5152C199.968 93.4486 199.743 93.3049 199.62 93.1949C199.497 93.0849 199.059 92.7729 198.647 92.5021L197.898 92.0105L193.003 92.0097C187.776 92.0097 187.713 92.018 188.437 92.6293C189.384 93.4269 189.49 93.5099 189.572 93.5114C189.618 93.5129 189.936 93.7112 190.279 93.9529C191.219 94.6143 191.856 95.058 192.067 95.1972C192.171 95.2661 192.626 95.5878 193.078 95.9118C193.531 96.2365 194.028 96.5904 194.183 96.6989C195.05 97.3095 194.547 97.3851 189.608 97.3851C184.871 97.3851 182.348 97.0678 182.348 96.4722C182.348 96.36 182.234 96.3196 182.005 96.351C181.54 96.4161 180.468 95.4277 180.075 94.5724L179.788 93.9477V85.3833C179.788 76.0146 179.745 76.5915 180.503 75.7572C180.841 75.3853 181.954 74.6319 182.166 74.6319C182.248 74.6319 182.59 74.5204 182.925 74.3842C184.048 73.927 198.712 73.6427 202.196 74.0101Z"
        fill="#E1900F" />
    <path fill-rule="evenodd" clip-rule="evenodd"
        d="M180.038 0.874906C178.145 1.02381 177.09 1.49071 175.955 2.68116C175.118 3.55884 174.721 5.84396 175.269 6.62737C175.384 6.79198 175.479 7.02693 175.479 7.14964C175.479 7.2716 175.535 7.37187 175.604 7.37187C175.673 7.37187 175.729 7.43697 175.729 7.51628C175.729 7.8268 176.846 9.13846 178.59 10.8736C180.346 12.6223 181.888 14.2407 182.411 14.8827C182.984 15.5883 183.348 16.1143 183.348 16.2393C183.348 16.3126 183.39 16.3732 183.443 16.3732C183.553 16.3732 183.972 17.295 183.972 17.5367C183.972 17.6257 184.017 17.7514 184.071 17.8173C184.126 17.8824 184.247 18.1607 184.34 18.4361C184.433 18.7107 184.72 19.3856 184.977 19.9363C185.235 20.4863 185.64 21.358 185.879 21.8735C186.116 22.3898 186.441 23.0924 186.601 23.4366C186.761 23.78 187.022 24.2716 187.181 24.5282C187.339 24.7841 187.469 25.0797 187.469 25.1845C187.469 25.2885 187.525 25.3745 187.594 25.3745C187.663 25.3745 187.719 25.48 187.719 25.6087C187.719 25.7382 187.806 25.9155 187.912 26.0038C188.017 26.0921 188.422 26.6188 188.811 27.1755C189.2 27.7322 189.641 28.3278 189.79 28.4999C190.798 29.6597 191.23 30.0929 191.798 30.5142C192.648 31.1434 192.718 31.4622 192.221 32.4431C192.013 32.8532 191.843 33.2834 191.842 33.3994C191.841 33.5154 191.784 33.6455 191.716 33.6882C191.647 33.7308 191.591 33.9052 191.591 34.0758C191.591 34.2471 191.399 34.9048 191.165 35.5378C190.931 36.1709 190.642 37.0261 190.525 37.4384C190.407 37.8514 190.265 38.3011 190.209 38.4388C190.083 38.75 190.009 39.2514 189.784 41.3502C189.341 45.4872 190.373 49.9018 192.54 53.1342C193.514 54.5865 195.833 56.7542 196.415 56.7542C196.464 56.7542 196.599 56.8395 196.714 56.9442C197.013 57.2151 199.636 57.4845 199.967 57.2787C200.098 57.1964 200.32 57.129 200.462 57.129C200.748 57.129 200.776 57.1111 201.619 56.3651C202.376 55.6969 202.73 54.921 203.011 53.316C203.77 48.9912 204.21 48.2295 204.982 49.9093C205.069 50.0986 205.183 50.2535 205.234 50.2535C205.287 50.2535 205.329 50.3373 205.329 50.4405C205.329 50.5438 205.371 50.6283 205.423 50.6283C205.474 50.6283 205.681 50.9239 205.881 51.2845C206.082 51.6459 206.279 51.9692 206.318 52.0036C206.358 52.038 206.663 52.4727 206.996 52.9703C207.779 54.1406 209.5 55.8331 211.324 57.2263C211.839 57.6199 212.317 58.0022 212.386 58.0763C212.555 58.2581 213.804 59.1298 213.896 59.1298C213.937 59.1298 214.316 59.3633 214.739 59.6499C215.798 60.3659 216.078 60.5433 216.476 60.7468C216.665 60.8433 216.82 60.969 216.82 61.0259C216.82 61.0827 216.907 61.1299 217.015 61.1299C217.123 61.1299 217.418 61.3259 217.671 61.5661C217.924 61.8063 218.215 61.9986 218.319 61.9941C218.439 61.9881 218.452 61.9634 218.355 61.9238C218.271 61.8901 217.9 61.5706 217.529 61.2144C217.159 60.8583 216.665 60.3936 216.432 60.1819C215.824 59.6304 213.938 57.5623 213.305 56.7542C213.009 56.3763 212.737 56.0381 212.701 56.0037C212.382 55.6992 211.449 54.4967 211.449 54.3897C211.449 54.3149 211.404 54.2536 211.348 54.2536C211.293 54.2536 211.082 54.0268 210.88 53.7492C210.678 53.4724 210.428 53.1424 210.325 53.016C209.655 52.1966 206.703 47.7588 206.703 47.571C206.703 47.5359 206.507 47.1999 206.266 46.8235C206.025 46.4472 205.829 46.1097 205.829 46.0738C205.829 46.0371 205.645 45.7109 205.419 45.3488C204.974 44.6334 204.847 44.3746 204.497 43.4729C204.164 42.6132 204.059 42.6356 202.818 43.8411C201.006 45.6002 199.834 47.4281 199.834 48.4929C199.834 48.5804 199.754 48.8296 199.656 49.0466C199.557 49.2636 199.449 49.6654 199.414 49.9407C199.38 50.2153 199.293 50.8625 199.222 51.3781C199.151 51.8944 199.041 52.7264 198.978 53.2285C198.81 54.5521 198.174 54.9779 197.336 54.3261C197.233 54.2461 196.989 54.1002 196.793 54.0021C196.317 53.7635 195.337 52.7429 195.337 52.4855C195.337 52.3725 195.267 52.2528 195.181 52.2198C195.01 52.154 194.348 50.9845 193.961 50.0657C193.66 49.3496 193.427 48.8139 193.321 48.5984C193.262 48.4786 193.215 48.2512 193.215 48.0918C193.215 47.9332 193.164 47.7491 193.102 47.684C193.04 47.6189 192.962 47.3398 192.928 47.0652C192.893 46.7899 192.798 46.3117 192.717 46.0027C192.404 44.8138 192.504 40.4426 192.881 38.7515C193.188 37.3778 194.076 35.1323 194.358 35.0216C194.416 34.9984 194.463 34.8996 194.463 34.8008C194.463 34.7028 194.514 34.5247 194.578 34.405C194.815 33.9568 195.204 33.0163 195.283 32.7005C195.329 32.5202 195.415 32.3421 195.477 32.3047C195.537 32.2665 195.586 31.8595 195.584 31.3993C195.58 30.4004 195.248 29.8617 194.204 29.1584C193.048 28.3787 191.705 26.8463 190.5 24.9323C190.346 24.6876 189.168 22.288 188.968 21.8114C188.91 21.6737 188.718 21.2412 188.54 20.8499C188.363 20.4593 188.218 20.0545 188.218 19.9513C188.218 19.848 188.162 19.7283 188.093 19.6856C188.025 19.6437 187.969 19.4716 187.969 19.3033C187.969 19.1357 187.913 18.998 187.844 18.998C187.775 18.998 187.719 18.9426 187.719 18.8753C187.719 18.8072 187.438 18.154 187.094 17.4237C186.751 16.6927 186.47 16.0739 186.47 16.0485C186.47 15.913 185.458 14.4397 184.822 13.6511C183.7 12.2571 183.677 12.2324 181.374 9.9503C178.401 7.00373 177.646 5.76016 178.101 4.56223C178.272 4.11029 178.83 3.62094 179.174 3.62094C179.332 3.62094 179.496 3.56483 179.538 3.49599C179.636 3.33886 180.8 3.33362 181.504 3.48776C183.037 3.82297 183.797 4.02649 183.903 4.1305C183.969 4.1941 184.152 4.24647 184.311 4.24647C184.47 4.24647 184.698 4.29511 184.816 4.35572C184.936 4.41632 185.258 4.5323 185.533 4.61311C185.808 4.69467 186.258 4.84881 186.533 4.95655C186.807 5.06355 187.144 5.19075 187.282 5.23939C187.419 5.28727 187.842 5.47733 188.221 5.66139C188.6 5.84546 188.97 5.9966 189.044 5.9966C189.233 5.9966 189.947 6.36249 190.034 6.50466C190.074 6.56901 190.204 6.62138 190.323 6.62138C190.441 6.62138 191.154 7.00523 191.907 7.47363C193.846 8.68054 193.388 8.58701 198.647 8.84964C200.883 8.96188 202.661 9.18859 202.887 9.39062C202.953 9.44898 203.147 9.49687 203.318 9.49687C203.661 9.49687 205.637 10.0558 205.983 10.2496C206.102 10.3169 206.31 10.3723 206.444 10.3723C206.578 10.3723 206.723 10.4284 206.765 10.4973C206.808 10.5661 206.929 10.6222 207.035 10.6222C207.141 10.6222 207.433 10.712 207.683 10.822C208.26 11.0757 208.531 11.1834 209.076 11.3772C209.316 11.4625 209.963 11.7401 210.512 11.9937C211.062 12.2474 211.708 12.5325 211.948 12.6275C212.189 12.7225 212.715 12.9852 213.116 13.2111C213.517 13.4378 213.911 13.6264 213.99 13.6316C214.069 13.6369 214.303 13.7476 214.509 13.8771C214.715 14.0073 215.108 14.231 215.383 14.3739C215.658 14.5168 216.108 14.769 216.383 14.9351C216.657 15.1004 216.966 15.2763 217.07 15.3257C217.173 15.375 217.553 15.6025 217.915 15.8315C218.277 16.0604 218.603 16.2482 218.639 16.2482C218.674 16.2482 218.772 16.3066 218.855 16.3792C218.938 16.451 219.511 16.8461 220.129 17.2561C220.747 17.6661 221.357 18.0717 221.484 18.1562C222.341 18.7309 224.82 20.6801 225.496 21.3116C225.643 21.4485 226.069 21.8144 226.443 22.1242C227.363 22.8851 229.668 25.1979 230.804 26.4999C231.314 27.0842 231.793 27.6185 231.869 27.6873C232.425 28.1879 235.261 32.1378 235.505 32.7507C235.788 33.46 236.819 35.4563 237.265 36.1611C237.56 36.6273 237.802 37.0388 237.802 37.0762C237.802 37.1129 237.929 37.3216 238.083 37.5409C238.388 37.9719 238.414 38.0123 239.203 39.3142C239.495 39.7953 239.776 40.2076 239.829 40.2308C239.882 40.254 239.925 40.3154 239.925 40.3685C239.925 40.4209 240.226 40.9648 240.593 41.5769C240.96 42.1889 241.403 42.9424 241.576 43.2522C242.627 45.1235 243.874 47.0794 245.247 49.0032C246.162 50.2864 247.765 51.503 248.539 51.503C248.671 51.503 248.809 51.5539 248.847 51.6153C248.885 51.6766 249.128 51.7559 249.385 51.7911C250.192 51.9011 251.041 52.1435 251.041 52.2632C251.041 52.3268 251.291 52.3785 251.596 52.3785C251.901 52.3785 252.185 52.4346 252.227 52.5034C252.27 52.5723 252.503 52.6284 252.746 52.6284C252.989 52.6284 253.338 52.7055 253.52 52.7997C253.975 53.0362 254.69 53.2539 255.008 53.2539C255.153 53.2539 255.303 53.304 255.342 53.3654C255.38 53.4268 255.622 53.5053 255.88 53.5405C256.654 53.6437 257.334 53.8547 257.47 54.0328C257.54 54.1249 257.693 54.181 257.81 54.1563C257.982 54.1211 259.241 54.6367 260.158 55.117C260.262 55.1716 260.809 55.4545 261.375 55.7455C261.942 56.0374 262.437 56.3269 262.476 56.3898C262.515 56.4526 262.628 56.5043 262.729 56.5043C262.829 56.5043 263.121 56.6412 263.377 56.8088C263.835 57.1096 266.787 58.6891 267.153 58.8298C268.314 59.2772 270.154 60.4325 270.44 60.8942C270.771 61.4307 270.606 61.4621 267.008 61.5414C265.129 61.5826 263.136 61.6836 262.577 61.7659C261.852 61.8721 261.454 61.8774 261.184 61.7831C260.855 61.6679 260.798 61.6821 260.744 61.8908C260.695 62.0779 260.569 62.1303 260.161 62.1303C259.876 62.1303 259.536 62.1871 259.406 62.2567C259.276 62.3263 258.956 62.3989 258.696 62.4183C258.435 62.4378 258.1 62.5216 257.95 62.6047C257.799 62.687 257.536 62.7551 257.364 62.7551C257.192 62.7551 257.016 62.8112 256.973 62.88C256.931 62.9489 256.734 63.005 256.536 63.005C256.339 63.005 256.141 63.0611 256.1 63.1299C256.057 63.1988 255.919 63.2549 255.794 63.2549C254.744 63.2549 253.879 63.9747 254.321 64.479C254.424 64.5965 254.636 64.9459 254.791 65.2542C255.261 66.1887 258.693 69.3807 259.228 69.3807C259.261 69.3807 259.516 69.5244 259.794 69.7002C260.958 70.4357 263.959 72.0063 264.201 72.0063C264.297 72.0063 264.439 72.0849 264.519 72.1806C264.599 72.2771 264.872 72.3939 265.127 72.441C265.383 72.4889 265.76 72.6041 265.966 72.6977C266.172 72.7912 266.636 72.9618 266.998 73.077C267.36 73.1922 267.687 73.3359 267.724 73.3965C267.761 73.4571 267.953 73.5065 268.151 73.5065C268.35 73.5065 268.546 73.5626 268.589 73.6315C268.631 73.7003 268.8 73.7564 268.963 73.7564C269.127 73.7564 269.292 73.8065 269.33 73.8679C269.368 73.9293 269.546 74.0161 269.726 74.061C270.151 74.1679 272.003 74.9865 272.148 75.1317C272.183 75.1661 272.52 75.3554 272.897 75.5529C274.317 76.2922 275.195 76.7748 275.509 76.9866C275.687 77.107 276.047 77.315 276.31 77.4497C276.572 77.5844 276.881 77.7812 276.997 77.8867C277.666 78.4958 278.596 78.8272 278.101 78.2795C277.987 78.1531 277.894 77.9877 277.894 77.9114C277.894 77.7281 276.63 76.5069 276.44 76.5069C276.358 76.5069 276.272 76.4643 276.249 76.4112C276.226 76.358 276.042 76.1867 275.84 76.0303C275.637 75.8732 275.07 75.3681 274.578 74.9072C274.087 74.4463 273.494 73.921 273.26 73.7407C271.968 72.7403 271.124 72.1312 271.028 72.1312C270.969 72.1312 270.901 72.0893 270.878 72.0377C270.83 71.9292 269.818 71.2566 269.703 71.2566C269.661 71.2566 269.45 71.1301 269.233 70.9752C269.017 70.8203 268.615 70.5786 268.34 70.438C268.065 70.2973 267.559 70.0369 267.215 69.8581C266.63 69.5543 265.95 69.24 264.686 68.6893C264.394 68.5621 264.155 68.4125 264.155 68.3571C264.155 68.301 264.042 68.2561 263.903 68.2561C263.667 68.2561 263.169 68.0346 263.031 67.8678C262.997 67.8266 262.758 67.6934 262.5 67.5722C262.242 67.4518 262.032 67.3021 262.032 67.2415C262.032 67.1809 261.948 67.1308 261.846 67.1308C261.668 67.1308 261.541 67.0395 260.586 66.2209C260.124 65.8258 259.823 65.1524 260.069 65.0656C260.152 65.0364 260.867 64.8958 261.657 64.7536C262.447 64.6107 263.347 64.4393 263.655 64.372C264.847 64.1124 267.246 63.7667 267.888 63.7607C268.258 63.7577 269.049 63.6904 269.646 63.6103C270.428 63.5063 270.839 63.5033 271.116 63.5998C271.443 63.7135 271.508 63.7016 271.556 63.5198C271.628 63.2451 273.5 62.8553 274.025 63.0057C274.311 63.088 274.385 63.0633 274.436 62.868C274.472 62.7296 274.608 62.6301 274.759 62.6301C275.027 62.6301 275.146 62.1946 274.901 62.1093C274.836 62.0861 274.204 61.501 273.497 60.8081C272.79 60.116 271.958 59.3768 271.649 59.1657C270.529 58.4018 268.157 56.8791 268.087 56.8791C268.048 56.8791 267.722 56.6913 267.364 56.4624C267.006 56.2334 266.447 55.8959 266.121 55.7126C265.795 55.5293 265.262 55.2293 264.936 55.0459C264.609 54.8626 264.174 54.6135 263.968 54.493C263.556 54.2513 262.04 53.4485 261.158 53.0047C260.848 52.8499 260.511 52.6748 260.408 52.6164C260.305 52.558 260.024 52.4196 259.784 52.3089C259.543 52.1981 259.249 52.056 259.13 51.9931C259.01 51.9303 258.831 51.8786 258.73 51.8786C258.63 51.8786 258.284 51.738 257.961 51.5659C257.638 51.3938 257.269 51.2531 257.141 51.2531C257.012 51.2531 256.81 51.2037 256.691 51.1431C256.571 51.0833 256.165 50.9374 255.787 50.8199C255.089 50.6036 254.646 50.4353 254.264 50.2415C254.146 50.1824 253.865 50.1016 253.639 50.0627C253.412 50.0238 253.002 49.8876 252.727 49.7604C252.452 49.6332 252.059 49.4925 251.853 49.4476C251.647 49.4027 251.337 49.3354 251.166 49.298C250.599 49.1753 250.058 48.8775 249.641 48.4592C249.201 48.0185 248.044 46.4778 248.044 46.3327C248.044 46.2848 247.664 45.6713 247.201 44.9694C246.737 44.2676 246.271 43.5522 246.165 43.3794C246.058 43.2058 245.602 42.498 245.151 41.8066C244.699 41.1145 244.176 40.2705 243.989 39.9308C243.8 39.5918 243.589 39.2431 243.518 39.1563C243.359 38.9618 243.01 38.3595 242.648 37.6576C242.497 37.365 242.328 37.1264 242.273 37.1264C242.218 37.1264 242.174 37.0687 242.174 36.9984C242.174 36.9288 242.029 36.6415 241.851 36.3609C241.308 35.4989 240.276 33.6104 239.4 31.8752C239.105 31.2908 238.822 30.794 238.77 30.7708C238.719 30.7484 238.676 30.6705 238.676 30.598C238.676 30.4513 237.125 28.2777 236.588 27.6709C236.397 27.4561 236.073 27.0618 235.869 26.7962C235.173 25.8908 230.809 21.4163 229.665 20.4361C229.287 20.1121 228.609 19.5629 228.069 19.1432C227.834 18.9606 227.354 18.5857 227.003 18.3111C225.6 17.2112 225.341 17.0152 224.469 16.3934C223.97 16.0387 223.532 15.7477 223.496 15.7477C223.458 15.7477 223.361 15.6893 223.278 15.6182C223.195 15.5464 222.693 15.2074 222.163 14.8632C221.279 14.2908 220.602 13.889 219.068 13.0256C218.759 12.852 218.487 12.6619 218.464 12.6036C218.441 12.5452 218.315 12.4973 218.183 12.4973C218.051 12.4973 217.943 12.4554 217.942 12.4038C217.94 12.3522 217.589 12.1411 217.161 11.9346C216.732 11.7289 216.354 11.5313 216.32 11.4969C216.285 11.4625 215.808 11.2126 215.258 10.941C214.709 10.6694 214.183 10.3903 214.091 10.3214C213.997 10.2518 213.836 10.183 213.73 10.1673C213.625 10.1516 213.026 9.88745 212.4 9.58067C211.774 9.27314 211.023 8.92147 210.731 8.79801C210.439 8.67455 210.2 8.5279 210.2 8.47253C210.2 8.41716 210.063 8.37152 209.895 8.37152C209.728 8.37152 209.556 8.3154 209.513 8.24656C209.47 8.17772 209.326 8.1216 209.192 8.1216C209.058 8.1216 208.85 8.07297 208.731 8.01311C208.415 7.85598 207.688 7.60607 207.327 7.53199C207.155 7.49682 206.959 7.40404 206.89 7.32548C206.821 7.24766 206.484 7.17957 206.141 7.17433C205.404 7.16236 204.115 6.92741 203.911 6.76879C203.832 6.70668 203.521 6.64907 203.219 6.63934C202.917 6.62962 202.608 6.5735 202.532 6.51364C202.394 6.40514 201.044 6.30338 197.523 6.13578C195.447 6.03626 195.682 6.11632 193.62 4.80616C193.019 4.42381 192.401 4.07887 192.247 4.03996C192.092 4.00105 191.966 3.91874 191.966 3.85739C191.966 3.79603 191.884 3.7459 191.785 3.7459C191.685 3.7459 191.34 3.60523 191.017 3.43314C190.694 3.26179 190.373 3.12112 190.302 3.12112C190.083 3.12112 189.218 2.70286 189.218 2.59661C189.218 2.54124 189.102 2.49559 188.961 2.49559C188.82 2.49559 188.132 2.30704 187.431 2.07658C184.387 1.07319 182.143 0.708797 180.038 0.874906ZM196.462 14.3395C195.881 14.448 195.982 14.6605 197.134 15.7604C197.767 16.3635 198.365 17.0152 198.464 17.209C198.561 17.402 198.77 17.735 198.925 17.9475C199.082 18.16 199.21 18.3994 199.21 18.4787C199.21 18.558 199.266 18.6231 199.334 18.6231C199.403 18.6231 199.459 18.7137 199.459 18.8244C199.459 19.1432 200.053 18.9284 200.438 18.4698C201.081 17.7051 201.249 16.7443 200.833 16.2138C200.696 16.0387 200.583 15.8374 200.583 15.7656C200.583 15.5845 199.844 15.0391 199.016 14.6088C198.324 14.2504 197.443 14.1569 196.462 14.3395ZM8.97827 68.6848C8.93491 68.7297 8.37354 68.8165 7.72919 68.8779C4.09036 69.2273 1.88075 70.212 1.05028 71.8529L0.687744 72.569V87.1334V101.699L4.74667 101.735C8.83923 101.773 9.86779 101.724 9.86779 101.496C9.86779 101.427 9.81173 101.406 9.74296 101.449C9.65999 101.5 9.61813 96.9324 9.61813 87.842C9.61813 73.3494 9.61887 73.3284 10.1571 74.3565C10.2542 74.5428 10.6302 75.2005 10.992 75.8193C11.8337 77.2574 11.9862 77.5216 12.5483 78.5077C12.8032 78.9544 13.0551 79.3764 13.109 79.4453C13.1919 79.5515 13.464 80.0349 14.1652 81.3204C14.2399 81.458 14.3296 81.5987 14.364 81.6331C14.3984 81.6676 14.5389 81.916 14.6757 82.1853C15.1108 83.0376 15.1706 83.1334 15.2677 83.1334C15.3201 83.1334 15.3627 83.1984 15.3627 83.2778C15.3627 83.3571 15.5032 83.6062 15.6751 83.8322C15.847 84.0574 15.9876 84.2722 15.9876 84.3103C15.9876 84.3477 16.3808 85.0316 16.8614 85.83C17.3428 86.6276 17.736 87.3055 17.736 87.3355C17.736 87.3654 17.9535 87.7403 18.2189 88.1683C18.485 88.5963 18.8692 89.2562 19.0725 89.6341C19.2758 90.0127 19.592 90.5596 19.7752 90.8507C19.959 91.1418 20.1093 91.4044 20.1093 91.4343C20.1093 91.4643 20.3619 91.9169 20.6714 92.4407C20.9801 92.9637 21.2328 93.4463 21.2328 93.5137C21.2328 93.5803 21.2776 93.6349 21.3315 93.6349C21.386 93.6349 21.5961 93.9581 21.7994 94.354C22.0027 94.749 22.1971 95.1007 22.2329 95.1351C22.3458 95.2451 22.9819 96.2522 22.9819 96.3211C22.9819 96.3749 23.485 97.2234 24.3289 98.592C25.5952 100.645 27.1627 101.598 29.9755 102.025C31.3053 102.226 33.6637 102.279 34.4718 102.124C36.1118 101.812 36.9415 101.603 37.4371 101.377C37.7279 101.244 38.0291 101.136 38.1061 101.136C38.5546 101.136 41.0916 98.2156 41.0916 97.6993C41.0916 97.6664 41.2882 97.3327 41.5289 96.9563C41.7688 96.5799 41.9654 96.2425 41.9654 96.2058C41.9654 96.1692 42.4625 95.3087 43.0702 94.2934C44.5421 91.8316 45.9803 89.3946 46.1866 89.0093C46.3622 88.6823 47.041 87.5008 47.2996 87.0713C47.3826 86.9337 47.5082 86.7084 47.5784 86.5715C47.6487 86.4338 47.8475 86.0964 48.0202 85.821C48.1929 85.5457 48.373 85.2367 48.4201 85.1334C48.4679 85.0301 48.7498 84.5655 49.0458 84.1008C49.3418 83.6362 49.5847 83.2254 49.5847 83.1887C49.5847 83.1513 49.7813 82.8131 50.0213 82.4375C50.2619 82.0611 50.4585 81.7162 50.4585 81.6713C50.4585 81.6271 50.5385 81.5014 50.6364 81.3929C50.7344 81.2844 50.987 80.8669 51.1978 80.4659C51.5716 79.7536 52.2047 78.6656 52.79 77.7288C52.9507 77.4722 53.0815 77.232 53.0815 77.1953C53.0815 77.1579 53.225 76.8998 53.4007 76.6214C53.758 76.0543 54.122 75.419 54.4801 74.7344C55.3352 73.1024 55.3255 72.9573 55.3278 87.964C55.3292 100.29 55.3487 101.616 55.5273 101.685C55.7852 101.784 63.7416 101.784 63.9995 101.685C64.2372 101.594 64.3097 72.5907 64.072 72.444C64.0032 72.4014 63.9472 72.2293 63.9472 72.0617C63.9472 71.894 63.8911 71.7564 63.8223 71.7564C63.7536 71.7564 63.696 71.686 63.6938 71.6C63.6743 70.7567 61.6135 69.6852 59.0772 69.1996C52.6988 67.9785 48.7049 69.0485 46.4175 72.5914C45.8666 73.4444 45.7373 73.6666 44.9674 75.0696C44.7409 75.4819 44.5129 75.8762 44.4606 75.9443C44.4083 76.0131 44.2543 76.2668 44.1182 76.5069C43.3558 77.8583 42.2764 79.7289 41.6059 80.8617C41.1858 81.5725 40.8419 82.2048 40.8419 82.2684C40.8419 82.3312 40.7851 82.3829 40.7171 82.3829C40.6483 82.3829 40.5915 82.442 40.5915 82.5138C40.5915 82.5864 40.3949 82.953 40.155 83.3294C39.9143 83.705 39.7177 84.0395 39.7177 84.0709C39.7177 84.1023 39.5331 84.4248 39.3073 84.787C39.0816 85.1499 38.7863 85.6624 38.6518 85.9273C38.5165 86.1914 38.2825 86.5431 38.1315 86.7084C37.9798 86.8738 37.8863 87.0085 37.923 87.0085C37.9603 87.0085 37.8377 87.2764 37.6516 87.6026C37.4655 87.9296 37.1134 88.5618 36.8705 89.0093C36.6268 89.456 36.2874 90.0471 36.1155 90.3217C35.9436 90.597 35.6364 91.1313 35.4323 91.5091C35.2282 91.8877 34.9853 92.2858 34.8918 92.3943C34.7984 92.5028 34.7222 92.6322 34.7222 92.6816C34.7222 92.731 34.5248 93.0797 34.2849 93.4553C34.0442 93.8317 33.8476 94.1706 33.8476 94.208C33.8476 94.2455 33.7153 94.4557 33.5531 94.6742C33.3909 94.8934 33.1808 95.2556 33.0851 95.4786C32.9902 95.7023 32.8699 95.8848 32.8175 95.8848C32.766 95.8848 32.7219 95.9552 32.7196 96.0412C32.7174 96.1273 32.6 96.336 32.4587 96.5059L32.2031 96.8142L31.9639 96.5059C31.8323 96.336 31.6298 95.9866 31.5131 95.7292C31.3965 95.4711 31.256 95.2601 31.2007 95.2601C31.1454 95.2601 31.0998 95.2092 31.0998 95.1471C31.0998 95.085 30.8965 94.6772 30.6475 94.241C30.3986 93.804 30.0989 93.2787 29.9808 93.0722C29.4986 92.2275 28.9104 91.1635 28.6323 90.6345C28.4693 90.3247 28.2189 89.875 28.0754 89.6341C27.6187 88.8694 27.1201 87.9617 26.8914 87.4776C26.7695 87.2195 26.6267 87.0085 26.5744 87.0085C26.5213 87.0085 26.4787 86.8963 26.4787 86.7586C26.4787 86.6209 26.4354 86.5087 26.3823 86.5087C26.3292 86.5087 26.176 86.2977 26.0422 86.0395C25.9084 85.7821 25.6662 85.3541 25.5047 85.09C25.3433 84.8251 25.0652 84.347 24.8873 84.0268C24.7094 83.7073 24.4515 83.2486 24.3147 83.0084C24.1772 82.7675 23.9806 82.4016 23.8782 82.1958C23.7758 81.9893 23.5964 81.6795 23.4798 81.5082C23.3632 81.3361 22.9797 80.6477 22.6276 79.9788C21.8741 78.5466 21.6917 78.2167 21.608 78.1321C21.5736 78.0977 21.4839 77.957 21.4092 77.8201C20.8291 76.7554 20.415 76.0236 20.2461 75.7624C20.0413 75.4474 19.6757 74.7815 19.2826 74.0071C19.1607 73.7661 19.0239 73.5409 18.9791 73.5065C18.9342 73.4721 18.7421 73.1631 18.5522 72.8189C17.5805 71.0605 16.1303 69.8716 14.3012 69.3328C13.8893 69.2116 13.4393 69.0627 13.3026 69.0029C12.8787 68.8173 9.11655 68.5412 8.97827 68.6848ZM107.067 79.2156C106.945 79.265 106.911 81.1887 106.91 88.2378C106.908 93.6648 106.861 97.2721 106.789 97.3851C106.638 97.6238 87.8836 97.7405 85.6792 97.516C83.525 97.2968 82.2684 96.8097 81.6024 95.935L81.2772 95.5085L81.2996 87.5165C81.3221 79.6525 81.3183 79.5216 81.0732 79.3907C80.9117 79.3039 79.3419 79.2575 76.5702 79.2575H72.3154L72.284 86.665C72.2422 96.6974 72.1884 96.0525 73.1766 97.3701C73.4995 97.8003 74.7052 98.7603 74.9227 98.7603C74.9885 98.7603 75.061 98.8037 75.0842 98.8561C75.1985 99.1195 77.7251 100.207 78.9345 100.513C82.5128 101.42 83.96 101.509 96.358 101.571C101.922 101.6 106.544 101.626 106.63 101.63C106.747 101.634 106.786 102.035 106.786 103.2C106.786 104.837 106.74 105.022 106.162 105.679C104.842 107.181 103.93 107.255 86.7527 107.252C78.8972 107.251 72.6032 107.298 72.5427 107.359C72.4829 107.419 72.4492 108.392 72.4687 109.521L72.5031 111.575L88.3022 111.565C98.9832 111.558 104.344 111.511 104.85 111.421C106.215 111.176 107.716 110.886 108.285 110.758C108.595 110.689 109.072 110.596 109.345 110.552C109.619 110.508 109.918 110.396 110.01 110.304C110.102 110.212 110.258 110.137 110.356 110.137C110.456 110.137 110.635 110.087 110.753 110.027C110.873 109.965 111.308 109.758 111.72 109.566C113.802 108.596 115.072 107.242 115.699 105.324C115.947 104.564 116.02 79.8336 115.776 79.3764C115.649 79.1407 107.62 78.9926 107.067 79.2156Z"
        fill="#FFFFFF" />
    <circle cx="274" cy="96.5" r="5.5" stroke="#E1900F" />
    <path
        d="M271.574 100C271.411 100 271.33 99.9105 271.33 99.7314V93.2666C271.33 93.0876 271.411 92.998 271.574 92.998H273.933C274.873 92.998 275.554 93.1738 275.974 93.5254C276.397 93.877 276.608 94.3408 276.608 94.917C276.608 95.4248 276.438 95.8512 276.096 96.1963C275.757 96.5413 275.274 96.7399 274.646 96.792V96.8018C274.978 97.0492 275.197 97.238 275.305 97.3682C275.412 97.4951 275.533 97.6676 275.666 97.8857L276.77 99.6777C276.903 99.8926 276.874 100 276.682 100H276.125C275.972 100 275.858 99.9365 275.783 99.8096L274.768 98.0664C274.621 97.8158 274.411 97.57 274.138 97.3291C273.864 97.0882 273.524 96.9678 273.117 96.9678H272.268V99.7314C272.268 99.9105 272.186 100 272.023 100H271.574ZM272.268 96.167H273.679C274.313 96.167 274.802 96.084 275.144 95.918C275.485 95.7487 275.656 95.3955 275.656 94.8584C275.656 94.4482 275.5 94.1699 275.188 94.0234C274.875 93.8737 274.45 93.7988 273.913 93.7988H272.268V96.167Z"
        fill="#E1900F" />
</svg>