<svg width="169" height="169" viewBox="0 0 169 169" fill="none" xmlns="http://www.w3.org/2000/svg">
<mask id="path-1-inside-1_414_2" fill="white">
<path fill-rule="evenodd" clip-rule="evenodd" d="M158.057 159.897C161.314 159.897 163.954 157.257 163.954 154C163.954 150.743 161.314 148.102 158.057 148.102C154.799 148.102 152.159 150.743 152.159 154C152.159 157.257 154.799 159.897 158.057 159.897ZM158.057 158.325C160.445 158.325 162.381 156.388 162.381 154C162.381 151.611 160.445 149.675 158.057 149.675C155.668 149.675 153.732 151.611 153.732 154C153.732 156.388 155.668 158.325 158.057 158.325Z"/>
</mask>
<path fill-rule="evenodd" clip-rule="evenodd" d="M158.057 159.897C161.314 159.897 163.954 157.257 163.954 154C163.954 150.743 161.314 148.102 158.057 148.102C154.799 148.102 152.159 150.743 152.159 154C152.159 157.257 154.799 159.897 158.057 159.897ZM158.057 158.325C160.445 158.325 162.381 156.388 162.381 154C162.381 151.611 160.445 149.675 158.057 149.675C155.668 149.675 153.732 151.611 153.732 154C153.732 156.388 155.668 158.325 158.057 158.325Z" fill="#DFC53F"/>
<path d="M163.554 154C163.554 157.036 161.093 159.497 158.057 159.497V160.297C161.535 160.297 164.354 157.478 164.354 154H163.554ZM158.057 148.502C161.093 148.502 163.554 150.963 163.554 154H164.354C164.354 150.522 161.535 147.702 158.057 147.702V148.502ZM152.559 154C152.559 150.963 155.02 148.502 158.057 148.502V147.702C154.578 147.702 151.759 150.522 151.759 154H152.559ZM158.057 159.497C155.02 159.497 152.559 157.036 152.559 154H151.759C151.759 157.478 154.578 160.297 158.057 160.297V159.497ZM161.981 154C161.981 156.167 160.224 157.925 158.057 157.925V158.725C160.666 158.725 162.781 156.609 162.781 154H161.981ZM158.057 150.075C160.224 150.075 161.981 151.832 161.981 154H162.781C162.781 151.39 160.666 149.275 158.057 149.275V150.075ZM154.132 154C154.132 151.832 155.889 150.075 158.057 150.075V149.275C155.447 149.275 153.332 151.39 153.332 154H154.132ZM158.057 157.925C155.889 157.925 154.132 156.167 154.132 154H153.332C153.332 156.609 155.447 158.725 158.057 158.725V157.925Z" fill="#867728" mask="url(#path-1-inside-1_414_2)"/>
<path fill-rule="evenodd" clip-rule="evenodd" d="M155.675 151.065V156.934H157.088V154.732H157.636L158.88 156.93H160.438L159.136 154.569C160.438 154.569 161.473 151.292 158.317 151.065L155.675 151.065ZM157.15 152.197V153.552H158.375C158.664 153.468 159.38 152.638 158.261 152.197H157.15Z" fill="#DFC53F"/>
<path d="M155.675 156.934H155.475V157.134H155.675V156.934ZM155.675 151.065L155.675 150.865L155.475 150.865V151.065H155.675ZM157.088 156.934V157.134H157.288V156.934H157.088ZM157.088 154.732V154.532H156.888V154.732H157.088ZM157.636 154.732L157.81 154.634L157.753 154.532H157.636V154.732ZM158.88 156.93L158.706 157.029L158.763 157.13H158.88V156.93ZM160.438 156.93V157.13H160.777L160.613 156.834L160.438 156.93ZM159.136 154.569V154.369H158.798L158.961 154.665L159.136 154.569ZM158.317 151.065L158.332 150.865L158.325 150.865L158.317 150.865L158.317 151.065ZM157.15 153.552H156.95V153.752H157.15V153.552ZM157.15 152.197V151.997H156.95V152.197H157.15ZM158.375 153.552V153.752H158.404L158.431 153.744L158.375 153.552ZM158.261 152.197L158.334 152.011L158.299 151.997H158.261V152.197ZM155.875 156.934V151.065H155.475V156.934H155.875ZM157.088 156.734H155.675V157.134H157.088V156.734ZM156.888 154.732V156.934H157.288V154.732H156.888ZM157.636 154.532H157.088V154.932H157.636V154.532ZM159.054 156.832L157.81 154.634L157.462 154.831L158.706 157.029L159.054 156.832ZM160.438 156.73H158.88V157.13H160.438V156.73ZM158.961 154.665L160.263 157.027L160.613 156.834L159.311 154.472L158.961 154.665ZM158.303 151.264C159.057 151.319 159.532 151.553 159.815 151.847C160.098 152.14 160.21 152.516 160.198 152.895C160.186 153.278 160.047 153.655 159.841 153.934C159.631 154.216 159.375 154.369 159.136 154.369V154.769C159.548 154.769 159.909 154.512 160.162 154.172C160.416 153.829 160.583 153.373 160.598 152.908C160.613 152.44 160.474 151.954 160.104 151.569C159.734 151.185 159.155 150.925 158.332 150.865L158.303 151.264ZM155.675 151.265L158.317 151.265L158.317 150.865L155.675 150.865L155.675 151.265ZM157.35 153.552V152.197H156.95V153.552H157.35ZM158.375 153.352H157.15V153.752H158.375V153.352ZM158.188 152.383C158.443 152.484 158.565 152.596 158.621 152.687C158.673 152.773 158.679 152.863 158.653 152.955C158.626 153.053 158.565 153.151 158.491 153.23C158.412 153.314 158.343 153.353 158.32 153.36L158.431 153.744C158.552 153.709 158.681 153.613 158.783 153.504C158.889 153.39 158.991 153.237 159.039 153.062C159.088 152.882 159.081 152.675 158.962 152.479C158.846 152.288 158.638 152.131 158.334 152.011L158.188 152.383ZM157.15 152.397H158.261V151.997H157.15V152.397Z" fill="#867728"/>
<mask id="path-5-inside-2_414_2" fill="white">
<path fill-rule="evenodd" clip-rule="evenodd" d="M84.3315 168.663C130.906 168.663 168.663 130.906 168.663 84.3315C168.663 37.7565 130.906 0 84.3315 0C37.7565 0 0 37.7565 0 84.3315C0 130.906 37.7565 168.663 84.3315 168.663ZM84.1396 165.92C129.306 165.92 165.92 129.306 165.92 84.1395C165.92 38.9734 129.306 2.35905 84.1396 2.35905C38.9735 2.35905 2.35912 38.9734 2.35912 84.1395C2.35912 129.306 38.9735 165.92 84.1396 165.92Z"/>
</mask>
<path fill-rule="evenodd" clip-rule="evenodd" d="M84.3315 168.663C130.906 168.663 168.663 130.906 168.663 84.3315C168.663 37.7565 130.906 0 84.3315 0C37.7565 0 0 37.7565 0 84.3315C0 130.906 37.7565 168.663 84.3315 168.663ZM84.1396 165.92C129.306 165.92 165.92 129.306 165.92 84.1395C165.92 38.9734 129.306 2.35905 84.1396 2.35905C38.9735 2.35905 2.35912 38.9734 2.35912 84.1395C2.35912 129.306 38.9735 165.92 84.1396 165.92Z" fill="#C9B135"/>
<path d="M167.663 84.3315C167.663 130.354 130.354 167.663 84.3315 167.663V169.663C131.459 169.663 169.663 131.459 169.663 84.3315H167.663ZM84.3315 1C130.354 1 167.663 38.3088 167.663 84.3315H169.663C169.663 37.2042 131.459 -1 84.3315 -1V1ZM1 84.3315C1 38.3088 38.3088 1 84.3315 1V-1C37.2042 -1 -1 37.2042 -1 84.3315H1ZM84.3315 167.663C38.3088 167.663 1 130.354 1 84.3315H-1C-1 131.459 37.2042 169.663 84.3315 169.663V167.663ZM164.92 84.1395C164.92 128.753 128.753 164.92 84.1396 164.92V166.92C129.858 166.92 166.92 129.858 166.92 84.1395H164.92ZM84.1396 3.35905C128.753 3.35905 164.92 39.5257 164.92 84.1395H166.92C166.92 38.4211 129.858 1.35905 84.1396 1.35905V3.35905ZM3.35912 84.1395C3.35912 39.5257 39.5258 3.35905 84.1396 3.35905V1.35905C38.4212 1.35905 1.35912 38.4211 1.35912 84.1395H3.35912ZM84.1396 164.92C39.5258 164.92 3.35912 128.753 3.35912 84.1395H1.35912C1.35912 129.858 38.4212 166.92 84.1396 166.92V164.92Z" fill="#867728" mask="url(#path-5-inside-2_414_2)"/>
<mask id="path-7-inside-3_414_2" fill="white">
<path fill-rule="evenodd" clip-rule="evenodd" d="M84.1396 158.056C124.963 158.056 158.057 124.963 158.057 84.1395C158.057 43.3163 124.963 10.2225 84.1396 10.2225C43.3164 10.2225 10.2227 43.3163 10.2227 84.1395C10.2227 124.963 43.3164 158.056 84.1396 158.056ZM83.9714 155.652C123.56 155.652 155.652 123.56 155.652 83.9712C155.652 44.3829 123.56 12.2902 83.9714 12.2902C44.383 12.2902 12.2903 44.3829 12.2903 83.9712C12.2903 123.56 44.383 155.652 83.9714 155.652Z"/>
</mask>
<path fill-rule="evenodd" clip-rule="evenodd" d="M84.1396 158.056C124.963 158.056 158.057 124.963 158.057 84.1395C158.057 43.3163 124.963 10.2225 84.1396 10.2225C43.3164 10.2225 10.2227 43.3163 10.2227 84.1395C10.2227 124.963 43.3164 158.056 84.1396 158.056ZM83.9714 155.652C123.56 155.652 155.652 123.56 155.652 83.9712C155.652 44.3829 123.56 12.2902 83.9714 12.2902C44.383 12.2902 12.2903 44.3829 12.2903 83.9712C12.2903 123.56 44.383 155.652 83.9714 155.652Z" fill="#C9B135"/>
<path d="M157.057 84.1395C157.057 124.41 124.411 157.056 84.1396 157.056V159.056C125.515 159.056 159.057 125.515 159.057 84.1395H157.057ZM84.1396 11.2225C124.411 11.2225 157.057 43.8686 157.057 84.1395H159.057C159.057 42.764 125.515 9.22253 84.1396 9.22253V11.2225ZM11.2227 84.1395C11.2227 43.8686 43.8687 11.2225 84.1396 11.2225V9.22253C42.7641 9.22253 9.22266 42.764 9.22266 84.1395H11.2227ZM84.1396 157.056C43.8687 157.056 11.2227 124.41 11.2227 84.1395H9.22266C9.22266 125.515 42.7641 159.056 84.1396 159.056V157.056ZM154.652 83.9712C154.652 123.007 123.007 154.652 83.9714 154.652V156.652C124.112 156.652 156.652 124.112 156.652 83.9712H154.652ZM83.9714 13.2902C123.007 13.2902 154.652 44.9352 154.652 83.9712H156.652C156.652 43.8306 124.112 11.2902 83.9714 11.2902V13.2902ZM13.2903 83.9712C13.2903 44.9352 44.9353 13.2902 83.9714 13.2902V11.2902C43.8307 11.2902 11.2903 43.8306 11.2903 83.9712H13.2903ZM83.9714 154.652C44.9353 154.652 13.2903 123.007 13.2903 83.9712H11.2903C11.2903 124.112 43.8307 156.652 83.9714 156.652V154.652Z" fill="#867728" mask="url(#path-7-inside-3_414_2)"/>
<g filter="url(#filter0_d_414_2)">
<path fill-rule="evenodd" clip-rule="evenodd" d="M84.003 80.2256V37.6386H69.9008V85.7357L45.5253 36.6113C24.6988 53.0484 9.47586 90.1252 36.653 125.521H56.4523C56.4523 125.521 21.1499 100.679 42.817 60.6131L84.003 144.666V93.1137H92.4084V125.521H106.417V93.1137H132.007C132.007 93.1137 130.793 111.605 112.208 125.521H132.474C147.416 114.127 165.721 39.9734 92.4084 24.3769V80.2256H84.003ZM106.511 80.1322V43.1488C128.925 52.8616 132.1 80.1322 132.1 80.1322H106.511Z" fill="#DFC53F"/>
<path d="M84.003 37.6386H85.503V36.1386H84.003V37.6386ZM84.003 80.2256H82.503V81.7256H84.003V80.2256ZM69.9008 37.6386V36.1386H68.4008V37.6386H69.9008ZM69.9008 85.7357L68.5571 86.4025L71.4008 85.7357H69.9008ZM45.5253 36.6113L46.869 35.9446L46.0473 34.2885L44.596 35.4339L45.5253 36.6113ZM36.653 125.521L35.4633 126.434L35.9136 127.021H36.653V125.521ZM56.4523 125.521V127.021H61.1903L57.3155 124.294L56.4523 125.521ZM42.817 60.6131L44.164 59.9531L42.8827 57.3383L41.4975 59.8996L42.817 60.6131ZM84.003 144.666L82.656 145.326L85.503 144.666H84.003ZM84.003 93.1137V91.6137H82.503V93.1137H84.003ZM92.4084 93.1137H93.9084V91.6137H92.4084V93.1137ZM92.4084 125.521H90.9084V127.021H92.4084V125.521ZM106.417 125.521V127.021H107.917V125.521H106.417ZM106.417 93.1137V91.6137H104.917V93.1137H106.417ZM132.007 93.1137L133.504 93.212L133.608 91.6137H132.007V93.1137ZM112.208 125.521L111.309 124.32L107.702 127.021H112.208V125.521ZM132.474 125.521V127.021H132.98L133.383 126.714L132.474 125.521ZM92.4084 24.3769L92.7205 22.9097L90.9084 22.5242V24.3769H92.4084ZM92.4084 80.2256V81.7256H93.9084V80.2256H92.4084ZM106.511 43.1488L107.107 41.7724L105.011 40.864V43.1488H106.511ZM106.511 80.1322H105.011V81.6322H106.511V80.1322ZM132.1 80.1322V81.6322H133.785L133.59 79.9587L132.1 80.1322ZM106.417 80.2256H104.917V81.7256H106.417V80.2256ZM106.417 43.2421L107.014 41.8658L104.917 40.9574V43.2421H106.417ZM82.503 37.6386V80.2256H85.503V37.6386H82.503ZM69.9008 39.1386H84.003V36.1386H69.9008V39.1386ZM71.4008 85.7357V37.6386H68.4008V85.7357H71.4008ZM44.1816 37.278L68.5571 86.4025L71.2444 85.069L46.869 35.9446L44.1816 37.278ZM37.8428 124.607C11.2729 90.0026 26.1242 53.8343 46.4546 37.7888L44.596 35.4339C23.2735 52.2624 7.67879 90.2477 35.4633 126.434L37.8428 124.607ZM56.4523 124.021H36.653V127.021H56.4523V124.021ZM41.4975 59.8996C30.3895 80.4399 33.8671 97.2091 40.1925 108.81C43.3381 114.579 47.1734 119.05 50.217 122.077C51.7407 123.592 53.0712 124.751 54.026 125.535C54.5036 125.927 54.8878 126.225 55.1557 126.428C55.2897 126.53 55.3947 126.607 55.4678 126.66C55.5044 126.687 55.533 126.708 55.5534 126.722C55.5635 126.73 55.5716 126.735 55.5776 126.74C55.5805 126.742 55.583 126.743 55.5849 126.745C55.5858 126.745 55.5869 126.746 55.5874 126.746C55.5883 126.747 55.589 126.748 56.4523 125.521C57.3155 124.294 57.316 124.295 57.3164 124.295C57.3163 124.295 57.3165 124.295 57.3164 124.295C57.3162 124.295 57.3154 124.294 57.3141 124.293C57.3116 124.291 57.3069 124.288 57.3002 124.283C57.2867 124.274 57.265 124.258 57.2355 124.236C57.1763 124.193 57.0857 124.126 56.9665 124.036C56.7279 123.856 56.3747 123.581 55.9293 123.216C55.0382 122.484 53.78 121.389 52.3326 119.95C49.4342 117.067 45.7981 112.823 42.8264 107.373C36.9174 96.5365 33.5774 80.8518 44.1364 61.3267L41.4975 59.8996ZM85.35 144.006L44.164 59.9531L41.47 61.2732L82.656 145.326L85.35 144.006ZM82.503 93.1137V144.666H85.503V93.1137H82.503ZM92.4084 91.6137H84.003V94.6137H92.4084V91.6137ZM93.9084 125.521V93.1137H90.9084V125.521H93.9084ZM106.417 124.021H92.4084V127.021H106.417V124.021ZM104.917 93.1137V125.521H107.917V93.1137H104.917ZM132.007 91.6137H106.417V94.6137H132.007V91.6137ZM113.107 126.722C122.652 119.574 127.753 111.237 130.463 104.671C131.817 101.391 132.575 98.5535 132.995 96.5248C133.206 95.51 133.332 94.6964 133.406 94.1295C133.443 93.846 133.467 93.624 133.482 93.4692C133.489 93.3918 133.494 93.3312 133.498 93.2881C133.5 93.2666 133.501 93.2494 133.502 93.2367C133.502 93.2303 133.503 93.2251 133.503 93.221C133.503 93.2189 133.503 93.2171 133.503 93.2156C133.503 93.2149 133.503 93.214 133.503 93.2136C133.503 93.2128 133.504 93.212 132.007 93.1137C130.51 93.0154 130.51 93.0148 130.51 93.0143C130.51 93.0142 130.51 93.0137 130.51 93.0135C130.51 93.0131 130.51 93.013 130.51 93.0132C130.51 93.0136 130.51 93.0151 130.51 93.0177C130.509 93.0228 130.509 93.0324 130.508 93.0463C130.505 93.074 130.501 93.1189 130.496 93.1804C130.484 93.3033 130.463 93.4922 130.431 93.7415C130.366 94.2401 130.252 94.9799 130.058 95.9162C129.67 97.7895 128.963 100.444 127.69 103.527C125.147 109.686 120.348 117.552 111.309 124.32L113.107 126.722ZM132.474 124.021H112.208V127.021H132.474V124.021ZM92.0962 25.8441C110.167 29.6884 122.468 37.1104 130.582 46.1596C138.702 55.2144 142.719 65.9985 144.048 76.7097C145.379 87.4314 144.011 98.0441 141.392 106.668C140.083 110.977 138.47 114.765 136.745 117.803C135.009 120.861 133.208 123.075 131.564 124.328L133.383 126.714C135.475 125.119 137.515 122.522 139.354 119.284C141.204 116.025 142.899 112.028 144.262 107.54C146.987 98.5674 148.415 87.5305 147.026 76.3401C145.635 65.139 141.416 53.7483 132.816 44.1567C124.21 34.5596 111.306 26.8637 92.7205 22.9097L92.0962 25.8441ZM93.9084 80.2256V24.3769H90.9084V80.2256H93.9084ZM84.003 81.7256H92.4084V78.7256H84.003V81.7256ZM105.011 43.1488V80.1322H108.011V43.1488H105.011ZM132.1 80.1322C133.59 79.9587 133.59 79.9581 133.59 79.9573C133.59 79.9569 133.59 79.956 133.59 79.9552C133.589 79.9536 133.589 79.9516 133.589 79.9492C133.588 79.9444 133.588 79.9379 133.587 79.9298C133.585 79.9136 133.582 79.8909 133.578 79.8618C133.571 79.8037 133.559 79.7201 133.544 79.6125C133.513 79.3972 133.466 79.0857 133.398 78.6889C133.263 77.8955 133.045 76.7599 132.713 75.3704C132.048 72.5941 130.924 68.7897 129.08 64.6699C125.398 56.4455 118.783 46.8322 107.107 41.7724L105.914 44.5251C116.652 49.1782 122.832 58.0566 126.342 65.8957C128.093 69.8077 129.163 73.4279 129.795 76.0684C130.11 77.3873 130.316 78.4581 130.441 79.194C130.504 79.5618 130.547 79.8457 130.574 80.0347C130.587 80.1291 130.597 80.1999 130.603 80.2455C130.606 80.2683 130.608 80.2849 130.609 80.295C130.609 80.3 130.61 80.3034 130.61 80.3052C130.61 80.3061 130.61 80.3066 130.61 80.3067C130.61 80.3067 130.61 80.3065 130.61 80.3065C130.61 80.3061 130.61 80.3057 132.1 80.1322ZM106.511 81.6322H132.1V78.6322H106.511V81.6322ZM107.917 80.2256V43.2421H104.917V80.2256H107.917ZM105.821 44.6185C105.851 44.6314 105.881 44.6444 105.911 44.6575L107.111 41.908C107.078 41.894 107.046 41.8799 107.014 41.8658L105.821 44.6185ZM132.007 78.7256H106.417V81.7256H132.007V78.7256Z" fill="#867728"/>
</g>
<defs>
<filter id="filter0_d_414_2" x="16.5132" y="22.5242" width="135.052" height="130.802" filterUnits="userSpaceOnUse" color-interpolation-filters="sRGB">
<feFlood flood-opacity="0" result="BackgroundImageFix"/>
<feColorMatrix in="SourceAlpha" type="matrix" values="0 0 0 0 0 0 0 0 0 0 0 0 0 0 0 0 0 0 127 0" result="hardAlpha"/>
<feOffset dy="4"/>
<feGaussianBlur stdDeviation="2"/>
<feComposite in2="hardAlpha" operator="out"/>
<feColorMatrix type="matrix" values="0 0 0 0 0 0 0 0 0 0 0 0 0 0 0 0 0 0 0.25 0"/>
<feBlend mode="normal" in2="BackgroundImageFix" result="effect1_dropShadow_414_2"/>
<feBlend mode="normal" in="SourceGraphic" in2="effect1_dropShadow_414_2" result="shape"/>
</filter>
</defs>
</svg>
