<svg width="12" height="11" viewBox="0 0 12 11" fill="none" xmlns="http://www.w3.org/2000/svg">
<path fill-rule="evenodd" clip-rule="evenodd" d="M6.03474 5.0363V1.57718H4.88929V5.48387L2.90939 1.49374C1.21777 2.82884 -0.0187193 5.8404 2.18874 8.71541H3.79693C3.79693 8.71541 0.929505 6.69759 2.68941 3.44329L6.03474 10.2705V6.08314H6.71746V8.71541H7.85533V6.08314H9.93384C9.93384 6.08314 9.83522 7.58513 8.32565 8.71541H9.97177C11.1855 7.78994 12.6723 1.76683 6.71746 0.5V5.0363H6.03474ZM7.86292 5.02872V2.02474C9.68351 2.81367 9.94142 5.02872 9.94142 5.02872H7.86292Z" fill="#9D9D9D"/>
<path d="M6.03474 1.57718H6.08474V1.52718H6.03474V1.57718ZM6.03474 5.0363H5.98474V5.0863H6.03474V5.0363ZM4.88929 1.57718V1.52718H4.83929V1.57718H4.88929ZM4.88929 5.48387L4.8445 5.50609L4.93929 5.48387H4.88929ZM2.90939 1.49374L2.95418 1.47152L2.92679 1.41631L2.87842 1.45449L2.90939 1.49374ZM2.18874 8.71541L2.14909 8.74586L2.1641 8.76541H2.18874V8.71541ZM3.79693 8.71541V8.76541H3.95487L3.82571 8.67452L3.79693 8.71541ZM2.68941 3.44329L2.73431 3.42129L2.6916 3.33412L2.64543 3.4195L2.68941 3.44329ZM6.03474 10.2705L5.98984 10.2925L6.08474 10.2705H6.03474ZM6.03474 6.08314V6.03314H5.98474V6.08314H6.03474ZM6.71746 6.08314H6.76746V6.03314H6.71746V6.08314ZM6.71746 8.71541H6.66746V8.76541H6.71746V8.71541ZM7.85533 8.71541V8.76541H7.90533V8.71541H7.85533ZM7.85533 6.08314V6.03314H7.80533V6.08314H7.85533ZM9.93384 6.08314L9.98373 6.08642L9.98723 6.03314H9.93384V6.08314ZM8.32565 8.71541L8.29568 8.67539L8.17545 8.76541H8.32565V8.71541ZM9.97177 8.71541V8.76541H9.98866L10.0021 8.75517L9.97177 8.71541ZM6.71746 0.5L6.72787 0.451094L6.66746 0.438244V0.5H6.71746ZM6.71746 5.0363V5.0863H6.76746V5.0363H6.71746ZM7.86292 2.02474L7.8828 1.97887L7.81291 1.94859V2.02474H7.86292ZM7.86292 5.02872H7.81291V5.07872H7.86292V5.02872ZM9.94142 5.02872V5.07872H9.99758L9.99109 5.02294L9.94142 5.02872ZM7.85533 5.0363H7.80533V5.0863H7.85533V5.0363ZM7.85533 2.03233L7.87521 1.98645L7.80533 1.95617V2.03233H7.85533ZM5.98474 1.57718V5.0363H6.08474V1.57718H5.98474ZM4.88929 1.62718H6.03474V1.52718H4.88929V1.62718ZM4.93929 5.48387V1.57718H4.83929V5.48387H4.93929ZM2.86461 1.51596L4.8445 5.50609L4.93408 5.46164L2.95418 1.47152L2.86461 1.51596ZM2.2284 8.68496C0.0411831 5.83631 1.26528 2.85504 2.94037 1.53299L2.87842 1.45449C1.17025 2.80264 -0.0786216 5.84448 2.14909 8.74586L2.2284 8.68496ZM3.79693 8.66541H2.18874V8.76541H3.79693V8.66541ZM2.64543 3.4195C1.75633 5.06357 2.0355 6.39968 2.53931 7.32365C2.79064 7.78459 3.09739 8.1423 3.34114 8.38473C3.46307 8.50601 3.56941 8.5986 3.64544 8.661C3.68346 8.69221 3.71392 8.71588 3.73498 8.73182C3.74551 8.7398 3.7537 8.74584 3.7593 8.74993C3.7621 8.75197 3.76426 8.75352 3.76575 8.75459C3.76649 8.75512 3.76707 8.75553 3.76747 8.75582C3.76767 8.75596 3.76783 8.75607 3.76794 8.75615C3.768 8.75619 3.76806 8.75623 3.76808 8.75625C3.76813 8.75628 3.76816 8.7563 3.79693 8.71541C3.82571 8.67452 3.82572 8.67453 3.82572 8.67453C3.8257 8.67452 3.82569 8.67451 3.82566 8.67449C3.8256 8.67445 3.8255 8.67438 3.82536 8.67427C3.82507 8.67407 3.8246 8.67374 3.82398 8.67329C3.82272 8.67239 3.82079 8.671 3.81822 8.66913C3.81308 8.66538 3.80538 8.65969 3.79534 8.65209C3.77526 8.63689 3.74583 8.61403 3.70888 8.58371C3.63498 8.52305 3.53105 8.43258 3.41166 8.31383C3.17275 8.07622 2.87264 7.72608 2.62711 7.27578C2.13718 6.37726 1.86259 5.0773 2.73339 3.46707L2.64543 3.4195ZM6.07964 10.2485L2.73431 3.42129L2.64451 3.46529L5.98984 10.2925L6.07964 10.2485ZM5.98474 6.08314V10.2705H6.08474V6.08314H5.98474ZM6.71746 6.03314H6.03474V6.13314H6.71746V6.03314ZM6.76746 8.71541V6.08314H6.66746V8.71541H6.76746ZM7.85533 8.66541H6.71746V8.76541H7.85533V8.66541ZM7.80533 6.08314V8.71541H7.90533V6.08314H7.80533ZM9.93384 6.03314H7.85533V6.13314H9.93384V6.03314ZM8.35562 8.75544C9.11885 8.18398 9.52591 7.51804 9.74205 6.9945C9.85009 6.73281 9.91043 6.50669 9.9438 6.34563C9.96049 6.26509 9.97044 6.20077 9.97623 6.15635C9.97913 6.13415 9.98099 6.11691 9.98213 6.1051C9.9827 6.0992 9.98309 6.09465 9.98335 6.09152C9.98347 6.08995 9.98357 6.08874 9.98363 6.08788C9.98366 6.08746 9.98368 6.08712 9.9837 6.08688C9.98371 6.08676 9.98372 6.08666 9.98372 6.08658C9.98372 6.08654 9.98373 6.0865 9.98373 6.08648C9.98373 6.08645 9.98373 6.08642 9.93384 6.08314C9.88395 6.07987 9.88395 6.07985 9.88395 6.07984C9.88395 6.07984 9.88395 6.07983 9.88395 6.07984C9.88395 6.07986 9.88395 6.07989 9.88394 6.07995C9.88393 6.08007 9.88392 6.08028 9.8839 6.08058C9.88385 6.08118 9.88378 6.08214 9.88367 6.08345C9.88346 6.08607 9.88312 6.0901 9.8826 6.09547C9.88156 6.10622 9.87982 6.12235 9.87707 6.14342C9.87158 6.18556 9.86203 6.24742 9.84588 6.32534C9.81359 6.48123 9.75493 6.70125 9.64962 6.95634C9.43906 7.46636 9.04203 8.11657 8.29568 8.67539L8.35562 8.75544ZM9.97177 8.66541H8.32565V8.76541H9.97177V8.66541ZM6.70706 0.548906C8.18718 0.863784 9.20075 1.47319 9.8716 2.22134C10.5426 2.96967 10.8738 3.86013 10.9832 4.74187C11.0927 5.62397 10.9801 6.49614 10.7649 7.20494C10.6573 7.55926 10.5243 7.87191 10.3812 8.12397C10.2377 8.37671 10.0857 8.56567 9.94145 8.67565L10.0021 8.75517C10.1613 8.63379 10.3212 8.43208 10.4681 8.17334C10.6154 7.91392 10.7512 7.59428 10.8606 7.234C11.0794 6.51359 11.1939 5.62727 11.0825 4.72956C10.971 3.83148 10.6331 2.9208 9.94606 2.15458C9.25882 1.38817 8.22517 0.769628 6.72787 0.451094L6.70706 0.548906ZM6.76746 5.0363V0.5H6.66746V5.0363H6.76746ZM6.03474 5.0863H6.71746V4.9863H6.03474V5.0863ZM7.81291 2.02474V5.02872H7.91292V2.02474H7.81291ZM9.94142 5.02872C9.99109 5.02294 9.99108 5.02291 9.99108 5.02288C9.99108 5.02285 9.99107 5.02281 9.99107 5.02276C9.99105 5.02267 9.99104 5.02254 9.99102 5.02238C9.99098 5.02206 9.99093 5.02161 9.99086 5.02103C9.99071 5.01986 9.9905 5.01816 9.99022 5.01595C9.98965 5.01152 9.98878 5.00504 9.98758 4.99662C9.98519 4.97976 9.98146 4.95512 9.97607 4.92358C9.9653 4.86052 9.9479 4.76983 9.9213 4.65866C9.86814 4.43641 9.7781 4.1318 9.63053 3.80215C9.3356 3.14335 8.80873 2.38011 7.8828 1.97887L7.84303 2.07062C8.73769 2.45831 9.25008 3.19705 9.53925 3.84301C9.68373 4.16574 9.77196 4.4642 9.82405 4.68192C9.85008 4.79074 9.86705 4.87927 9.8775 4.94042C9.88272 4.97099 9.88631 4.99471 9.88858 5.01069C9.88971 5.01868 9.89052 5.02473 9.89104 5.02874C9.8913 5.03074 9.89148 5.03223 9.8916 5.0332C9.89166 5.03368 9.8917 5.03403 9.89173 5.03425C9.89174 5.03436 9.89175 5.03444 9.89175 5.03448C9.89176 5.0345 9.89176 5.03451 9.89176 5.03452C9.89176 5.03451 9.89176 5.0345 9.94142 5.02872ZM7.86292 5.07872H9.94142V4.97872H7.86292V5.07872ZM7.90533 5.0363V2.03233H7.80533V5.0363H7.90533ZM7.83545 2.07821C7.83794 2.07928 7.84043 2.08037 7.84291 2.08145L7.88292 1.9898C7.88035 1.98868 7.87779 1.98756 7.87521 1.98645L7.83545 2.07821ZM9.93384 4.9863H7.85533V5.0863H9.93384V4.9863Z" fill="#646464"/>
</svg>
