<svg width="23" height="23" viewBox="0 0 23 23" fill="none" xmlns="http://www.w3.org/2000/svg">
    <path
        d="M11.47 0C17.79 0 22.93 5.12 22.93 11.42C22.93 14.4607 21.7221 17.3769 19.572 19.527C17.4219 21.6771 14.5057 22.885 11.465 22.885C8.42429 22.885 5.50813 21.6771 3.35802 19.527C1.20792 17.3769 0 14.4607 0 11.42C0 5.12 5.14 0 11.47 0ZM11.65 12.32L8.55 21.27C10.6283 21.8794 12.8451 21.8234 14.89 21.11C14.8621 21.0623 14.8387 21.012 14.82 20.96L11.65 12.32ZM2.05 7.24C0.96078 9.67859 0.865395 12.4458 1.78411 14.9536C2.70283 17.4614 4.56324 19.5121 6.97 20.67L2.05 7.24ZM20.51 6.49C20.56 6.82 20.58 7.17 20.58 7.55C20.58 8.59 20.38 9.76 19.8 11.23L16.65 20.29C18.9667 18.9481 20.6671 16.7538 21.3883 14.1755C22.1095 11.5972 21.7943 8.83912 20.51 6.49ZM11.47 1.17C7.87 1.17 4.7 3.01 2.85 5.8C3.98831 5.83791 5.12788 5.79446 6.26 5.67C6.82 5.64 6.88 6.45 6.33 6.52C6.33 6.52 5.77 6.58 5.15 6.62L8.9 17.73L11.16 10.99L9.56 6.6C9 6.57 8.47 6.5 8.47 6.5C7.92 6.47 7.98 5.63 8.54 5.66C8.54 5.66 10.24 5.79 11.25 5.79C12.33 5.8 14 5.67 14 5.67C14.55 5.64 14.62 6.45 14.07 6.52C14.07 6.52 13.51 6.58 12.89 6.62L16.61 17.66L17.64 14.23C18.1016 13.1801 18.3692 12.0553 18.43 10.91C18.4153 9.90599 18.1209 8.92596 17.58 8.08C17.05 7.23 16.56 6.52 16.56 5.68C16.56 4.73 17.28 3.85 18.3 3.85H18.43C16.5288 2.11328 14.045 1.15331 11.47 1.16V1.17Z"
        fill="#A8A8A8" />
</svg>